<svg width="517" height="206" viewBox="0 0 517 206" fill="none" xmlns="http://www.w3.org/2000/svg">
<g filter="url(#filter0_d_152_30046)">
<path d="M171.759 147.6H144.399V182.88H106.479V147.6H15.9986V121.44L95.1986 14.88H135.999L62.5586 115.92H107.679V84.48H144.399V115.92H171.759V147.6ZM255.387 185.76C241.467 185.76 229.067 182.32 218.187 175.44C207.307 168.56 198.747 158.64 192.507 145.68C186.427 132.56 183.387 116.96 183.387 98.88C183.387 80.8 186.427 65.28 192.507 52.32C198.747 39.2 207.307 29.2 218.187 22.32C229.067 15.44 241.467 12 255.387 12C269.307 12 281.707 15.44 292.587 22.32C303.467 29.2 311.947 39.2 318.027 52.32C324.267 65.28 327.387 80.8 327.387 98.88C327.387 116.96 324.267 132.56 318.027 145.68C311.947 158.64 303.467 168.56 292.587 175.44C281.707 182.32 269.307 185.76 255.387 185.76ZM255.387 152.88C265.627 152.88 273.627 148.48 279.387 139.68C285.307 130.88 288.267 117.28 288.267 98.88C288.267 80.48 285.307 66.88 279.387 58.08C273.627 49.28 265.627 44.88 255.387 44.88C245.307 44.88 237.307 49.28 231.387 58.08C225.627 66.88 222.747 80.48 222.747 98.88C222.747 117.28 225.627 130.88 231.387 139.68C237.307 148.48 245.307 152.88 255.387 152.88ZM500.118 147.6H472.758V182.88H434.838V147.6H344.358V121.44L423.558 14.88H464.358L390.918 115.92H436.038V84.48H472.758V115.92H500.118V147.6Z" fill="white"/>
</g>
<defs>
<filter id="filter0_d_152_30046" x="0" y="0" width="516.117" height="205.76" filterUnits="userSpaceOnUse" color-interpolation-filters="sRGB">
<feFlood flood-opacity="0" result="BackgroundImageFix"/>
<feColorMatrix in="SourceAlpha" type="matrix" values="0 0 0 0 0 0 0 0 0 0 0 0 0 0 0 0 0 0 127 0" result="hardAlpha"/>
<feOffset dy="4"/>
<feGaussianBlur stdDeviation="8"/>
<feComposite in2="hardAlpha" operator="out"/>
<feColorMatrix type="matrix" values="0 0 0 0 0 0 0 0 0 0 0 0 0 0 0 0 0 0 0.12 0"/>
<feBlend mode="normal" in2="BackgroundImageFix" result="effect1_dropShadow_152_30046"/>
<feBlend mode="normal" in="SourceGraphic" in2="effect1_dropShadow_152_30046" result="shape"/>
</filter>
</defs>
</svg>
