<svg width="42" height="42" viewBox="0 0 42 42" fill="none" xmlns="http://www.w3.org/2000/svg">
<path d="M37.2227 26.8954C36.4906 28.392 35.335 29.79 34.1089 30.912C33.6378 31.3424 31.6614 33.2431 31.2626 32.2575C30.9474 31.4804 32.2918 30.8939 32.7973 30.4192C35.2628 28.1144 37.1128 25.734 37.3803 22.2217C37.8629 15.8559 35.12 11.2873 30.1595 7.6535C29.7426 7.34794 28.825 7.12124 28.8726 6.48712C28.9399 6.04522 29.2944 5.83658 29.7229 5.94665C30.2711 6.08793 32.2737 7.66829 32.799 8.12662C37.7053 12.4225 39.9788 19.1661 37.9302 25.504L39.5979 27.3833C39.9115 27.5147 40.0379 26.4634 40.0887 26.2399C40.9883 22.34 40.9751 17.5316 39.6373 13.74C36.3708 4.47143 24.9495 -2.12434 15.7605 3.13421C15.7293 3.41184 16.3268 3.31327 16.5041 3.30341C19.4046 3.1572 21.5533 2.98307 24.4439 3.70425C25.1267 3.8751 27.827 4.65542 27.891 5.35196C28.0174 6.7549 25.7636 5.37168 25.0988 5.17783C21.742 4.20201 18.3721 4.13137 14.9398 4.77206L16.4155 8.21205C18.2129 7.85228 21.3366 5.52445 22.502 7.9377C23.2013 9.38499 23.3261 11.0721 22.8517 12.6032C21.8323 15.897 19.3668 14.0489 17.0688 13.4542C17.3248 14.1277 15.923 17.5529 16.0855 17.7155C19.6541 17.5447 25.1497 17.8503 27.5496 20.9157C30.02 24.0748 27.7991 30.0545 23.9203 31.0418C22.264 31.4623 22.5135 30.8364 21.4433 30.1383C19.6557 28.9719 17.6663 28.9325 15.7605 29.8442C15.4667 30.2368 16.8816 30.5637 17.1295 30.6853C18.963 31.5773 20.1761 32.632 20.634 34.7183C21.092 36.8047 20.6061 38.6495 19.8576 40.657C21.6042 40.7359 23.2243 39.4709 23.981 37.9825C24.347 37.263 24.5933 35.5052 24.9429 35.1767C25.3204 34.8202 26.5105 34.4884 27.0686 34.1894C27.8975 33.7458 30.9228 31.5166 30.1792 33.8608C29.4241 34.5639 26.3759 35.5184 25.9097 36.1443C25.6586 36.4794 25.3943 37.9398 25.0693 38.5822C24.2371 40.2299 21.4433 42.5084 19.5211 41.8989C17.5038 41.2599 19.3931 38.8023 19.5277 37.4634C19.7181 35.5594 19.3504 33.5553 17.7172 32.3954C16.7339 31.6973 14.6181 31.5428 14.4851 30.2155C14.3357 28.7189 16.6814 28.1094 17.8025 28.0355C19.4587 27.9254 20.6242 28.2474 22.0391 29.0557C23.1521 29.6898 22.7778 30.2763 24.2617 29.5814C26.7026 28.4396 27.6677 25.3068 27.2262 22.7983C26.4826 23.5803 26.2512 24.7434 25.4321 25.5089C24.5309 26.3516 23.2128 26.7114 22.5578 25.4218C22.0818 24.4854 20.9968 19.3912 20.5142 19.107C18.0044 18.6224 15.4289 19.0133 12.8945 18.8638C12.0114 18.8113 9.76916 18.5895 9.00587 18.3299C8.16216 18.0425 7.9225 17.4872 8.80233 17.0551L14.5048 17.7303C16.7093 13.8435 16.3367 8.56853 13.5133 5.12197C10.1861 5.67395 2.99153 8.63424 1.60613 11.836C0.832997 13.6217 1.67835 14.3429 3.14254 15.1807C3.85494 15.5881 6.77183 16.5032 6.91792 16.6477C7.14116 16.8662 7.1822 17.4642 6.92285 17.6482C6.4698 17.9718 4.20293 17.0568 3.64155 16.812C-5.2191 12.9465 4.28501 6.96682 9.00259 5.14169C10.2468 4.66035 12.2117 4.32687 13.2556 3.82417C13.7743 3.57447 14.2257 2.85 14.6985 2.48202C19.7378 -1.44916 27.1802 -0.254854 32.2934 2.90093C40.2693 7.82271 43.3914 16.8744 41.4315 25.9459C41.1409 27.2913 40.9571 28.9193 39.1383 28.4988C38.2897 28.3016 38.119 27.035 37.2227 26.8971V26.8954ZM20.639 8.08062C20.1219 8.13648 17.3626 9.12708 17.0655 9.44085C16.8849 9.63305 17.0392 11.0048 17.1082 11.3678C17.1541 11.606 17.2296 11.882 17.402 12.0578C17.75 12.4126 20.4223 13.3737 20.9147 13.2997C22.0851 13.124 22.072 8.95951 21.248 8.20876C21.0067 7.99027 20.918 8.04941 20.639 8.07898V8.08062ZM26.2265 21.1835C24.9544 20.2996 23.5624 19.5505 21.985 19.3567L23.8677 25.0884C25.2055 24.2604 25.8966 22.6636 26.2265 21.1851V21.1835Z" fill="#312783"/>
<path d="M7.68121 9.71848C9.46713 9.16979 9.71991 11.5617 8.26885 11.7917C7.10013 11.9773 6.61754 10.0454 7.68121 9.71848Z" fill="#312783"/>
</svg>
