<svg width="34" height="46" viewBox="0 0 34 46" fill="none" xmlns="http://www.w3.org/2000/svg">
<path d="M24.6668 29.8313L29.6038 41.5965C30.2929 44.4117 25.1841 41.438 24.2372 41.7046L21.8848 45.7698C21.108 46.2561 20.6546 45.9193 20.2543 45.224C19.8339 44.4946 17.9183 40.0997 17.7721 39.3991C17.6423 38.7777 17.7922 38.3688 18.4831 38.3544C19.4227 38.5633 20.5102 42.996 21.2926 43.8389C22.0548 43.05 22.7018 40.6491 23.7474 40.3267C24.6704 40.0421 27.6078 41.3984 27.9496 41.1462L23.2063 30.0096C22.8389 29.7286 19.3715 32.7239 18.8597 33.1814C17.847 34.7106 14.0414 45.4942 13.1805 45.9139C12.7711 46.1138 12.2977 45.9427 12.0052 45.6293C11.3033 44.8782 10.5338 42.6466 9.88124 41.6992C9.56502 41.4686 5.93306 42.8861 5.21472 42.8933C4.61335 42.8987 4.11435 42.2593 4.32455 41.6901L9.07881 30.5517L9.16838 29.8331C7.46298 29.8925 5.44685 29.6277 4.45615 28.0967C3.26987 26.2649 4.16004 23.4407 3.04688 21.7602C1.69243 19.7141 -0.32918 19.0333 0.0455313 16.0848C0.283153 14.2061 2.66302 12.8751 3.2845 11.3729C4.03757 9.55552 3.34299 7.12034 4.52927 5.41284C5.97145 3.33609 8.39702 3.95569 10.5192 3.59006C12.9941 3.16498 14.2608 -0.0951305 17.1013 0.00213249C19.7791 0.093992 21.0257 3.15057 23.497 3.59006C25.2225 3.89806 27.1417 3.46217 28.6625 4.60772C31.121 6.46112 29.5527 9.72663 30.9692 11.8556C32.3858 13.9846 34.4367 14.7357 33.9212 17.6626C33.6215 19.3665 31.2672 20.7696 30.6439 22.3366C29.9127 24.172 30.6658 26.6972 29.3022 28.3795C28.2384 29.6926 26.2589 29.8925 24.6668 29.8313ZM5.94586 5.8217C4.71937 6.99246 5.33353 10.1877 4.64442 11.8142C3.99188 13.3542 1.30858 15.1608 1.30858 16.8088C1.30858 18.3794 3.99553 20.2599 4.64442 21.8035C5.54007 23.9342 4.20939 27.7563 7.29482 28.3525C8.79184 28.6425 10.6581 28.3975 12.0875 29.0207C13.5918 29.6764 15.2387 32.135 16.9148 32.1836C18.8067 32.2394 20.4262 29.5016 22.1608 28.8911C23.7455 28.3345 26.809 28.8064 27.9569 27.7743C29.2876 26.5784 28.6186 23.2876 29.4558 21.5261C30.1814 20.0005 32.7532 18.4101 32.6765 16.6413C32.6125 15.1914 29.9913 13.3218 29.3735 11.8124C28.7557 10.303 29.1067 8.31992 28.6332 6.79433C27.9131 4.47083 24.0764 5.33899 22.1955 4.69417C20.3476 4.06196 19.0224 1.38903 16.9148 1.43946C15.0047 1.48449 13.6119 4.00072 11.7712 4.64374C10.2066 5.18949 6.97312 4.84547 5.94769 5.8235L5.94586 5.8217ZM17.0081 33.6047C14.3759 33.5128 13.1385 30.7787 10.8007 30.087L6.0665 41.1444C6.41379 41.4056 9.27805 40.0241 10.2669 40.3249C11.3454 40.6527 11.8316 43.2464 12.8113 43.8407L17.0081 33.6047Z" fill="#312783"/>
<path d="M13.3121 8.22984C13.0709 8.473 11.6159 9.11601 11.0858 9.53749C2.1878 16.5873 11.4843 30.3662 21.5704 24.8942C29.5362 20.5732 26.9882 8.38474 18.1925 7.55981C17.1251 7.45894 14.6282 8.10736 15.0833 6.4719C19.7773 5.0778 25.1165 8.27667 26.9425 12.5923C30.6731 21.4072 21.8519 30.2095 12.8735 26.6324C6.04823 23.9126 4.01748 15.2994 8.79916 9.80046C9.45536 9.04757 12.0875 6.78531 13.0471 7.04647C13.5735 7.18877 13.6704 7.87321 13.3121 8.23344V8.22984Z" fill="#312783"/>
<path d="M20.7899 11.9096C21.7331 11.7475 22.5044 12.0645 23.0254 12.8552C23.7803 13.9972 23.2356 14.8185 22.4825 15.7335C21.6088 16.7962 16.9679 21.4702 15.9753 22.0754C15.0961 22.6122 14.3284 22.6284 13.4163 22.1421C12.9356 21.8845 10.2304 19.235 9.92878 18.7523C8.7297 16.8466 10.3273 14.8852 12.4604 15.539C13.1056 15.7371 14.3047 17.4896 14.705 17.4212L19.9199 12.3077C20.1611 12.0915 20.4737 11.9619 20.7917 11.9078L20.7899 11.9096ZM11.0365 16.9439C10.9176 17.0592 10.8299 17.3329 10.8537 17.4968C10.9103 17.9111 14.0268 21.0199 14.4509 21.137C14.5807 21.173 14.6977 21.1982 14.8256 21.137L21.7587 14.4835C22.3107 13.5487 21.6435 12.9471 20.7369 13.4766C19.6055 14.2367 15.9552 18.7487 15.0559 19.0188C13.4218 19.5087 12.1752 15.8488 11.0365 16.9457V16.9439Z" fill="#312783"/>
</svg>
