<svg width="44" height="43" viewBox="0 0 44 43" fill="none" xmlns="http://www.w3.org/2000/svg">
<path d="M8.4334 32.2424C8.47579 30.1454 8.37914 28.035 8.42662 25.9364C8.4351 25.5389 8.60126 25.1717 8.60973 24.7742C8.6979 20.8818 8.36388 16.1152 8.7725 12.334C8.79963 12.083 8.82676 11.8304 8.98105 11.6215C9.29811 11.3066 13.4809 11.3032 13.9048 11.5676C14.0303 11.6468 14.0744 11.7681 14.1117 11.9028L14.5237 29.5559H16.3871C16.4244 28.8603 16.3362 28.1445 16.3786 27.4489C16.5312 24.9746 16.5837 21.9665 16.9093 19.5697C17.0195 18.7528 17.4467 18.8455 18.1555 18.7966C18.7387 18.7562 20.6157 18.6535 20.8412 19.179L21.6194 29.4818H22.9945L23.8693 19.0122C24.2 18.6855 27.296 18.6619 27.5656 19.0847L28.2285 29.5559H29.824L30.5412 19.179C30.7735 18.6383 33.7542 18.6771 34.2086 18.96C34.663 19.243 34.9512 28.3281 34.9987 29.5559H39.4833C40.192 29.5559 41.0602 30.5328 41.1924 31.2318C41.3789 32.2171 40.5837 32.9043 40.5837 33.0003V41.6509C41.2856 41.7486 43.3169 41.2618 43.2423 42.3819C43.2033 42.9646 42.6794 42.9596 42.1995 43L0.466187 42.9192C-0.869877 41.8143 0.988405 41.4639 2.00571 41.6492C1.8209 39.9043 2.24817 37.6961 2.01249 36.0135C1.91585 35.3196 1.25969 34.9272 1.35803 34.0513C1.44111 33.3136 2.35838 32.2424 3.1044 32.2424H8.4351H8.4334ZM12.8316 12.7567H10.1238L9.44562 41.6509H10.8003V32.9986C10.8003 32.9228 10.156 32.2491 10.134 31.6411C10.0713 29.9736 11.9329 29.3286 13.3385 29.5543L12.8316 12.7567ZM17.5705 29.5543H20.2783L19.7713 20.1458H18.1758L17.5705 29.5543ZM24.339 29.5543H27.0467L26.5398 20.1458H24.9443L24.339 29.5543ZM31.1075 29.5543H33.8152L33.3083 20.1458H31.7128L31.1075 29.5543ZM39.4833 30.8983H11.9007C11.7769 30.8983 11.3802 31.4306 11.4701 31.6461C11.4599 31.8213 11.8176 32.2424 11.9007 32.2424H35.253C35.3242 32.2424 35.6311 32.4378 35.6888 32.5304L35.6311 33.3726C35.5803 33.4264 35.292 33.5865 35.253 33.5865H12.155V41.6492H39.229V33.5865C38.5966 33.5612 37.1808 33.8273 37.2469 32.8555C37.3317 31.6108 39.9021 32.9515 39.9123 31.4962C39.9004 31.3093 39.6207 30.9387 39.4816 30.9L39.4833 30.8983ZM8.26385 33.5848H3.10271C2.88229 33.5848 2.61271 34.1642 2.70087 34.4741C2.88229 35.099 3.9369 34.7941 3.98438 35.5402C4.02168 36.1466 3.35704 36.2544 3.35704 36.3554V41.6475H8.0943L8.26385 36.2712C7.54665 36.1584 5.35605 36.6873 5.43573 35.5402C5.50355 34.5549 7.55513 35.0366 8.26385 34.9288V33.5848Z" fill="#312783"/>
<path d="M15.4596 10.5149C14.4932 9.57848 16.3854 9.40331 16.7278 9.25341C17.1551 9.06645 17.3331 8.482 17.8638 8.53253C19.0846 9.50605 19.8629 10.2724 21.5804 10.0383C22.162 9.95913 22.7011 9.46058 23.2047 9.61553C23.6523 9.75364 24.066 10.4156 24.4984 10.6969C26.0549 11.7091 27.7962 11.4918 29.4662 10.9579C30.5819 12.0662 31.3025 13.3378 32.781 14.0638C38.8916 17.0601 45.2125 10.3836 41.779 4.62664C39.8648 1.41637 35.7108 0.301364 32.4554 2.19115C32.0129 2.44884 31.2058 3.25394 30.8599 3.30784C30.3259 3.39037 29.4188 2.47074 28.7796 2.24504C27.608 1.83239 26.3109 1.88292 25.1681 2.34779C24.395 2.66275 23.5235 3.74407 23.0775 3.81144C22.6859 3.87039 22.084 3.41732 21.5787 3.34826C20.2749 3.17141 18.8795 3.66491 18.1504 4.78665C17.9317 5.12351 17.874 5.56985 17.6909 5.84102C17.1399 6.65622 16.7465 6.03135 16.0106 6.0044C14.0116 5.93029 14.4338 7.79986 13.8946 8.13167L12.6603 8.06092C12.0025 8.24788 12.3619 9.39489 11.4633 9.33089C10.4087 9.25678 11.0123 7.66511 11.6057 7.19351C12.1483 6.76065 12.9418 6.82297 13.1791 6.65622C13.2622 6.59727 13.5233 5.87976 13.7234 5.64733C14.3541 4.91634 15.8445 4.45484 16.7635 4.84392C17.2823 3.20173 19.2253 2.04124 20.9259 1.98566C21.5821 1.96377 22.4705 2.41516 22.908 2.30063C23.1233 2.24336 23.9694 1.49553 24.4373 1.28668C26.6602 0.289574 28.6863 0.611275 30.7345 1.8206C37.3656 -3.38388 46.635 3.44595 43.2965 11.2729C41.1737 16.2517 34.4951 17.6328 30.4751 14.0014C30.1258 13.6865 29.2424 12.4856 29.0051 12.4317C28.6507 12.3508 27.6978 12.745 27.1756 12.7534C26.3787 12.7669 24.9189 12.3643 24.2068 11.9938C23.8015 11.7832 23.2437 11.1735 22.9029 11.091C22.4316 10.9781 21.7754 11.3655 21.2498 11.3992C20.5275 11.443 19.5627 11.1802 18.9066 10.872C18.5403 10.7002 18.0249 10.1697 17.7977 10.1242C17.4671 10.0585 16.1395 11.1752 15.4579 10.5149H15.4596Z" fill="#312783"/>
<path d="M17.4077 35.1225C17.9181 35.643 17.7519 38.4086 16.4193 37.3205C15.8716 36.4565 16.4396 34.1355 17.4077 35.1225Z" fill="#312783"/>
<path d="M20.1155 35.1225C20.6258 35.643 20.4597 38.4086 19.127 37.3205C18.5793 36.4565 19.1473 34.1355 20.1155 35.1225Z" fill="#312783"/>
<path d="M22.8232 35.1225C23.3336 35.643 23.1674 38.4086 21.8347 37.3205C21.2871 36.4565 21.8551 34.1355 22.8232 35.1225Z" fill="#312783"/>
<path d="M25.5293 35.1225C26.0396 35.643 25.8734 38.4086 24.5408 37.3205C23.9931 36.4565 24.5611 34.1355 25.5293 35.1225Z" fill="#312783"/>
<path d="M28.237 35.1225C28.7473 35.643 28.5812 38.4086 27.2485 37.3205C26.7009 36.4565 27.2688 34.1355 28.237 35.1225Z" fill="#312783"/>
<path d="M30.9447 35.1225C31.4551 35.643 31.2889 38.4086 29.9562 37.3205C29.4086 36.4565 29.9766 34.1355 30.9447 35.1225Z" fill="#312783"/>
<path d="M33.6525 35.1225C34.1628 35.643 33.9966 38.4086 32.664 37.3205C32.1163 36.4565 32.6843 34.1355 33.6525 35.1225Z" fill="#312783"/>
<path d="M36.3602 35.1225C36.8705 35.643 36.7044 38.4086 35.3717 37.3205C34.8241 36.4565 35.3921 34.1355 36.3602 35.1225Z" fill="#312783"/>
</svg>
