<svg width="44" height="41" viewBox="0 0 44 41" fill="none" xmlns="http://www.w3.org/2000/svg">
<path d="M27.1717 26.7425L34.3023 35.9718C35.4308 36.1955 36.1912 35.8196 37.2135 36.5348C38.5582 37.4755 38.4813 39.5477 38.1405 41H5.60057C5.27263 39.5201 5.1224 37.5195 6.52762 36.5348C7.5481 35.8196 8.31025 36.1974 9.43882 35.9718L16.5694 26.7425H1.12292C0.494508 26.7425 0.613595 24.232 0.707032 23.7681C0.846272 23.0841 1.5901 22.224 2.2973 22.0682L20.1383 21.9948C21.3676 21.4869 22.379 21.4905 23.601 21.9948L41.442 22.0682C42.151 22.224 42.893 23.0841 43.0322 23.7681C43.1257 24.2302 43.2447 26.7425 42.6163 26.7425H27.1699H27.1717ZM32.8384 36.0635L22.4303 22.7999C21.9044 22.6348 21.2779 22.6587 20.8803 23.1006L10.9027 36.0635H32.8384ZM19.4934 23.0859H2.58494C1.68171 23.0859 1.67988 25.0315 1.76232 25.644H17.392L19.4934 23.0859ZM41.9788 25.6459C42.0612 25.0334 42.0594 23.0878 41.1562 23.0878H24.2477L26.3491 25.6459H41.9788ZM37.2263 39.9016C37.2996 38.893 37.2776 37.3691 36.0263 37.1711L7.28977 37.294C6.41586 37.8899 6.47449 38.9498 6.51479 39.9016H37.2263Z" fill="#312783"/>
<path d="M36.4458 2.66141C36.9441 3.19137 36.4477 4.7409 36.7903 5.00863C38.3714 6.09973 38.3402 3.88087 39.859 4.08075C40.5296 4.16877 42.0667 5.70547 42.1565 6.37663C42.3287 7.6786 40.7916 7.87298 40.907 8.69084C41.1378 10.3247 42.8857 9.09244 43.58 9.7856C43.9996 10.2037 44.0435 11.7844 43.9721 12.3767C43.6881 14.7276 41.6746 13.3083 41.2276 13.8767C40.1357 15.4574 42.3562 15.4263 42.1565 16.9446C42.0759 17.5571 40.6029 19.0773 40.0184 19.2093C38.5619 19.5376 38.3988 17.8725 37.5451 17.9935C35.9109 18.2228 37.1439 19.9722 36.4513 20.6653C35.9438 21.1733 33.5896 21.2155 32.9648 20.8561C32.0341 20.3188 32.767 18.6335 32.3584 18.3145C30.7773 17.2234 30.8084 19.4422 29.2896 19.2423C28.6191 19.1543 27.082 17.6176 26.9922 16.9465C26.7925 15.4318 29.0057 15.4831 27.8771 13.7887C25.3341 14.0711 24.8248 13.1817 25.1784 10.7648C25.477 8.72385 27.5711 9.95614 27.9229 9.45002C28.9599 7.75745 26.6606 7.88031 26.9904 6.18225C27.0893 5.67796 28.7308 4.15227 29.2896 4.07891C30.8048 3.88087 30.7498 6.09056 32.4482 4.96279C32.5874 4.20911 32.1679 2.92547 32.9648 2.4652C33.5951 2.10211 35.9292 2.10945 36.4458 2.65958V2.66141ZM35.5811 3.34541H33.5676C33.7471 4.89311 33.4723 6.09239 31.7868 6.41147C30.3083 6.69203 29.9968 4.92978 29.3666 5.25436L28.0988 6.56917C28.5623 7.58324 29.5773 7.53373 29.3226 8.87422C29.002 10.565 27.7965 10.8327 26.2557 10.6548V12.6664C27.8038 12.4886 29.002 12.7618 29.3226 14.447C29.6029 15.9251 27.8404 16.2368 28.1647 16.8676L29.4802 18.1347C30.4952 17.6726 30.4457 16.6567 31.7868 16.9098C33.4778 17.2307 33.7453 18.4355 33.5676 19.9758H35.5811C35.4748 18.2906 35.5371 17.2674 37.3619 16.908C38.833 16.6182 39.1518 18.3915 39.7839 18.0669L41.0517 16.7521C40.5955 15.7453 39.5641 15.7784 39.826 14.4452C40.1595 12.7453 41.0865 12.5326 42.7116 12.6646V10.653C41.0884 10.7868 40.1613 10.5741 39.826 8.87238C39.5366 7.4017 41.3101 7.08263 40.9839 6.44998L39.6685 5.18284C38.6535 5.64495 38.703 6.66086 37.3619 6.4078C35.6708 6.08689 35.4034 4.8821 35.5811 3.34174V3.34541Z" fill="#312783"/>
<path d="M8.66934 0.106973C24.1982 -1.7488 24.6196 21.1568 10.2834 21.0578C-2.77946 20.9679 -3.48481 1.55932 8.66934 0.106973ZM8.66385 1.1999C-2.04478 2.64858 -1.35042 20.0015 10.4135 19.9098C23.3591 19.809 22.5292 -0.674212 8.66385 1.1999Z" fill="#312783"/>
<path d="M21.2687 24.5878C24.4346 23.8653 24.3466 28.534 21.4574 27.9821C19.6674 27.6392 19.6931 24.9472 21.2687 24.5878ZM21.6351 25.6715C20.7649 25.9154 21.1753 27.1587 22.1041 26.8983C22.9744 26.6544 22.564 25.4111 21.6351 25.6715Z" fill="#312783"/>
<path d="M34.0751 7.4127C39.8334 6.73054 40.46 15.7325 34.7475 15.9636C29.4509 16.1763 28.6704 8.05269 34.0751 7.4127ZM34.2638 8.5038C29.548 8.97691 31.2298 16.3542 35.7624 14.5846C39.1189 13.2753 37.8217 8.14621 34.2638 8.5038Z" fill="#312783"/>
<path d="M9.58173 2.85029C19.8708 1.86922 20.9151 17.658 10.8092 18.1494C0.789477 18.6354 -0.0642826 3.76901 9.58173 2.85029ZM9.76494 3.94688C0.249007 4.8711 3.14373 19.5247 12.328 16.7447C19.6839 14.5186 17.4909 3.19504 9.76494 3.94688Z" fill="#312783"/>
<path d="M10.9228 6.80023C10.9613 6.84424 11.467 6.87541 11.6996 7.02578C12.4325 7.49339 12.9858 8.32592 12.6487 9.20796L11.8315 9.36017C11.9763 7.29534 8.61804 7.35219 9.09622 9.06676C9.3692 10.0423 12.9125 10.013 12.7384 12.3932C12.6377 13.7814 11.2618 13.8602 10.9869 14.3113C10.6792 14.8175 11.3039 16.0718 10.2596 15.9709C9.46081 15.8939 10.0031 14.7863 9.71364 14.3113C9.42417 13.8364 7.48947 13.4733 8.00062 11.8761C8.42201 10.5576 9.25378 12.7801 9.33256 12.8627C10.1369 13.7099 11.9745 13.013 11.6099 11.8761C11.4175 11.2746 8.29926 10.6255 8.02261 9.42435C7.81925 8.5423 7.99696 7.83814 8.69866 7.26967C9.09989 6.94326 9.74295 6.8424 9.78143 6.79839C9.94815 6.60768 9.58356 5.34238 9.97013 5.06915C11.4431 4.50802 10.6682 6.51783 10.9173 6.79839L10.9228 6.80023Z" fill="#312783"/>
</svg>
