<svg width="40" height="40" viewBox="0 0 40 40" fill="none" xmlns="http://www.w3.org/2000/svg">
<path opacity="0.3" d="M27.4497 27.4515C35.6814 19.2198 39.0164 9.21148 34.9014 5.09648C30.7864 0.97981 20.7781 4.31648 12.5464 12.5465C4.31473 20.7798 0.979728 30.7881 5.09473 34.9031C9.21139 39.0198 19.2197 35.6815 27.4497 27.4515Z" fill="#E81010"/>
<path opacity="0.3" d="M12.5464 27.4515C4.31473 19.2215 0.979728 9.21148 5.09473 5.09648C9.20973 0.97981 19.2181 4.31648 27.4497 12.5465C35.6814 20.7798 39.0164 30.7881 34.9014 34.9031C30.7847 39.0198 20.7764 35.6815 12.5464 27.4515Z" fill="#E81010"/>
<path d="M24.1654 20C24.1654 21.1051 23.7264 22.1649 22.945 22.9463C22.1636 23.7277 21.1038 24.1667 19.9987 24.1667C18.8936 24.1667 17.8338 23.7277 17.0524 22.9463C16.271 22.1649 15.832 21.1051 15.832 20C15.832 18.895 16.271 17.8352 17.0524 17.0538C17.8338 16.2724 18.8936 15.8334 19.9987 15.8334C21.1038 15.8334 22.1636 16.2724 22.945 17.0538C23.7264 17.8352 24.1654 18.895 24.1654 20Z" fill="#E81010"/>
</svg>
