<svg width="18" height="23" viewBox="0 0 18 23" fill="none" xmlns="http://www.w3.org/2000/svg">
<path d="M13.4409 5.12961C16.1554 4.85355 17.2597 5.4936 17.4733 8.28076C17.7414 11.7795 18.1303 17.1228 17.957 20.5193C17.8885 21.8751 17.29 22.6235 15.9619 22.8689C11.4861 22.5437 6.47423 23.2819 2.06693 22.873C-0.770507 22.6112 0.120224 19.5357 0.174635 17.6729C0.269351 14.4051 0.184711 10.6896 0.567604 7.47099C0.84369 5.14392 2.39138 5.0335 4.39251 5.12961C4.12448 -1.60415 13.8036 -1.81478 13.4429 5.12961H13.4409ZM12.0342 5.12961C12.1048 0.40391 5.83742 0.33643 5.99864 5.12961H12.0342ZM15.3533 6.75937H2.37728C1.71427 11.2929 1.83115 15.9429 1.56111 20.5316C1.55305 21.3393 2.22614 21.3884 2.87101 21.4477C6.01073 21.7299 12.008 21.7135 15.1599 21.4477C17.1791 21.2759 16.2763 20.0797 16.2501 18.6953C16.1776 14.8509 16.0042 10.9923 15.7523 7.17244C15.71 7.07837 15.4198 6.77982 15.3533 6.76142V6.75937Z" fill="#FF3C00"/>
<path d="M10.9581 10.5608C11.6917 9.85531 11.8025 7.99652 12.9149 8.23373C14.1079 8.48933 13.0016 10.6467 12.5219 11.2274C10.6619 13.4809 7.01633 13.4297 5.30943 11.027C4.83787 10.3645 4.06402 8.82469 5.05148 8.33393L5.59761 8.27462C6.1921 8.75721 6.15583 9.55267 6.59918 10.1293C7.60276 11.4299 9.75906 11.7141 10.9601 10.5608H10.9581Z" fill="#FF3C00"/>
</svg>
