<svg width="40" height="40" viewBox="0 0 40 40" fill="none" xmlns="http://www.w3.org/2000/svg">
<path opacity="0.5" d="M19.9987 33.38V30H13.332V33.38C13.332 33.8417 13.332 34.0733 13.4904 34.1667C13.6487 34.26 13.8637 34.1567 14.297 33.95L16.367 32.9617C16.5137 32.8917 16.587 32.8567 16.6654 32.8567C16.7437 32.8567 16.817 32.89 16.9637 32.9617L19.0337 33.95C19.467 34.1567 19.6837 34.26 19.8404 34.1667C19.9987 34.0733 19.9987 33.8417 19.9987 33.38Z" fill="#E81010"/>
<path d="M13.335 30H12.3783C10.5717 30 9.94168 30.01 9.45668 30.1133C8.60168 30.2967 7.85668 30.6917 7.31501 31.225C7.13168 31.405 7.04168 31.4933 6.83001 32.0667C6.61834 32.64 6.65168 32.8817 6.72001 33.3667L6.75668 33.6167C6.94001 34.705 7.27334 35.28 7.78334 35.69C8.29501 36.1 9.01168 36.3683 10.3667 36.5133C11.7617 36.6633 13.61 36.6667 16.26 36.6667H23.6433C26.2933 36.6667 28.1433 36.665 29.5367 36.5133C30.8917 36.3683 31.6083 36.1 32.12 35.69C32.6317 35.28 32.9633 34.705 33.1467 33.6183C33.2983 32.705 33.33 31.55 33.335 30H20.0017V33.38C20.0017 33.8417 20.0017 34.0733 19.8433 34.1667C19.685 34.26 19.47 34.1567 19.0367 33.95L16.9667 32.9617C16.82 32.8917 16.7467 32.8567 16.6683 32.8567C16.59 32.8567 16.5167 32.89 16.37 32.9617L14.3 33.95C13.8667 34.1567 13.65 34.26 13.4933 34.1667C13.335 34.0733 13.335 33.8417 13.335 33.38V30Z" fill="#E81010"/>
<path opacity="0.5" d="M7.87964 4.55504C8.38964 4.04171 9.10297 3.70837 10.453 3.52504C11.843 3.33671 13.683 3.33337 16.323 3.33337H23.6796C26.3196 3.33337 28.1596 3.33671 29.5496 3.52504C30.8996 3.70837 31.613 4.04171 32.123 4.55504C32.6313 5.06837 32.963 5.78837 33.1446 7.15004C33.3313 8.55004 33.3346 10.4084 33.3346 13.07V30H12.378C10.5713 30 9.9413 30.01 9.4563 30.1134C8.6013 30.2967 7.8563 30.6917 7.31464 31.225C7.1313 31.405 7.0413 31.4934 6.82964 32.0667C6.7296 32.3103 6.67482 32.5701 6.66797 32.8334V13.07C6.66797 10.4084 6.6713 8.55171 6.85797 7.15004C7.03964 5.79004 7.3713 5.06837 7.87964 4.55504Z" fill="#E81010"/>
<path d="M12.082 11.6666C12.082 11.3351 12.2137 11.0172 12.4481 10.7827C12.6826 10.5483 13.0005 10.4166 13.332 10.4166H26.6654C26.9969 10.4166 27.3148 10.5483 27.5492 10.7827C27.7837 11.0172 27.9154 11.3351 27.9154 11.6666C27.9154 11.9981 27.7837 12.3161 27.5492 12.5505C27.3148 12.7849 26.9969 12.9166 26.6654 12.9166H13.332C13.0005 12.9166 12.6826 12.7849 12.4481 12.5505C12.2137 12.3161 12.082 11.9981 12.082 11.6666ZM13.332 16.25C13.0005 16.25 12.6826 16.3817 12.4481 16.6161C12.2137 16.8505 12.082 17.1684 12.082 17.5C12.082 17.8315 12.2137 18.1494 12.4481 18.3838C12.6826 18.6183 13.0005 18.75 13.332 18.75H21.6654C21.9969 18.75 22.3148 18.6183 22.5492 18.3838C22.7837 18.1494 22.9154 17.8315 22.9154 17.5C22.9154 17.1684 22.7837 16.8505 22.5492 16.6161C22.3148 16.3817 21.9969 16.25 21.6654 16.25H13.332Z" fill="#E81010"/>
</svg>
