<svg width="40" height="40" viewBox="0 0 40 40" fill="none" xmlns="http://www.w3.org/2000/svg">
<path d="M14.0354 34.3631C16.962 35.8998 18.4254 36.6664 19.9987 36.6664V19.9998L4.39536 11.7881L4.3287 11.8998C3.33203 13.5898 3.33203 15.6948 3.33203 19.9031V20.0981C3.33203 24.3048 3.33203 26.4098 4.32703 28.0998C5.3237 29.7914 7.11703 30.7331 10.702 32.6148L14.0354 34.3631Z" fill="#E81010"/>
<path opacity="0.7" d="M29.2968 7.38671L25.9634 5.63671C23.0384 4.10171 21.5751 3.33337 20.0018 3.33337C18.4268 3.33337 16.9651 4.10004 14.0384 5.63671L10.7051 7.38671C7.19844 9.22671 5.4051 10.1667 4.39844 11.7867L20.0018 20L35.6051 11.7884C34.5951 10.1667 32.8051 9.22671 29.2968 7.38671Z" fill="#E81010"/>
<path opacity="0.5" d="M35.6717 11.9L35.6033 11.7883L20 20V36.6667C21.5733 36.6667 23.0367 35.9 25.9633 34.3633L29.2967 32.6133C32.8817 30.7317 34.675 29.7917 35.6717 28.1C36.6667 26.41 36.6667 24.305 36.6667 20.1V19.905C36.6667 15.6967 36.6667 13.59 35.6717 11.9Z" fill="#E81010"/>
<path d="M10.5389 7.47329L10.7056 7.38662L13.1939 6.07996L28.3606 14.4216L35.0689 11.07C35.2967 11.3277 35.4978 11.6044 35.6722 11.9C35.9222 12.3233 36.1089 12.7733 36.2489 13.275L29.5839 16.6066V21.6666C29.5839 21.9981 29.4522 22.3161 29.2178 22.5505C28.9834 22.7849 28.6654 22.9166 28.3339 22.9166C28.0024 22.9166 27.6844 22.7849 27.45 22.5505C27.2156 22.3161 27.0839 21.9981 27.0839 21.6666V17.8566L21.2506 20.7733V36.5066C20.8423 36.6125 20.4223 36.6662 20.0006 36.6666C19.5872 36.6666 19.1789 36.6133 18.7506 36.5066V20.7733L3.75391 13.2733C3.89391 12.7733 4.08057 12.3233 4.33057 11.9C4.50391 11.6044 4.70502 11.3277 4.93391 11.07L20.0006 18.6033L25.6456 15.7816L10.5389 7.47329Z" fill="#E81010"/>
</svg>
