<svg width="40" height="40" viewBox="0 0 40 40" fill="none" xmlns="http://www.w3.org/2000/svg">
<path d="M11.5654 3.33337C12.2587 3.33337 12.8204 3.87337 12.8204 4.54004V6.97337C13.9337 6.95337 15.182 6.95337 16.587 6.95337H23.2787C24.682 6.95337 25.9304 6.95337 27.0437 6.97504V4.54171C27.0437 3.87504 27.6054 3.33337 28.2987 3.33337C28.992 3.33337 29.5537 3.87337 29.5537 4.54004V7.08337C31.962 7.26837 33.5437 7.72337 34.7037 8.84171C35.867 9.95837 36.3404 11.4784 36.532 13.795L36.6654 15H3.33203V13.7934C3.52536 11.4767 3.9987 9.95671 5.16036 8.84004C6.32203 7.72337 7.90203 7.26671 10.3104 7.08171V4.54004C10.3104 3.87337 10.872 3.33337 11.5654 3.33337Z" fill="#E81010"/>
<path opacity="0.5" d="M36.6659 23.3333V20C36.6659 18.6017 36.6592 16.1083 36.6375 15H3.3492C3.32753 16.1083 3.33253 18.6017 3.33253 20V23.3333C3.33253 29.6183 3.33253 32.7617 5.28586 34.7133C7.2392 36.665 10.3792 36.6667 16.6659 36.6667H23.3325C29.6159 36.6667 32.7592 36.6667 34.7125 34.7133C36.6659 32.76 36.6659 29.62 36.6659 23.3333Z" fill="#E81010"/>
<path d="M30 28.3333C30 28.7754 29.8244 29.1993 29.5118 29.5118C29.1993 29.8244 28.7754 30 28.3333 30C27.8913 30 27.4674 29.8244 27.1548 29.5118C26.8423 29.1993 26.6667 28.7754 26.6667 28.3333C26.6667 27.8913 26.8423 27.4674 27.1548 27.1548C27.4674 26.8423 27.8913 26.6667 28.3333 26.6667C28.7754 26.6667 29.1993 26.8423 29.5118 27.1548C29.8244 27.4674 30 27.8913 30 28.3333ZM30 21.6667C30 22.1087 29.8244 22.5326 29.5118 22.8452C29.1993 23.1577 28.7754 23.3333 28.3333 23.3333C27.8913 23.3333 27.4674 23.1577 27.1548 22.8452C26.8423 22.5326 26.6667 22.1087 26.6667 21.6667C26.6667 21.2246 26.8423 20.8007 27.1548 20.4882C27.4674 20.1756 27.8913 20 28.3333 20C28.7754 20 29.1993 20.1756 29.5118 20.4882C29.8244 20.8007 30 21.2246 30 21.6667ZM21.6667 28.3333C21.6667 28.7754 21.4911 29.1993 21.1785 29.5118C20.8659 29.8244 20.442 30 20 30C19.558 30 19.134 29.8244 18.8215 29.5118C18.5089 29.1993 18.3333 28.7754 18.3333 28.3333C18.3333 27.8913 18.5089 27.4674 18.8215 27.1548C19.134 26.8423 19.558 26.6667 20 26.6667C20.442 26.6667 20.8659 26.8423 21.1785 27.1548C21.4911 27.4674 21.6667 27.8913 21.6667 28.3333ZM21.6667 21.6667C21.6667 22.1087 21.4911 22.5326 21.1785 22.8452C20.8659 23.1577 20.442 23.3333 20 23.3333C19.558 23.3333 19.134 23.1577 18.8215 22.8452C18.5089 22.5326 18.3333 22.1087 18.3333 21.6667C18.3333 21.2246 18.5089 20.8007 18.8215 20.4882C19.134 20.1756 19.558 20 20 20C20.442 20 20.8659 20.1756 21.1785 20.4882C21.4911 20.8007 21.6667 21.2246 21.6667 21.6667ZM13.3333 28.3333C13.3333 28.7754 13.1577 29.1993 12.8452 29.5118C12.5326 29.8244 12.1087 30 11.6667 30C11.2246 30 10.8007 29.8244 10.4882 29.5118C10.1756 29.1993 10 28.7754 10 28.3333C10 27.8913 10.1756 27.4674 10.4882 27.1548C10.8007 26.8423 11.2246 26.6667 11.6667 26.6667C12.1087 26.6667 12.5326 26.8423 12.8452 27.1548C13.1577 27.4674 13.3333 27.8913 13.3333 28.3333ZM13.3333 21.6667C13.3333 22.1087 13.1577 22.5326 12.8452 22.8452C12.5326 23.1577 12.1087 23.3333 11.6667 23.3333C11.2246 23.3333 10.8007 23.1577 10.4882 22.8452C10.1756 22.5326 10 22.1087 10 21.6667C10 21.2246 10.1756 20.8007 10.4882 20.4882C10.8007 20.1756 11.2246 20 11.6667 20C12.1087 20 12.5326 20.1756 12.8452 20.4882C13.1577 20.8007 13.3333 21.2246 13.3333 21.6667Z" fill="#E81010"/>
</svg>
