<svg width="40" height="40" viewBox="0 0 40 40" fill="none" xmlns="http://www.w3.org/2000/svg">
<path d="M5.48833 15.4883C5 15.9767 5 16.7617 5 18.3333V28.3333C5 29.905 5 30.69 5.48833 31.1783C5.97667 31.6667 6.76167 31.6667 8.33333 31.6667C9.905 31.6667 10.69 31.6667 11.1783 31.1783C11.6667 30.69 11.6667 29.905 11.6667 28.3333V18.3333C11.6667 16.7617 11.6667 15.9767 11.1783 15.4883C10.69 15 9.905 15 8.33333 15C6.76167 15 5.97667 15 5.48833 15.4883Z" fill="#E81010"/>
<path opacity="0.4" d="M28.8204 3.82171C28.332 4.31004 28.332 5.09504 28.332 6.66671V28.3334C28.332 29.905 28.332 30.69 28.8204 31.1784C29.3087 31.6667 30.0937 31.6667 31.6654 31.6667C33.237 31.6667 34.022 31.6667 34.5104 31.1784C34.9987 30.69 34.9987 29.905 34.9987 28.3334V6.66671C34.9987 5.09504 34.9987 4.31004 34.5104 3.82171C34.022 3.33337 33.237 3.33337 31.6654 3.33337C30.0937 3.33337 29.3087 3.33337 28.8204 3.82171Z" fill="#E81010"/>
<path opacity="0.7" d="M16.668 11.6667C16.668 10.095 16.668 9.31004 17.1563 8.82171C17.6446 8.33337 18.4296 8.33337 20.0013 8.33337C21.573 8.33337 22.358 8.33337 22.8463 8.82171C23.3346 9.31004 23.3346 10.095 23.3346 11.6667V28.3334C23.3346 29.905 23.3346 30.69 22.8463 31.1784C22.358 31.6667 21.573 31.6667 20.0013 31.6667C18.4296 31.6667 17.6446 31.6667 17.1563 31.1784C16.668 30.69 16.668 29.905 16.668 28.3334V11.6667Z" fill="#E81010"/>
<path d="M5 35.4166C4.66848 35.4166 4.35054 35.5483 4.11612 35.7827C3.8817 36.0172 3.75 36.3351 3.75 36.6666C3.75 36.9981 3.8817 37.3161 4.11612 37.5505C4.35054 37.7849 4.66848 37.9166 5 37.9166H35C35.3315 37.9166 35.6495 37.7849 35.8839 37.5505C36.1183 37.3161 36.25 36.9981 36.25 36.6666C36.25 36.3351 36.1183 36.0172 35.8839 35.7827C35.6495 35.5483 35.3315 35.4166 35 35.4166H5Z" fill="#E81010"/>
</svg>
