<svg width="40" height="40" viewBox="0 0 40 40" fill="none" xmlns="http://www.w3.org/2000/svg">
<path d="M36.668 8.33337C36.668 9.65946 36.1412 10.9312 35.2035 11.8689C34.2658 12.8066 32.9941 13.3334 31.668 13.3334C30.3419 13.3334 29.0701 12.8066 28.1324 11.8689C27.1948 10.9312 26.668 9.65946 26.668 8.33337C26.668 7.00729 27.1948 5.73552 28.1324 4.79784C29.0701 3.86016 30.3419 3.33337 31.668 3.33337C32.9941 3.33337 34.2658 3.86016 35.2035 4.79784C36.1412 5.73552 36.668 7.00729 36.668 8.33337Z" fill="#E81010"/>
<path opacity="0.5" d="M25.3904 4.22505C23.6544 3.63319 21.8327 3.33192 19.9987 3.33338C10.7937 3.33338 3.33203 10.795 3.33203 20C3.33203 22.6667 3.9587 25.1867 5.07036 27.4217C5.36703 28.015 5.46536 28.6934 5.2937 29.335L4.30203 33.045C4.20382 33.4122 4.2039 33.7987 4.30229 34.1658C4.40068 34.5329 4.5939 34.8677 4.86256 35.1365C5.13122 35.4054 5.46586 35.5988 5.83291 35.6974C6.19995 35.796 6.58648 35.7964 6.9537 35.6984L10.6637 34.705C11.3077 34.5424 11.9889 34.6212 12.5787 34.9267C14.8836 36.0743 17.4239 36.67 19.9987 36.6667C29.2037 36.6667 36.6654 29.205 36.6654 20C36.6654 18.1134 36.352 16.3 35.7737 14.6084C34.3321 15.5526 32.6092 15.9715 30.895 15.7947C29.1808 15.6179 27.5797 14.8562 26.3611 13.6376C25.1426 12.419 24.3808 10.818 24.204 9.10374C24.0272 7.38951 24.4461 5.66668 25.3904 4.22505Z" fill="#E81010"/>
</svg>
