<svg width="13" height="17" viewBox="0 0 13 17" fill="none" xmlns="http://www.w3.org/2000/svg">
<path d="M6.5 16.5L6.19223 16.8941C6.37309 17.0353 6.62691 17.0353 6.80777 16.8941L6.5 16.5ZM12.5 6.5H12C12 8.98073 10.5909 11.3673 9.11281 13.1763C8.3808 14.0722 7.64759 14.8073 7.09726 15.3184C6.82241 15.5736 6.59399 15.7722 6.43525 15.9062C6.3559 15.9732 6.29403 16.024 6.25254 16.0576C6.2318 16.0745 6.21615 16.087 6.20598 16.0951C6.20089 16.0991 6.19717 16.1021 6.19486 16.1039C6.19371 16.1048 6.19291 16.1054 6.19247 16.1058C6.19225 16.1059 6.19212 16.106 6.19208 16.1061C6.19206 16.1061 6.19209 16.1061 6.19208 16.1061C6.19214 16.106 6.19223 16.1059 6.5 16.5C6.80777 16.8941 6.8079 16.8939 6.80805 16.8938C6.80813 16.8938 6.80831 16.8936 6.80847 16.8935C6.8088 16.8933 6.80921 16.8929 6.80972 16.8925C6.81073 16.8917 6.8121 16.8907 6.81383 16.8893C6.81729 16.8866 6.82218 16.8827 6.82844 16.8777C6.84097 16.8678 6.85903 16.8533 6.88223 16.8345C6.92863 16.7969 6.99566 16.7418 7.08037 16.6703C7.24976 16.5273 7.49009 16.3182 7.77774 16.0511C8.35241 15.5175 9.1192 14.7489 9.88719 13.809C11.4091 11.9464 13 9.33298 13 6.5H12.5ZM6.5 16.5C6.80777 16.1059 6.80786 16.106 6.80792 16.1061C6.80791 16.1061 6.80794 16.1061 6.80792 16.1061C6.80788 16.106 6.80775 16.1059 6.80753 16.1058C6.80709 16.1054 6.80629 16.1048 6.80514 16.1039C6.80283 16.1021 6.79911 16.0991 6.79402 16.0951C6.78385 16.087 6.7682 16.0745 6.74746 16.0576C6.70597 16.024 6.6441 15.9732 6.56475 15.9062C6.40601 15.7722 6.17759 15.5736 5.90274 15.3184C5.35241 14.8073 4.6192 14.0722 3.88719 13.1763C2.40908 11.3673 1 8.98073 1 6.5H0.5H0C0 9.33298 1.59092 11.9464 3.11281 13.809C3.8808 14.7489 4.64759 15.5175 5.22226 16.0511C5.50991 16.3182 5.75024 16.5273 5.91963 16.6703C6.00434 16.7418 6.07137 16.7969 6.11777 16.8345C6.14097 16.8533 6.15903 16.8678 6.17156 16.8777C6.17782 16.8827 6.18271 16.8866 6.18617 16.8893C6.1879 16.8907 6.18927 16.8917 6.19028 16.8925C6.19079 16.8929 6.1912 16.8933 6.19153 16.8935C6.19169 16.8936 6.19187 16.8938 6.19195 16.8938C6.1921 16.8939 6.19223 16.8941 6.5 16.5ZM0.5 6.5H1C1 3.46243 3.46243 1 6.5 1V0.5V0C2.91015 0 0 2.91015 0 6.5H0.5ZM6.5 0.5V1C9.53757 1 12 3.46243 12 6.5H12.5H13C13 2.91015 10.0899 0 6.5 0V0.5ZM9.5 6.5H9C9 7.88071 7.88071 9 6.5 9V9.5V10C8.433 10 10 8.433 10 6.5H9.5ZM6.5 9.5V9C5.11929 9 4 7.88071 4 6.5H3.5H3C3 8.433 4.567 10 6.5 10V9.5ZM3.5 6.5H4C4 5.11929 5.11929 4 6.5 4V3.5V3C4.567 3 3 4.567 3 6.5H3.5ZM6.5 3.5V4C7.88071 4 9 5.11929 9 6.5H9.5H10C10 4.567 8.433 3 6.5 3V3.5Z" fill="#312783"/>
</svg>
