<svg width="1920" height="933" viewBox="0 0 1920 933" fill="none" xmlns="http://www.w3.org/2000/svg">
<path d="M1.65625 904.569C19.0881 908.72 37.3501 916.608 57.2723 931.137H52.7069C34.4449 918.268 17.843 910.796 1.65625 907.06V904.569Z" fill="url(#paint0_linear_152_28977)"/>
<path d="M1.65613 889.209C33.1996 890.039 65.9882 898.757 105.417 930.722C105.833 931.137 106.248 931.137 106.248 931.552H102.097C63.4979 901.248 32.3695 892.53 1.65613 892.115V889.209Z" fill="url(#paint1_linear_152_28977)"/>
<path d="M1.65625 875.51C42.7457 875.095 83.0051 877.586 137.791 916.608C144.432 921.174 150.657 926.156 156.883 931.137H152.733C147.337 926.986 141.942 922.835 136.546 918.683C82.5901 880.076 42.7457 877.586 2.07129 878.001V875.51H1.65625Z" fill="url(#paint2_linear_152_28977)"/>
<path d="M1.65625 856.414C11.6173 857.659 21.5785 858.489 31.1245 859.32C73.0441 863.056 112.473 866.377 170.165 902.908C184.691 912.041 198.388 921.589 211.254 931.137H206.689C194.652 922.42 181.786 913.702 168.505 904.984C111.643 868.868 72.214 865.547 30.7095 861.81C21.1635 860.98 11.6173 860.15 1.24121 858.905V856.414H1.65625Z" fill="url(#paint3_linear_152_28977)"/>
<path d="M1.65613 826.524C27.3889 834.827 49.3864 838.978 70.1387 843.545C109.153 851.432 146.507 858.905 202.123 889.624C212.914 895.436 223.291 901.248 233.252 907.06C248.193 915.777 262.72 924.08 277.661 931.552H271.851C258.569 924.91 245.703 917.438 232.006 909.551C222.045 903.739 211.669 897.927 200.878 892.115C145.262 861.811 108.323 854.338 69.3087 846.451C48.5564 842.299 26.5588 837.733 1.24109 829.846V826.524H1.65613Z" fill="url(#paint4_linear_152_28977)"/>
<path d="M1.65613 782.936C10.7871 788.748 19.9182 794.144 29.4642 797.88L30.7094 798.296C34.0297 799.541 36.9352 800.786 39.8405 802.032C67.6484 812.825 90.0609 820.298 112.058 827.77C147.752 839.809 181.786 851.017 234.497 875.095L238.232 876.755C298.414 904.569 346.144 926.156 414.626 922.835C438.284 921.589 462.357 916.193 488.089 909.966C503.861 906.229 520.463 902.493 536.65 900.003C571.513 894.606 604.302 895.851 636.676 904.569C659.918 910.796 677.765 919.929 692.707 930.722H688.141C674.03 921.174 657.428 912.872 636.261 907.06C603.887 898.342 571.514 897.097 537.065 902.493C520.878 904.984 504.691 908.72 488.919 912.456C463.187 918.268 438.699 924.08 415.041 925.326C345.729 928.647 297.999 906.645 237.402 878.831L233.667 877.17C180.956 853.093 147.337 841.884 111.643 829.846C89.6458 822.373 67.2333 814.901 39.4253 804.107C36.52 802.862 33.1996 801.617 30.2943 800.371L29.0492 799.956C19.9182 796.22 10.7872 791.238 2.07129 785.427V782.936H1.65613Z" fill="url(#paint5_linear_152_28977)"/>
<path d="M1.65625 721.912C20.3333 743.083 46.4812 762.594 73.4591 775.463L76.7794 777.124C78.8546 778.369 81.345 779.2 83.4202 780.445C103.342 789.578 119.944 797.465 135.716 805.353C174.315 824.034 207.519 840.224 266.87 862.226C326.637 884.228 377.687 896.266 445.755 886.718C465.677 883.812 486.429 878.416 508.012 872.604C525.859 868.037 544.121 863.056 562.383 859.735C596.416 853.508 627.96 854.753 659.088 862.641C708.063 875.095 728.816 900.833 750.813 928.646C751.643 929.477 752.473 930.722 753.303 931.552H749.983C749.568 931.137 749.153 930.722 748.738 930.307C727.156 903.324 706.403 877.585 658.673 865.547C627.545 857.659 596.416 856.829 562.798 862.641C544.536 865.962 526.274 870.943 508.427 875.51C486.429 881.322 466.092 886.718 445.755 889.624C376.857 899.172 325.807 887.133 265.625 864.716C206.274 842.715 173.07 826.524 134.471 807.844C118.284 799.956 101.682 792.069 82.175 782.936C80.0999 782.105 77.6096 780.86 75.5344 779.615L72.214 777.954C45.6511 765.5 20.3331 746.404 1.24109 726.063V721.912H1.65625Z" fill="url(#paint6_linear_152_28977)"/>
<path d="M1.65625 655.491C9.12708 662.548 15.7677 669.605 22.4084 677.078C29.4642 684.965 36.5201 693.268 46.0662 701.985C65.5732 720.251 91.306 738.517 117.869 753.046C119.529 753.877 121.189 754.707 122.849 755.537C124.51 756.367 125.755 757.198 127.415 758.028C147.752 769.236 164.769 780.03 180.956 790.823C213.745 812.41 244.873 833.167 299.659 848.111C359.01 864.716 410.476 865.132 477.298 849.772C493.07 846.036 509.257 841.054 526.274 835.657C546.611 829.43 567.778 822.788 588.945 818.637C622.149 811.995 652.447 812.41 682.331 819.467C732.136 831.506 749.568 858.489 768.66 886.718C778.621 901.663 788.997 917.023 804.354 931.137H800.619C786.092 917.438 776.131 902.493 766.585 888.379C747.908 860.565 730.476 833.997 681.916 822.373C652.447 815.316 622.149 814.901 589.361 821.543C568.193 825.694 547.441 832.336 527.104 838.563C510.087 843.96 493.9 848.942 477.713 852.678C410.476 868.038 358.595 867.622 298.829 851.017C243.628 835.657 212.499 815.316 179.296 793.314C163.109 782.521 146.507 771.727 125.755 760.519C124.095 759.688 122.849 758.858 121.189 758.028C119.529 757.198 117.869 756.367 116.209 755.537C89.2308 741.008 63.4979 722.742 43.9908 704.061C34.4448 695.343 27.389 687.041 20.3333 679.153C14.1075 672.096 8.297 665.869 1.65625 659.227V655.491Z" fill="url(#paint7_linear_152_28977)"/>
<path d="M1904.64 931.137C1910.45 918.683 1916.26 905.814 1921.66 892.115V899.172C1917.09 909.966 1912.53 920.759 1907.54 931.137H1904.64Z" fill="url(#paint8_linear_152_28977)"/>
<path d="M1.65625 619.79C4.97656 621.45 8.29712 623.111 11.2024 624.771C18.6732 628.922 25.7289 633.074 33.6147 638.47C46.8962 647.188 58.1024 656.321 69.7236 665.869C76.3644 671.266 83.0051 676.662 90.476 682.474C109.153 697.004 132.396 712.364 161.449 730.214C163.939 731.46 166.014 733.12 168.505 734.366L170.58 735.611C189.672 747.65 205.028 760.934 219.97 774.218C250.268 800.371 278.491 824.864 331.202 834.412C391.384 845.62 443.265 834.412 507.597 812.825C517.973 809.504 528.764 805.353 539.97 801.201C564.043 792.484 589.361 782.936 614.678 777.539C646.637 770.482 676.52 770.067 704.743 776.709C754.964 788.332 769.49 816.146 785.262 845.205C794.393 862.226 803.524 879.661 820.541 895.436C824.276 898.757 828.427 902.078 832.577 904.569C847.934 914.117 865.366 919.514 881.968 924.91C888.193 926.986 894.419 929.062 900.645 931.137H892.759C889.023 929.892 885.288 928.647 881.552 927.401C864.536 922.005 847.104 916.608 831.332 906.645C826.766 903.739 822.616 900.833 818.881 897.097C801.864 881.322 792.318 863.471 783.187 846.451C767.83 817.807 753.719 790.823 704.328 779.2C676.105 772.557 647.052 772.973 615.508 780.03C590.191 785.842 565.288 794.975 541.215 803.692C530.009 807.844 519.633 811.58 508.842 815.316C444.095 836.903 391.799 848.111 331.202 836.903C277.661 826.94 249.023 802.447 218.725 775.879C203.783 763.01 188.427 749.725 169.335 737.687L167.259 736.441C165.184 735.196 162.694 733.535 160.204 732.29C131.15 714.439 107.908 698.664 88.8158 684.55C81.345 678.738 74.2892 673.341 68.0635 667.945C56.4423 658.397 45.236 649.679 32.3695 640.961C24.4836 635.565 17.428 631.413 9.95715 627.262C7.05188 625.601 4.56152 624.356 1.65625 623.111V619.79Z" fill="url(#paint9_linear_152_28977)"/>
<path d="M1882.23 931.137C1895.92 910.381 1907.96 889.209 1919.58 866.792C1920.41 865.547 1920.83 863.886 1921.66 862.641V868.453C1910.03 890.455 1898.83 911.211 1885.55 931.137H1882.23Z" fill="url(#paint10_linear_152_28977)"/>
<path d="M1.65625 597.372C17.0129 603.184 32.7847 608.996 47.7263 615.638C55.1971 618.959 63.083 622.695 71.3839 626.847C94.2114 638.055 114.134 650.094 135.716 663.378C159.374 677.908 184.276 692.852 205.859 707.797C208.764 709.873 211.254 711.949 214.16 713.609C231.591 726.478 245.703 742.253 258.984 757.198C286.377 787.917 312.525 816.561 363.576 821.128C427.078 826.524 481.449 802.032 538.725 776.294L547.441 772.557C577.324 758.858 608.453 745.159 640.411 736.856C671.954 728.969 700.178 728.139 727.156 734.366C778.206 745.574 789.412 773.803 801.864 804.107C808.92 821.543 816.39 839.393 831.747 855.584C835.067 858.905 838.803 862.226 842.953 865.132C856.235 873.849 871.591 879.661 886.533 885.058C908.946 892.945 930.113 900.418 942.979 918.268C946.3 922.835 949.205 926.986 952.11 931.552H948.79C946.3 927.401 943.394 923.665 940.489 919.514C928.038 902.493 907.285 895.021 885.288 887.133C870.346 881.737 854.575 876.34 840.878 867.207C836.728 864.301 832.577 860.98 829.257 857.244C813.485 840.639 806.014 822.373 798.958 804.938C786.922 775.464 776.131 748.065 726.325 736.856C699.763 731.044 671.54 731.875 640.826 739.347C608.868 747.235 578.154 761.349 548.271 775.048L539.555 778.784C481.449 804.938 427.078 829.43 362.746 823.619C310.45 819.052 283.887 789.993 256.079 758.858C242.798 743.914 228.686 728.554 211.669 715.685C209.179 713.609 206.274 711.533 203.368 709.873C181.786 694.928 157.298 679.983 133.226 665.454C111.643 652.17 91.7211 640.546 68.8936 629.338C60.1776 625.186 52.7068 621.45 45.236 618.129C30.7094 611.487 15.3528 606.09 0.411133 600.278V597.372H1.65625Z" fill="url(#paint11_linear_152_28977)"/>
<path d="M1861.47 931.137H1857.74C1878.49 907.89 1894.26 885.058 1907.96 863.886C1912.53 856.414 1917.09 848.941 1921.66 841.469V846.451C1917.92 852.678 1914.19 858.905 1910.03 865.132C1896.75 886.303 1881.4 908.72 1861.47 931.137Z" fill="url(#paint12_linear_152_28977)"/>
<path d="M1.65625 578.692C15.7678 583.673 30.7095 588.655 46.0662 593.636C121.189 618.544 205.859 646.358 257.739 691.607C273.511 705.306 285.962 722.742 297.999 739.762C322.901 774.633 346.144 807.844 396.365 807.428C454.886 806.598 507.597 776.294 558.647 746.404C562.798 743.914 566.533 741.838 570.683 739.347C624.639 708.212 688.141 678.323 750.398 691.192H750.813C802.279 701.985 810.58 731.044 819.296 761.764C824.276 779.615 829.672 798.296 843.783 814.901C856.235 829.43 874.497 836.903 892.759 843.96C914.341 852.678 936.339 861.395 948.375 882.152C957.091 897.097 964.147 913.287 971.202 929.062C971.617 929.892 972.032 930.307 972.032 931.137H969.127C969.127 930.722 968.712 930.307 968.712 929.892C962.071 914.117 954.601 897.927 946.3 882.982C934.678 863.056 913.096 854.338 891.929 846.036C873.667 838.563 854.575 831.091 842.123 816.146C827.597 799.126 822.201 780.445 817.22 762.179C808.505 731.044 800.619 704.061 750.813 693.268H750.398C688.971 680.399 626.3 710.288 572.759 741.008C568.608 743.498 564.873 745.574 560.722 748.065C509.257 777.954 456.131 808.674 397.195 809.504C345.729 809.919 322.071 776.294 296.754 740.593C284.717 723.572 272.681 706.137 256.909 692.853C205.444 648.018 120.774 620.205 46.0662 595.712C31.1245 590.73 16.5979 586.164 2.48633 581.182V578.692H1.65625Z" fill="url(#paint13_linear_152_28977)"/>
<path d="M1834.5 931.137H1830.76C1868.95 899.172 1898 863.056 1921.66 824.864V829.015C1898.41 865.132 1870.19 900.003 1834.5 931.137Z" fill="url(#paint14_linear_152_28977)"/>
<path d="M1.65625 543.821C22.4086 551.293 45.236 558.765 68.4785 566.653C141.111 590.73 223.706 617.714 275.171 660.472C290.528 673.341 302.564 689.531 314.185 704.891C338.673 737.271 361.916 767.991 409.646 768.406C464.847 768.821 515.067 743.083 559.477 720.251L569.438 715.27C575.664 711.948 582.305 708.627 588.53 705.306C637.506 680.399 695.612 656.736 754.134 667.945C759.114 668.775 764.51 670.02 769.49 671.266C819.296 684.55 830.502 711.118 841.293 736.441C847.519 751.386 853.745 766.746 867.856 779.2C879.477 789.578 895.664 794.559 913.096 799.541C935.923 806.183 959.581 813.24 973.693 833.997C985.729 851.847 994.03 873.019 1002.33 893.36C1006.48 904.154 1011.05 915.362 1016.03 925.74C1016.86 927.401 1017.69 929.062 1018.52 930.722H1015.61C1014.78 929.477 1014.37 928.231 1013.54 926.571C1008.56 916.193 1003.99 904.984 999.84 894.191C991.955 873.849 983.239 853.093 971.617 835.242C958.336 814.901 935.093 808.259 912.681 801.617C895.249 796.635 878.232 791.653 866.611 780.86C852.084 767.576 845.444 752.216 839.218 736.856C828.427 710.703 818.051 686.21 769.49 673.341C764.51 672.096 759.529 670.851 754.549 670.02C696.857 659.227 639.166 682.474 590.606 706.967C584.38 710.288 578.154 713.609 571.514 716.515L561.552 721.496C517.143 744.329 466.507 770.482 410.891 770.067C361.916 769.652 338.258 738.517 313.355 705.306C301.734 689.947 289.698 673.757 274.756 661.303C223.706 618.544 141.527 591.561 68.8937 567.898C45.6511 560.426 23.2386 552.954 2.90137 545.481V543.821H1.65625Z" fill="url(#paint15_linear_152_28977)"/>
<path d="M1812.08 931.137H1807.52C1846.95 903.739 1880.57 868.037 1910.03 823.203C1914.19 816.977 1917.92 811.165 1921.66 804.938V809.919C1918.75 814.901 1915.43 819.882 1912.53 824.449C1883.47 868.868 1850.27 904.154 1812.08 931.137Z" fill="url(#paint16_linear_152_28977)"/>
<path d="M1.65613 508.119C6.22168 509.78 10.3722 511.44 14.5227 513.101C37.7653 521.819 63.498 530.537 90.891 539.254C161.864 562.502 241.968 588.24 293.018 629.338C307.545 640.961 319.581 655.906 331.202 670.435C355.69 700.325 378.517 728.554 423.757 729.799C476.883 731.044 525.443 708.627 572.759 687.041L583.135 682.474C591.436 678.738 599.322 675.002 607.207 671.681C656.183 650.509 714.289 630.998 774.056 647.603C779.036 648.849 784.432 650.509 788.997 652.17C836.313 667.529 850.424 690.777 862.875 710.703C870.761 723.572 877.817 735.196 892.759 744.744C903.135 751.386 917.661 754.292 933.018 756.783C956.676 760.934 983.239 765.915 999.425 787.502C1014.37 807.428 1023.5 832.751 1032.21 856.829C1035.12 865.132 1038.02 873.019 1040.93 880.491C1047.99 897.927 1055.04 911.211 1063.34 921.589C1066.25 925.325 1069.15 928.647 1072.06 931.552H1068.32C1065.83 929.062 1063.34 926.156 1061.27 923.25C1052.97 912.456 1045.5 899.172 1038.44 881.322C1035.53 873.849 1032.63 865.962 1029.72 857.659C1021.01 833.582 1012.29 808.674 997.35 788.748C981.993 767.991 956.676 763.425 932.603 759.273C916.831 756.367 902.305 753.877 891.099 746.819C876.157 737.271 868.686 724.817 860.385 711.948C847.519 691.192 834.652 669.605 788.167 654.661C783.602 653 778.621 651.755 773.226 650.094C714.289 633.904 656.598 653 608.038 674.172C600.152 677.493 592.266 681.229 583.965 684.965L573.589 689.531C526.274 711.118 477.298 733.95 423.757 732.705C377.272 731.46 354.03 702.816 329.127 672.511C317.506 658.397 305.885 643.452 291.358 631.828C240.307 591.146 160.619 564.992 90.0609 542.16C62.668 533.442 36.9351 524.725 13.6925 516.007C9.95715 514.346 5.80664 513.101 1.65613 511.441V508.119Z" fill="url(#paint17_linear_152_28977)"/>
<path d="M1779.71 931.137H1773.49C1827.44 905.814 1871.85 864.301 1909.62 804.523C1913.77 797.88 1917.92 791.238 1921.66 784.596V789.993C1918.34 795.39 1915.43 800.786 1912.11 805.768C1875.17 864.301 1832.01 905.399 1779.71 931.137Z" fill="url(#paint18_linear_152_28977)"/>
<path d="M1775.15 912.041C1760.2 917.853 1749.41 922.835 1740.7 926.571C1736.55 928.231 1732.4 929.892 1729.08 931.552H1722.02C1727.41 929.477 1732.81 926.986 1739.87 924.08C1748.58 920.344 1759.79 915.362 1774.32 909.55C1827.86 887.549 1871.85 847.696 1909.2 786.672C1913.77 779.615 1917.51 772.142 1921.66 765.085V770.482C1918.34 776.294 1915.02 782.106 1911.7 787.917C1873.93 849.357 1829.52 890.039 1775.15 912.041Z" fill="url(#paint19_linear_152_28977)"/>
<path d="M1.65625 471.173C15.7678 478.23 31.1245 484.042 44.406 489.024C65.5734 496.911 88.8157 504.383 113.303 512.271C181.786 534.273 259.399 559.596 310.45 598.618C324.562 609.411 336.183 622.695 347.804 635.98C371.877 663.378 394.704 689.531 437.454 691.192C488.504 693.268 533.745 674.587 581.475 655.076C585.625 653.415 590.191 651.339 594.341 649.679L596.831 648.849C606.792 644.697 615.923 640.961 625.469 637.64C671.54 620.62 732.136 604.015 793.563 626.432C798.543 628.092 803.524 630.168 808.089 631.828C851.254 648.434 868.271 667.114 881.552 682.059C891.514 693.268 900.23 702.816 916.416 708.627C925.547 711.948 937.584 712.779 950.865 713.609C976.598 715.27 1005.65 716.93 1024.33 739.347C1042.59 760.934 1051.31 790.408 1060.02 818.637C1061.68 824.034 1063.34 829.015 1064.59 833.997C1068.74 846.451 1074.13 862.641 1083.26 876.755C1093.23 892.115 1104.85 903.324 1118.54 910.796C1138.88 922.42 1164.2 925.741 1188.69 927.816C1199.06 928.646 1208.61 929.062 1216.91 929.477C1219.81 929.477 1222.3 929.477 1224.8 929.892C1228.12 929.892 1231.02 930.307 1233.93 930.307C1238.91 930.307 1243.47 930.722 1247.62 931.137H1193.25C1191.59 931.137 1189.93 930.722 1188.69 930.722C1164.2 928.231 1138.47 924.91 1117.71 913.287C1103.6 905.399 1091.57 893.776 1081.6 878.416C1072.47 863.886 1066.66 847.696 1062.51 834.827C1060.85 829.845 1059.19 824.449 1057.95 819.467C1049.65 791.654 1040.93 762.594 1022.67 741.008C1004.41 719.421 976.183 717.76 950.865 716.515C937.584 715.685 925.132 714.854 915.586 711.533C898.569 705.306 889.853 695.343 879.477 684.135C865.366 668.775 849.179 650.924 806.844 634.319C801.864 632.244 797.298 630.583 792.318 628.922C731.721 606.505 671.54 623.111 625.885 640.131C616.754 643.452 607.207 647.188 597.246 651.339L594.756 652.17C590.606 653.83 586.04 655.491 581.89 657.566C536.235 676.662 488.504 696.174 437.039 693.683C393.044 692.022 369.802 665.454 345.314 637.64C334.108 624.771 322.486 611.487 308.375 600.694C257.739 562.086 180.126 536.763 112.058 514.762C87.5707 506.874 63.9131 499.402 42.7457 491.514C29.4642 486.533 14.9377 481.136 0.826172 474.079V471.173H1.65625Z" fill="url(#paint20_linear_152_28977)"/>
<path d="M1.65625 428.83C21.1633 446.265 49.3865 456.228 74.2892 464.946C92.9662 471.588 112.888 477.815 134.056 484.457C201.293 506.044 277.246 530.121 328.297 567.483C341.994 577.446 353.2 589.485 364.406 601.109C388.479 626.017 410.891 649.679 451.565 652.17C501.371 655.076 544.951 638.885 591.436 621.865C598.077 619.374 605.132 616.884 612.188 614.393C624.224 610.242 633.771 606.505 644.147 603.599C712.214 582.428 764.51 582.843 813.485 605.675C818.466 607.751 823.031 610.242 828.012 612.317C862.46 628.092 880.722 641.376 895.249 652.17C910.606 663.793 920.982 671.266 941.734 673.756C948.79 674.587 958.336 673.756 968.297 673.341C995.275 671.266 1028.48 668.775 1050.89 692.437C1072.89 715.27 1081.19 750.556 1088.66 781.275L1090.32 788.747C1094.06 803.692 1098.21 819.052 1105.68 833.167C1114.39 849.772 1124.77 861.395 1138.05 870.113C1157.56 882.982 1182.46 887.133 1206.95 891.7H1207.78C1211.93 892.53 1215.66 892.945 1218.98 893.776C1228.12 895.436 1236.42 896.681 1243.06 898.342L1244.72 898.757C1261.73 902.908 1269.62 904.984 1285.81 919.929C1287.47 921.174 1288.71 922.835 1290.37 924.08C1292.86 926.571 1295.77 929.062 1298.67 931.552C1299.09 931.968 1299.09 931.968 1299.5 932.383H1295.77C1293.28 930.307 1291.2 928.231 1289.13 926.156C1287.47 924.495 1286.22 923.25 1284.56 922.004C1268.79 907.89 1261.73 905.814 1244.72 901.663L1243.06 901.248C1236.42 899.587 1228.53 898.342 1219.4 896.681C1215.66 896.266 1211.93 895.436 1208.19 894.606H1207.36C1182.88 890.454 1157.14 885.888 1137.22 873.019C1123.52 863.886 1112.73 851.847 1104.02 834.827C1096.55 820.297 1091.98 804.523 1088.25 789.578L1086.58 782.106C1079.11 751.801 1070.81 716.93 1049.65 694.513C1028.48 672.096 995.69 674.587 969.127 676.247C959.166 677.078 949.62 677.493 942.149 676.662C920.567 674.172 910.191 666.284 894.419 654.66C879.892 643.867 862.045 630.583 827.597 614.808C822.616 612.732 818.051 610.657 813.07 608.166C764.925 585.749 713.044 585.334 645.807 606.505C635.846 609.411 625.885 613.147 614.263 617.299C607.208 619.79 600.567 622.28 593.511 624.771C547.026 642.207 503.031 658.397 452.811 655.491C411.306 653 388.479 628.922 363.991 603.599C352.785 591.976 341.578 579.937 328.297 570.389C277.246 533.442 201.708 508.95 134.471 487.778C113.303 481.136 93.3812 474.494 74.7042 468.267C50.2166 459.549 22.8235 450.001 2.90137 433.396V428.83H1.65625Z" fill="url(#paint21_linear_152_28977)"/>
<path d="M1781.37 887.133C1742.36 901.248 1731.57 901.663 1715.38 902.493C1709.57 902.493 1703.34 902.908 1694.63 903.739C1686.74 904.569 1678.02 906.229 1668.89 907.89C1664.33 908.72 1659.76 909.551 1655.2 910.381C1646.07 912.041 1636.52 913.287 1627.8 914.532C1602.9 918.268 1579.66 922.004 1560.15 926.571C1555.17 927.816 1550.19 929.477 1545.21 931.137H1537.74C1544.8 928.231 1551.85 925.741 1559.32 924.08C1578.83 919.098 1602.49 915.777 1627.39 911.626C1636.52 910.381 1645.65 908.72 1654.78 907.475C1659.35 906.645 1663.91 905.814 1668.48 904.984C1677.61 903.323 1686.33 901.663 1694.21 900.833C1702.93 900.002 1709.15 899.587 1714.96 899.587C1731.15 899.172 1741.94 898.757 1780.13 884.643C1830.76 865.962 1873.93 826.94 1908.37 768.406C1913.36 760.519 1917.51 752.631 1921.66 744.329V750.14C1918.34 756.783 1915.02 763.01 1911.28 769.652C1876.42 829.015 1832.84 868.453 1781.37 887.133Z" fill="url(#paint22_linear_152_28977)"/>
<path d="M1.65613 367.39C8.29688 379.844 15.3527 391.468 26.5588 402.261C27.804 403.091 28.6343 404.337 29.8794 405.167C49.3865 422.188 77.1945 431.32 104.172 440.453C119.114 445.435 135.301 450.416 151.903 455.813C218.31 476.57 293.433 500.232 345.729 536.348C358.595 545.066 369.802 555.859 380.593 566.238C404.25 588.655 426.663 610.242 464.847 613.147C513.407 616.884 556.157 602.769 600.982 587.409C610.113 584.503 619.244 581.182 628.375 578.277C640.826 574.54 650.787 571.219 661.163 568.729C729.231 551.293 781.942 556.275 831.747 583.673C836.313 586.164 840.878 588.655 845.859 591.146C865.366 601.109 879.892 609.826 891.514 616.469C923.057 634.734 934.678 641.791 964.562 637.225C969.542 636.395 975.768 635.149 981.994 633.489C1010.22 626.847 1048.4 618.129 1074.96 643.037C1100.7 667.114 1107.75 707.797 1113.56 741.008C1116.05 755.537 1119.37 772.557 1125.6 787.087C1133.07 804.938 1142.62 817.807 1155.07 827.355C1172.08 840.224 1195.33 846.036 1217.32 851.432L1224.38 853.093C1238.08 856.414 1250.11 859.735 1258.83 864.301C1274.6 872.189 1278.75 877.586 1290.79 892.115L1293.69 895.436C1297.01 899.587 1300.75 903.739 1305.31 908.305L1310.71 913.702C1316.11 919.098 1321.5 924.91 1327.31 930.307H1323.58C1318.6 925.325 1313.61 920.344 1308.63 915.362L1303.24 909.966C1298.67 905.399 1294.94 900.833 1291.62 896.681L1288.71 893.36C1276.68 878.831 1272.53 873.849 1257.58 866.377C1249.28 862.226 1237.25 858.905 1223.55 855.584L1216.49 853.923C1194.08 848.526 1170.84 842.715 1152.99 829.43C1139.71 819.467 1130.16 806.598 1122.69 788.333C1116.47 772.973 1113.15 756.367 1110.66 741.423C1104.85 709.043 1097.79 668.775 1072.89 645.112C1047.57 621.035 1009.8 629.753 982.409 635.98C975.768 637.64 969.957 638.885 964.562 639.716C933.848 644.282 920.982 636.81 889.853 618.544C878.232 611.487 863.29 603.184 844.198 593.221C839.218 590.73 834.652 588.24 830.087 585.749C781.112 558.35 728.816 553.784 661.578 570.804C651.617 573.295 641.241 576.616 628.79 580.352C619.659 583.258 610.113 586.164 601.397 589.485C556.157 604.43 512.992 618.959 464.017 615.223C425.002 612.317 402.175 590.73 378.102 567.483C367.311 557.105 356.105 546.727 343.654 538.009C291.773 502.308 216.65 478.645 150.658 457.889C133.641 452.492 117.869 447.51 102.927 442.529C77.1946 433.811 47.7263 423.848 27.8042 406.828C26.5591 405.997 25.7288 404.752 24.4836 403.922C14.5226 394.374 7.46692 383.58 1.24121 372.787V367.39H1.65613Z" fill="url(#paint23_linear_152_28977)"/>
<path d="M1787.6 862.641C1749.83 875.095 1738.62 871.359 1726.17 867.207C1719.53 865.132 1712.89 863.056 1702.1 862.641C1690.48 862.226 1676.36 864.716 1662.25 867.622C1630.71 873.849 1595.43 883.397 1567.21 892.945C1546.04 900.418 1526.53 913.287 1505.37 926.571C1503.29 928.231 1500.8 929.477 1498.72 931.137H1493.74C1497.06 929.062 1500.8 926.571 1504.12 924.495C1525.29 910.796 1545.21 897.927 1566.38 890.454C1594.6 880.491 1630.29 870.943 1661.84 864.716C1676.36 861.811 1690.06 859.32 1702.1 859.735C1713.3 860.15 1720.77 862.226 1727 864.301C1739.45 868.453 1749.83 871.774 1786.77 859.735C1835.74 843.545 1876.42 806.598 1908.37 749.725C1913.36 741.423 1917.51 732.29 1921.66 723.572V729.799C1918.34 736.856 1914.6 744.329 1910.45 751.386C1878.49 809.089 1837.4 846.451 1787.6 862.641Z" fill="url(#paint24_linear_152_28977)"/>
<path d="M1.65613 315.084C5.80664 319.235 9.54211 323.387 12.8624 327.953C17.0129 333.35 21.1635 339.161 24.8988 344.143C34.8599 358.257 43.9908 371.542 59.3475 383.58C60.5927 384.411 61.4227 385.241 62.6678 386.071C81.7599 400.186 107.908 408.073 132.811 415.961L134.056 416.376C144.432 419.697 154.808 423.018 165.599 426.339C232.836 447.095 308.79 470.343 363.576 505.629C375.612 513.516 386.818 522.649 397.195 531.782C420.852 552.123 443.265 571.219 478.958 574.54C526.274 579.107 568.193 566.653 612.603 553.369C623.809 550.048 635.016 546.727 646.637 543.406C656.598 540.5 668.634 537.594 680.255 535.103C748.323 521.404 801.449 530.121 852.084 563.332C856.65 566.238 861.215 569.144 865.781 572.05C933.433 611.902 947.545 620.205 989.464 603.184C991.54 602.354 993.615 601.524 996.105 600.278C1023.5 588.655 1069.15 569.559 1101.11 596.542C1126.84 618.544 1134.32 657.151 1138.47 695.758C1140.54 713.194 1142.2 728.969 1147.18 743.498C1153.41 762.594 1161.71 776.294 1173.74 786.672C1189.1 799.956 1210.68 806.598 1231.44 813.24C1235.17 814.486 1238.91 815.731 1242.64 816.976C1255.09 821.128 1267.96 825.694 1276.26 832.751C1286.22 840.639 1289.54 847.696 1294.52 857.244C1297.01 861.81 1299.5 867.207 1303.24 873.434C1306.56 878.831 1309.88 883.397 1313.61 887.549C1326.48 902.493 1343.08 919.929 1362.59 931.137H1357.61C1339.35 919.514 1323.99 903.324 1311.54 889.209C1307.8 885.058 1304.48 880.076 1301.16 874.68C1297.01 868.037 1294.52 863.056 1292.45 858.074C1287.88 848.941 1284.56 842.299 1275.02 834.412C1266.71 827.77 1254.26 823.203 1242.23 819.052C1238.49 817.807 1234.76 816.561 1231.02 815.316C1210.27 808.674 1188.27 802.032 1172.5 788.332C1160.05 777.539 1151.33 763.425 1145.11 743.914C1140.13 728.969 1138.47 713.194 1136.39 695.343C1132.24 657.151 1124.77 618.959 1099.87 597.788C1069.15 571.634 1024.33 590.73 997.765 601.939C995.275 602.769 993.2 604.015 991.125 604.845C947.545 622.28 933.433 613.978 864.951 573.71C860.385 570.804 855.405 567.898 850.839 564.992C801.034 532.197 748.323 523.479 681.086 537.179C669.464 539.669 657.428 542.575 647.467 545.481C635.846 548.802 624.639 552.123 613.433 555.444C569.023 568.729 527.104 581.182 478.958 576.616C442.434 573.295 419.607 553.784 395.534 533.442C385.158 524.725 374.367 515.177 362.331 507.704C307.96 472.833 232.006 449.586 165.184 428.83C154.393 425.509 143.602 422.188 133.641 418.866L132.396 418.451C107.078 410.564 80.9299 402.261 61.4229 388.147C60.1777 387.317 59.3477 386.486 58.1025 385.656C42.7458 373.202 33.1996 359.918 23.2385 345.804C19.5032 340.407 15.7679 335.01 11.2024 329.613C8.29712 325.877 5.39172 322.141 2.07141 318.82V315.084H1.65613Z" fill="url(#paint25_linear_152_28977)"/>
<path d="M1794.24 838.148C1754.39 849.772 1744.02 841.884 1733.23 833.167C1727.41 828.6 1721.19 823.618 1709.57 821.958C1696.7 819.882 1681.34 822.788 1669.31 825.694C1642.33 831.921 1610.79 843.545 1574.68 860.15C1555.59 868.868 1537.74 882.152 1519.06 895.851C1501.63 908.72 1483.78 921.589 1464.69 931.552H1458.88C1480.05 921.174 1499.14 907.475 1517.82 893.36C1536.91 879.661 1554.76 866.377 1573.85 857.244C1609.96 840.224 1641.92 828.6 1668.89 822.788C1680.93 819.882 1696.7 816.977 1709.98 819.052C1722.02 820.713 1728.66 826.109 1734.89 830.676C1745.26 838.978 1755.22 846.451 1793.41 835.242C1851.93 818.222 1888.04 769.652 1907.96 731.875C1913.36 721.912 1917.92 711.948 1921.66 701.57V708.627C1918.34 716.93 1914.6 724.818 1910.03 733.12C1890.11 771.312 1853.59 820.713 1794.24 838.148Z" fill="url(#paint26_linear_152_28977)"/>
<path d="M1.65637 291.421C16.598 300.139 29.8795 309.687 41.5007 320.481C45.2361 324.217 48.9717 327.953 52.707 331.274C64.7434 343.313 75.9496 354.521 92.1364 364.9C93.3815 365.73 94.2115 366.145 95.4567 366.975C114.134 377.769 137.376 384.826 160.204 391.468L168.09 393.959C235.742 413.885 320.411 438.793 381.008 474.909C392.214 481.551 403.005 489.439 412.966 497.326C436.624 515.177 459.036 532.197 492.655 535.933C539.14 541.33 580.23 530.121 623.809 518.498C636.676 515.177 650.372 511.441 663.654 508.119C677.35 504.798 688.557 502.723 698.103 501.477C766.17 491.099 819.711 503.968 870.761 542.99C875.327 546.312 879.892 549.633 884.458 552.538C951.695 597.372 971.202 596.127 1013.54 568.313C1062.93 535.518 1099.45 529.291 1126.43 549.633C1155.9 572.05 1161.29 617.714 1162.95 650.509V650.924C1163.78 667.53 1164.61 684.135 1167.93 699.91C1172.5 719.836 1179.97 734.781 1191.59 745.989C1205.7 759.688 1226.04 767.576 1245.55 775.048C1250.53 777.124 1255.51 778.784 1260.07 780.86C1271.7 785.842 1284.98 791.653 1292.86 801.201C1300.75 810.334 1302.82 819.052 1304.9 829.015C1306.56 835.657 1308.22 843.13 1311.95 851.432C1314.44 857.244 1317.35 862.226 1321.09 866.792C1347.23 902.078 1392.47 933.628 1442.69 917.853C1476.31 907.06 1504.12 884.228 1530.68 861.81C1547.29 848.111 1563.06 834.827 1580.07 824.449C1606.64 808.674 1641.09 789.578 1674.7 780.86C1692.55 776.294 1705.83 775.463 1716.62 778.784C1729.08 782.105 1734.89 789.993 1740.28 797.88C1749.41 810.334 1758.13 821.958 1798.8 811.58C1859.4 795.39 1892.6 743.498 1907.54 713.609C1913.36 701.985 1917.92 690.362 1921.66 678.738V686.625C1918.34 696.173 1914.19 705.306 1909.62 714.854C1894.68 744.744 1860.64 797.465 1800.05 813.24C1757.71 824.034 1748.17 811.165 1738.62 798.296C1733.23 791.238 1727.83 783.766 1716.21 780.445C1705.42 777.539 1692.55 778.369 1675.53 782.521C1642.33 791.238 1607.88 810.334 1581.32 825.694C1564.3 835.657 1548.53 848.941 1531.93 862.641C1504.95 885.058 1477.14 907.89 1443.11 919.099C1391.64 935.704 1345.16 903.324 1318.6 867.207C1314.86 862.226 1311.95 856.829 1309.46 851.017C1305.73 842.299 1304.07 834.827 1302.41 827.77C1300.33 818.222 1298.26 809.919 1290.79 801.201C1282.9 792.484 1270.45 786.257 1258.83 781.69C1254.26 779.615 1249.28 777.954 1244.3 775.879C1224.38 768.406 1204.04 760.519 1189.52 746.404C1177.48 734.781 1169.59 719.836 1165.03 699.079C1161.29 683.305 1160.46 666.284 1159.63 649.679V649.264C1157.97 617.299 1152.99 572.05 1123.94 550.463C1098.21 530.952 1062.51 537.179 1014.37 569.144C969.542 599.033 947.13 596.542 882.383 553.369C877.817 550.463 873.252 547.142 868.686 543.821C818.051 505.214 765.34 492.76 697.688 503.138C687.726 504.798 676.935 506.874 663.239 509.78C649.542 513.101 636.261 516.422 623.394 520.158C579.815 531.782 538.31 542.99 491.41 537.594C456.961 533.442 434.549 516.422 410.476 498.571C400.515 491.099 390.139 483.212 378.933 476.57C318.336 440.453 234.082 415.961 166.429 396.034L158.544 393.544C135.716 386.901 112.058 379.844 92.9664 369.051C91.7213 368.221 90.8912 367.805 89.6461 366.975C73.0443 356.597 61.4229 344.973 49.3866 332.935C45.6512 329.198 42.3308 325.877 38.5955 322.141C27.8043 311.763 15.353 302.63 0.826416 294.327V291.421H1.65637Z" fill="url(#paint27_linear_152_28977)"/>
<path d="M1.65613 278.552C7.88184 281.043 13.6925 283.534 19.5032 286.025C39.0103 294.327 55.197 303.46 69.7236 313.008L75.1193 316.744C91.306 327.538 105.003 337.086 124.51 346.219C125.755 346.634 126.585 347.049 127.83 347.879C145.262 355.352 165.599 361.163 185.521 366.145L193.822 368.221C250.683 383.58 334.108 408.073 398.855 443.359C409.231 449.171 419.192 455.398 428.738 461.625C452.396 477.4 475.223 491.929 506.766 496.496C552.837 502.723 593.096 493.175 635.846 482.381C650.372 478.645 665.729 474.909 681.501 472.003C695.197 469.512 706.818 467.437 717.194 466.606C786.507 459.549 838.388 475.739 891.099 520.989C895.664 524.725 899.814 528.461 904.38 531.782C967.882 578.692 994.86 572.88 1038.44 532.197C1054.21 517.668 1109.41 472.003 1152.16 501.062C1176.65 517.667 1188.27 552.123 1187.86 603.184V606.505C1187.44 622.28 1187.44 638.886 1189.52 654.245C1192.84 675.417 1199.48 691.192 1210.68 703.231C1223.55 717.345 1243.06 726.063 1261.73 734.366C1267.54 736.856 1273.36 739.762 1278.75 742.253C1295.35 750.556 1304.9 758.028 1310.71 767.161C1317.35 777.954 1317.77 788.748 1318.6 799.956C1319.01 808.674 1319.43 817.392 1322.33 827.355C1323.99 833.167 1326.9 838.978 1330.22 844.375C1353.46 880.907 1404.92 909.966 1454.73 892.115C1490.42 879.246 1518.65 853.093 1545.63 827.355C1560.15 813.655 1573.85 800.786 1588.37 789.993C1614.52 770.482 1649.39 747.235 1683.01 737.271C1700.44 732.29 1714.55 731.875 1725.75 736.441C1738.62 741.423 1743.6 752.216 1748.17 762.179C1756.05 779.2 1763.52 794.975 1806.69 785.427C1848.19 776.294 1885.96 742.253 1907.54 694.928C1913.36 681.644 1917.92 667.114 1921.66 653V662.963C1918.34 674.172 1914.19 685.38 1909.2 696.589C1887.21 744.744 1848.61 779.2 1806.69 788.748C1761.45 798.711 1753.15 781.275 1745.26 764.255C1740.7 754.292 1736.13 744.329 1724.09 739.762C1713.3 735.611 1700.02 735.611 1683.01 740.593C1649.8 750.141 1615.35 773.388 1589.62 792.899C1575.09 803.692 1561.4 816.561 1546.87 829.846C1519.48 855.584 1491.25 882.152 1455.15 895.021C1403.68 913.702 1352.21 884.228 1327.73 846.036C1324.41 840.639 1321.5 834.827 1319.84 828.6C1316.52 818.222 1316.52 809.504 1316.11 800.786C1315.69 789.578 1315.27 779.615 1308.63 769.237C1303.24 760.519 1293.69 753.461 1277.92 745.159C1272.53 742.253 1266.71 739.762 1260.9 737.271C1242.23 728.969 1222.72 720.251 1209.02 705.721C1197.4 693.268 1190.76 677.078 1187.44 655.491C1185.37 639.716 1185.37 623.111 1185.78 607.336V604.015C1186.61 553.369 1174.99 519.743 1151.33 503.968C1110.24 476.154 1056.29 520.573 1040.93 534.688C997.765 574.54 969.127 583.258 903.55 534.273C898.984 530.952 894.419 527.215 890.268 523.479C838.388 478.645 786.922 462.455 718.44 469.512C708.064 470.758 696.442 472.418 683.161 474.909C667.804 477.815 652.448 481.551 637.921 485.287C594.756 495.666 554.497 505.629 508.012 499.402C475.638 494.835 451.98 479.476 428.738 464.116C419.192 457.889 409.231 451.662 399.27 445.85C334.938 410.564 251.929 386.071 195.067 371.126L186.766 369.051C166.844 363.654 146.092 358.257 128.66 350.37C127.415 349.955 126.585 349.54 125.34 348.709C105.833 339.577 90.891 329.613 75.5343 319.235L70.1387 315.499C56.0271 305.951 39.8403 297.233 20.3333 288.931C14.9376 286.44 9.54211 284.364 3.73145 281.873V278.552H1.65613Z" fill="url(#paint28_linear_152_28977)"/>
<path d="M1902.15 417.206C1901.32 404.752 1900.49 392.298 1902.15 380.674C1907.13 344.973 1912.53 310.102 1921.66 276.892V287.27C1914.19 317.575 1909.2 349.125 1904.64 381.09C1902.98 392.713 1903.81 405.167 1904.64 416.791V417.206C1906.3 437.962 1910.03 459.964 1914.19 483.212C1916.68 498.156 1919.58 513.516 1921.66 529.291V552.123C1919.58 528.461 1915.43 505.214 1911.7 483.627C1907.54 460.38 1903.39 438.378 1902.15 417.206Z" fill="url(#paint29_linear_152_28977)"/>
<path d="M1.65613 268.174C16.1827 274.816 31.5394 280.628 46.8961 286.44C64.328 292.667 81.76 298.894 97.5317 305.951C117.869 314.669 135.716 320.896 156.883 327.538L160.204 328.783C174.315 332.934 190.087 336.671 205.028 340.407C211.254 341.652 217.48 343.313 223.705 344.973C292.603 361.578 360.67 386.071 416.286 413.055C425.417 417.621 434.134 422.603 442.849 427.169C467.337 440.868 490.165 453.322 520.463 458.304C565.703 465.776 605.962 456.643 647.882 447.51C664.069 443.774 681.085 440.038 698.517 437.547C712.214 435.472 723.835 434.226 735.042 433.396C804.769 429.245 857.065 449.586 910.191 501.062C914.341 505.214 918.907 509.365 923.057 512.686C986.144 564.577 1020.59 547.557 1062.51 497.741C1091.57 463.285 1139.3 430.905 1177.48 454.153C1210.68 474.494 1214.83 521.819 1211.93 557.935L1211.51 564.577C1210.27 579.937 1209.44 595.712 1210.27 611.072C1211.93 633.489 1217.74 650.094 1228.53 662.963C1240.57 677.493 1259.24 687.041 1277.09 696.174C1283.32 699.495 1289.96 702.816 1296.18 706.137C1307.39 712.364 1320.67 721.496 1327.31 735.611C1333.12 748.48 1331.88 760.934 1330.63 773.803C1329.8 783.766 1328.56 794.144 1331.05 804.938C1332.29 811.165 1334.37 817.392 1337.69 823.203C1358.44 860.98 1414.47 887.964 1465.11 868.037C1502.88 853.093 1531.51 822.788 1559.32 793.314C1570.94 780.86 1582.98 768.406 1595.43 757.198C1631.95 724.402 1663.5 703.646 1689.65 695.758C1707.49 689.947 1721.6 690.362 1733.23 696.589C1746.09 703.231 1750.24 716.515 1754.39 728.969C1761.03 750.14 1767.26 770.067 1813.33 761.764C1859.4 753.046 1891.77 712.364 1906.3 677.493C1914.6 657.566 1919.17 637.64 1921.66 617.714V635.149C1918.75 649.679 1915.02 664.208 1908.79 678.323C1893.85 714.024 1861.06 755.122 1812.91 763.84C1764.77 772.557 1757.71 750.556 1751.07 729.384C1746.92 716.515 1743.19 704.476 1731.15 698.249C1719.94 692.437 1706.66 692.437 1689.65 697.834C1663.91 706.137 1632.37 726.478 1596.68 758.858C1584.22 769.652 1573.02 782.105 1560.98 794.974C1533.17 824.449 1504.12 854.753 1465.94 870.113C1414.47 890.87 1356.78 863.056 1335.61 824.034C1332.29 818.222 1330.22 811.58 1328.56 804.938C1326.48 793.729 1327.31 782.936 1328.14 772.973C1329.39 760.104 1330.63 748.065 1324.82 736.026C1319.84 725.648 1310.71 716.93 1294.94 707.797C1288.71 704.476 1282.49 701.155 1275.85 697.834C1257.58 688.701 1238.91 679.153 1226.46 663.793C1215.25 650.509 1209.44 633.489 1207.78 610.242C1206.53 594.882 1207.78 579.107 1209.02 563.332L1209.44 556.69C1211.93 521.404 1208.19 474.909 1176.23 455.398C1139.71 432.981 1093.23 464.531 1065 498.571C1021.84 549.217 986.559 567.068 921.812 513.931C917.246 510.195 913.096 506.459 908.53 502.308C855.82 451.247 804.354 431.32 735.457 435.472C724.665 436.302 712.629 437.547 699.348 439.623C681.916 442.529 665.314 445.85 649.127 449.586C606.792 458.719 566.533 467.852 520.463 460.379C490.165 455.398 465.677 442.114 442.019 428.83C433.303 424.263 424.588 419.282 415.457 414.715C360.255 387.317 291.773 363.239 223.29 346.634C217.065 344.973 210.839 343.728 204.613 342.067C189.672 338.746 173.9 335.01 159.788 330.444L156.468 329.198C135.301 322.556 117.454 315.914 97.1166 307.196C81.3448 300.554 63.9131 294.327 46.4812 287.685C31.5396 282.289 16.1829 276.477 2.07129 269.835V268.174H1.65613Z" fill="url(#paint30_linear_152_28977)"/>
<path d="M1.65625 251.154C23.2386 268.589 51.0466 279.798 74.7042 286.44C92.5511 291.421 110.813 295.158 126.17 298.479C140.696 301.385 154.393 303.46 168.92 305.536C175.56 306.366 182.616 307.612 189.672 308.857L192.992 309.272C212.499 312.593 233.667 315.914 253.589 320.065C322.486 335.01 389.309 361.994 433.719 381.505C440.359 384.411 447 387.317 453.226 390.222C479.374 402.261 503.861 413.47 533.745 418.866C578.569 427.169 618.414 419.282 660.333 410.979C678.18 407.243 696.442 403.922 715.534 401.431C729.231 399.77 741.267 398.94 752.888 398.525C823.031 397.28 875.742 421.772 929.283 479.06C933.433 483.627 937.999 488.193 942.149 491.929C967.467 514.762 990.294 524.725 1011.46 522.234C1035.95 519.328 1060.02 500.232 1086.58 461.625C1114.39 421.772 1161.29 383.165 1202.38 405.582C1241.81 427.169 1238.91 486.533 1236 511.025C1235.59 514.346 1235.17 517.667 1234.76 520.573C1232.68 535.518 1231.02 550.878 1231.02 565.407C1231.02 588.655 1236 606.09 1246.38 620.205C1257.58 635.564 1275.85 645.943 1293.28 655.491C1300.33 659.227 1307.39 663.378 1313.61 667.945C1324.82 675.417 1338.1 685.795 1343.5 701.985C1348.48 716.93 1345.57 731.044 1342.67 746.404C1340.59 757.613 1338.1 769.236 1339.35 781.275C1340.18 788.332 1341.84 794.559 1344.74 800.786C1364.67 842.715 1427.75 863.056 1474.65 842.714C1515.33 824.864 1544.38 789.993 1572.6 756.367C1581.73 745.159 1591.7 733.535 1601.24 723.157C1620.75 701.985 1658.93 665.039 1695.04 652.585C1712.89 646.358 1727.83 647.188 1739.45 654.66C1752.32 662.963 1755.64 678.323 1758.96 693.683C1764.35 719.006 1769.33 743.083 1818.31 736.441C1855.66 731.044 1889.7 700.74 1905.47 658.812C1930.37 591.976 1909.62 524.725 1891.36 464.946C1885.96 447.095 1880.57 430.49 1876.83 413.885C1873.93 402.261 1871.02 389.807 1870.19 377.769C1863.96 300.139 1874.34 239.945 1902.56 194.696C1908.37 185.563 1914.6 176.845 1921.24 168.543V172.694C1915.43 180.167 1909.62 187.639 1904.64 195.941C1876.83 240.776 1866.46 300.139 1872.68 377.353C1873.51 389.392 1876.42 401.016 1879.32 413.055C1883.47 429.66 1888.45 446.265 1893.85 464.116C1912.11 523.894 1933.28 591.976 1907.96 659.642C1891.77 702.4 1856.91 733.535 1818.72 738.932C1767.67 746.404 1761.86 719.836 1756.47 694.098C1753.15 678.738 1750.24 664.624 1738.21 656.736C1727 649.679 1713.3 648.849 1695.87 655.076C1658.93 667.945 1618.67 708.212 1603.32 724.817C1593.77 735.196 1583.81 746.819 1574.68 758.028C1546.04 792.069 1516.99 826.94 1475.9 845.205C1427.75 866.377 1363.01 845.205 1342.25 802.032C1339.35 795.805 1337.27 788.748 1336.44 781.69C1335.2 769.236 1337.69 757.613 1339.76 745.989C1342.67 731.044 1345.57 717.345 1340.59 703.231C1336.44 691.192 1327.73 681.229 1311.54 670.435C1305.31 666.284 1297.84 662.133 1291.2 658.397C1273.77 648.433 1255.51 638.055 1243.47 622.28C1232.68 607.751 1227.7 589.9 1227.7 565.823C1227.7 550.878 1229.78 535.518 1231.44 520.573C1231.85 517.252 1232.27 513.931 1232.68 511.025C1235.59 486.948 1238.49 429.245 1200.31 408.488C1160.46 386.901 1114.81 424.678 1087.83 463.701C1060.44 502.723 1035.95 522.649 1010.63 525.555C988.219 528.046 964.977 518.083 939.244 494.42C935.093 490.684 930.528 486.118 926.377 481.551C873.667 424.263 821.371 400.601 752.058 401.846C740.437 401.846 728.401 403.092 714.704 404.752C695.612 407.243 677.35 410.564 659.503 414.3C617.169 422.603 577.739 430.49 532.084 422.188C502.201 416.791 476.053 404.752 450.735 393.544C444.095 390.638 437.869 387.732 431.228 384.826C386.818 365.73 319.996 338.331 251.514 323.386C231.591 319.235 210.839 315.499 190.917 312.593L187.597 312.178C180.541 310.933 173.485 310.102 166.844 308.857C152.318 306.781 138.206 304.706 123.68 301.8C108.323 298.479 90.0608 294.743 72.2139 289.761C48.9713 283.119 21.5785 272.741 -0.00390625 255.72V251.154H1.65625Z" fill="url(#paint31_linear_152_28977)"/>
<path d="M22.8236 38.6071C18.2581 26.5683 10.3722 15.775 1.65625 6.22695V2.07565C11.6173 12.4539 20.3333 24.0776 25.3138 37.3617C36.52 66.836 28.2191 98.801 19.9182 129.521C12.0323 158.58 4.14648 188.884 12.8624 216.698C24.8988 256.551 65.9883 278.137 100.852 285.61C101.267 285.61 101.682 286.025 102.512 286.025C129.905 291.421 158.958 290.591 186.766 290.176C198.388 289.761 210.424 289.346 222.46 289.761C295.923 290.591 359.84 315.084 421.682 338.746C461.942 354.106 503.861 370.296 548.271 379.844C548.686 379.844 549.101 379.844 549.516 380.259C593.511 389.392 632.525 382.335 674.03 374.863C693.122 371.542 713.044 367.805 733.381 366.145C824.276 357.842 886.948 384.411 949.205 458.719C975.353 489.854 1001.09 504.798 1025.99 502.723C1055.04 500.232 1083.26 475.739 1111.9 427.169C1138.47 382.335 1184.95 337.501 1228.53 359.088C1272.53 380.674 1264.64 446.265 1261.32 465.776C1260.49 469.512 1260.07 473.664 1259.24 477.4C1252.6 513.516 1245.55 550.878 1265.05 579.937C1275.85 595.712 1293.28 606.921 1309.88 617.299C1332.71 631.828 1354.29 645.528 1360.93 670.435C1365.08 687.456 1360.51 704.476 1355.95 721.081C1352.63 733.535 1348.89 746.82 1349.31 759.273C1349.72 781.275 1361.76 800.371 1382.93 813.24C1412.81 831.506 1455.56 833.997 1486.69 819.052C1530.27 798.296 1559.74 758.028 1588.79 718.591C1595.85 709.458 1602.9 699.495 1609.96 690.362C1618.26 679.984 1684.67 596.957 1733.23 607.336C1738.62 608.581 1743.6 610.657 1748.58 614.393C1761.86 624.356 1764.35 642.207 1766.43 659.642C1770.58 689.531 1774.32 717.345 1825.78 712.364C1860.64 708.627 1892.6 679.983 1905.47 640.961C1927.05 574.54 1898 511.025 1869.78 449.586C1863.96 436.717 1857.74 423.848 1852.34 410.979C1831.59 361.579 1803.78 267.759 1850.27 196.357C1864.38 174.77 1883.47 157.75 1902.56 141.144C1908.79 135.748 1915.02 129.936 1921.24 124.124V127.86C1915.43 133.257 1910.03 138.238 1904.22 143.22C1885.55 159.825 1866.46 176.846 1852.34 198.017C1806.69 268.174 1834.08 361.163 1854.42 410.149C1859.81 423.018 1865.63 435.472 1871.44 448.756C1900.9 510.61 1929.96 574.125 1907.96 641.791C1894.68 682.059 1861.89 711.118 1825.37 714.854C1771.41 720.251 1766.84 689.531 1763.11 659.642C1760.62 642.207 1758.54 625.601 1746.09 616.469C1708.32 588.24 1643.58 650.509 1611.2 692.022C1604.15 701.155 1597.09 710.703 1590.03 720.251C1560.98 759.688 1531.1 800.371 1487.1 821.128C1455.15 836.488 1411.57 833.997 1380.85 815.316C1358.85 802.032 1346.82 782.106 1345.99 759.273C1345.57 745.989 1349.31 732.705 1352.63 720.251C1357.19 703.231 1361.76 687.456 1357.61 671.266C1351.38 647.188 1330.22 633.904 1307.8 619.79C1290.79 608.996 1272.94 597.788 1262.15 581.598C1242.23 551.708 1248.87 513.516 1255.92 476.985C1256.75 473.249 1257.17 469.097 1258 465.361C1261.32 446.265 1269.2 382.335 1226.87 361.578C1184.54 340.822 1139.3 384.826 1113.56 428.83C1084.51 478.23 1055.87 503.138 1025.57 505.629C999.84 507.704 973.278 492.76 946.715 460.795C884.458 386.486 824.691 360.748 733.381 369.466C713.044 371.542 693.122 374.863 674.03 378.184C632.525 385.656 593.096 392.713 548.686 383.58C548.271 383.58 547.856 383.58 547.441 383.165C502.616 373.617 460.696 357.427 420.437 342.067C359.01 318.405 295.093 293.912 222.46 293.082C210.424 293.082 198.388 293.082 186.766 293.497C158.958 294.327 129.905 295.158 102.097 289.346C66.4034 282.289 23.2386 259.872 10.3722 218.359C1.65625 189.715 9.54211 158.995 17.428 129.521C25.3138 98.801 33.6147 67.2511 22.8236 38.6071Z" fill="url(#paint32_linear_152_28977)"/>
<path d="M1.65625 577.446C16.1829 582.428 31.1245 587.409 46.4812 592.391C121.604 617.299 206.689 645.113 258.984 690.362C274.756 704.061 287.208 721.912 299.659 738.932C324.147 773.803 347.389 806.598 396.78 805.768C454.886 804.938 507.182 774.633 558.232 745.159L570.268 738.102C624.639 706.967 688.141 676.662 750.813 689.947H751.228C803.524 701.155 811.825 730.629 820.956 761.349C825.936 779.2 831.332 797.465 845.029 814.07C857.065 828.185 875.742 835.657 893.589 842.714C915.171 851.432 937.584 860.15 950.035 881.322C958.751 896.266 965.807 912.456 972.862 928.647C973.277 929.477 973.693 930.307 974.108 931.552H968.297C968.297 931.552 968.297 931.137 967.882 931.137C961.241 915.362 954.185 899.172 945.469 884.643C934.263 865.132 913.511 856.829 891.929 848.111C873.252 840.639 854.16 833.166 841.293 817.807C826.766 800.786 821.371 781.69 815.975 763.425C807.259 732.705 799.788 706.137 750.398 695.758C689.386 682.889 626.715 712.364 573.174 743.498L561.137 750.556C509.672 780.445 456.546 811.165 397.195 811.995C344.899 812.41 319.996 777.124 295.508 742.668C283.472 725.648 271.436 708.627 256.079 694.928C204.614 650.509 120.359 622.695 45.651 597.788C30.7094 592.806 16.5979 588.24 2.48633 583.258V577.446H1.65625Z" fill="url(#paint33_linear_152_28977)"/>
<path d="M1836.57 931.137H1828.69C1867.7 898.342 1897.58 861.395 1921.66 822.373V831.506C1898.83 866.792 1871.44 900.833 1836.57 931.137Z" fill="url(#paint34_linear_152_28977)"/>
<path d="M21.5784 39.0222C17.0128 27.3986 9.95703 17.4354 1.65613 7.88745V0C12.0322 10.7934 21.1632 22.8321 26.5588 36.9466C37.765 66.836 29.4642 99.2161 21.1633 129.936C13.6925 158.995 5.80664 188.884 14.1075 216.698C26.1439 256.551 68.0635 278.137 102.512 285.195C129.905 290.591 158.543 289.761 186.351 289.346C197.973 288.931 210.009 288.516 222.045 288.931C295.508 289.761 359.84 314.254 421.682 337.916C461.942 353.276 503.861 369.466 548.271 379.014C592.266 388.562 632.11 381.505 673.615 374.032C692.707 370.711 712.629 366.975 733.381 364.9C825.106 356.597 887.778 383.165 950.035 457.889C975.768 488.608 1001.5 503.553 1025.57 501.477C1053.8 498.987 1082.43 473.664 1110.24 426.339C1136.81 381.09 1184.12 335.84 1228.53 357.427C1273.36 379.429 1265.47 445.85 1261.73 465.776C1260.9 469.512 1260.49 473.664 1259.66 477.4C1253.02 513.101 1246.38 550.463 1265.47 579.107C1275.85 594.882 1293.28 605.675 1309.88 616.053C1331.88 630.168 1355.12 644.282 1361.34 670.02C1365.5 687.041 1360.93 704.476 1356.36 721.081C1353.04 733.535 1349.31 746.404 1349.72 759.273C1350.14 780.86 1361.76 799.541 1382.51 811.995C1411.98 830.261 1454.32 832.336 1485.03 817.807C1528.19 797.05 1557.66 756.783 1586.3 717.76C1593.36 708.212 1600.41 698.664 1607.47 689.531C1615.77 679.153 1682.59 595.712 1731.98 606.09C1737.38 607.336 1742.77 609.411 1747.75 613.147C1761.45 623.111 1763.94 641.376 1766.01 659.227C1770.16 688.286 1773.9 715.685 1824.12 710.703C1858.98 707.382 1890.53 679.153 1903.39 640.546C1924.98 574.54 1895.92 511.441 1868.12 450.416C1862.3 437.547 1856.08 424.263 1850.68 411.809C1829.93 361.994 1802.12 267.759 1848.61 195.941C1862.72 174.355 1882.23 157.334 1900.9 140.314C1907.54 134.502 1914.19 128.69 1920.41 122.463V129.521C1915.02 134.502 1909.62 139.484 1904.22 144.05C1885.55 160.655 1866.46 177.676 1852.76 198.432C1807.1 268.174 1834.5 360.333 1855.25 409.318C1860.64 422.188 1866.46 434.641 1872.27 447.926C1902.15 510.195 1931.62 574.125 1909.2 642.207C1895.92 682.889 1862.3 712.364 1825.78 716.1C1770.16 721.496 1766.01 688.701 1761.86 660.057C1759.37 642.622 1757.3 626.432 1745.68 617.714C1708.74 589.9 1644.41 652.17 1612.45 693.268C1605.39 702.4 1598.34 711.949 1591.28 721.497C1562.23 760.934 1532.34 801.617 1487.93 822.788C1455.56 838.148 1411.57 835.657 1380.44 816.977C1358.02 803.277 1345.57 782.936 1345.16 759.688C1344.74 746.404 1348.48 733.12 1352.21 720.251C1356.78 703.646 1361.34 687.456 1357.19 671.681C1351.38 648.018 1330.22 634.734 1308.22 621.035C1291.2 610.242 1273.36 599.033 1262.15 582.428C1241.81 552.123 1248.87 513.931 1255.51 476.985C1256.34 473.249 1256.75 469.097 1257.58 465.361C1260.9 446.265 1268.37 383.165 1226.87 362.824C1185.37 342.482 1140.96 386.071 1115.22 429.66C1085.75 479.476 1056.7 504.798 1026.4 507.289C1000.26 509.365 973.278 494.005 946.3 462.04C884.458 388.147 824.691 362.409 733.796 371.126C713.459 373.202 693.537 376.523 674.445 379.844C632.525 387.317 592.681 394.374 547.026 384.826C502.201 375.278 460.281 359.088 419.607 343.728C355.275 319.235 294.678 295.988 222.045 294.743C210.424 294.743 197.973 294.742 186.351 295.158C158.128 295.988 129.49 296.818 101.267 291.006C64.743 283.949 21.5784 261.117 8.71191 219.189C-0.00402832 190.13 7.88184 159.41 15.7677 129.521C24.0686 97.1405 31.9545 67.2511 21.5784 39.0222Z" fill="url(#paint35_linear_152_28977)"/>
<defs>
<linearGradient id="paint0_linear_152_28977" x1="960.656" y1="813.137" x2="960.826" y2="932.383" gradientUnits="userSpaceOnUse">
<stop stop-color="#F6F6F6"/>
<stop offset="1" stop-color="white"/>
</linearGradient>
<linearGradient id="paint1_linear_152_28977" x1="960.656" y1="813.137" x2="960.826" y2="932.383" gradientUnits="userSpaceOnUse">
<stop stop-color="#F6F6F6"/>
<stop offset="1" stop-color="white"/>
</linearGradient>
<linearGradient id="paint2_linear_152_28977" x1="960.656" y1="813.137" x2="960.826" y2="932.383" gradientUnits="userSpaceOnUse">
<stop stop-color="#F6F6F6"/>
<stop offset="1" stop-color="white"/>
</linearGradient>
<linearGradient id="paint3_linear_152_28977" x1="960.656" y1="813.137" x2="960.826" y2="932.383" gradientUnits="userSpaceOnUse">
<stop stop-color="#F6F6F6"/>
<stop offset="1" stop-color="white"/>
</linearGradient>
<linearGradient id="paint4_linear_152_28977" x1="960.656" y1="813.137" x2="960.826" y2="932.383" gradientUnits="userSpaceOnUse">
<stop stop-color="#F6F6F6"/>
<stop offset="1" stop-color="white"/>
</linearGradient>
<linearGradient id="paint5_linear_152_28977" x1="960.656" y1="813.137" x2="960.826" y2="932.383" gradientUnits="userSpaceOnUse">
<stop stop-color="#F6F6F6"/>
<stop offset="1" stop-color="white"/>
</linearGradient>
<linearGradient id="paint6_linear_152_28977" x1="960.656" y1="813.137" x2="960.826" y2="932.383" gradientUnits="userSpaceOnUse">
<stop stop-color="#F6F6F6"/>
<stop offset="1" stop-color="white"/>
</linearGradient>
<linearGradient id="paint7_linear_152_28977" x1="960.656" y1="813.137" x2="960.826" y2="932.383" gradientUnits="userSpaceOnUse">
<stop stop-color="#F6F6F6"/>
<stop offset="1" stop-color="white"/>
</linearGradient>
<linearGradient id="paint8_linear_152_28977" x1="960.656" y1="813.137" x2="960.826" y2="932.383" gradientUnits="userSpaceOnUse">
<stop stop-color="#F6F6F6"/>
<stop offset="1" stop-color="white"/>
</linearGradient>
<linearGradient id="paint9_linear_152_28977" x1="960.656" y1="813.137" x2="960.826" y2="932.383" gradientUnits="userSpaceOnUse">
<stop stop-color="#F6F6F6"/>
<stop offset="1" stop-color="white"/>
</linearGradient>
<linearGradient id="paint10_linear_152_28977" x1="960.656" y1="813.137" x2="960.826" y2="932.383" gradientUnits="userSpaceOnUse">
<stop stop-color="#F6F6F6"/>
<stop offset="1" stop-color="white"/>
</linearGradient>
<linearGradient id="paint11_linear_152_28977" x1="960.656" y1="813.137" x2="960.826" y2="932.383" gradientUnits="userSpaceOnUse">
<stop stop-color="#F6F6F6"/>
<stop offset="1" stop-color="white"/>
</linearGradient>
<linearGradient id="paint12_linear_152_28977" x1="960.656" y1="813.137" x2="960.826" y2="932.383" gradientUnits="userSpaceOnUse">
<stop stop-color="#F6F6F6"/>
<stop offset="1" stop-color="white"/>
</linearGradient>
<linearGradient id="paint13_linear_152_28977" x1="960.656" y1="813.137" x2="960.826" y2="932.383" gradientUnits="userSpaceOnUse">
<stop stop-color="#F6F6F6"/>
<stop offset="1" stop-color="white"/>
</linearGradient>
<linearGradient id="paint14_linear_152_28977" x1="960.656" y1="813.137" x2="960.826" y2="932.383" gradientUnits="userSpaceOnUse">
<stop stop-color="#F6F6F6"/>
<stop offset="1" stop-color="white"/>
</linearGradient>
<linearGradient id="paint15_linear_152_28977" x1="960.656" y1="813.137" x2="960.826" y2="932.383" gradientUnits="userSpaceOnUse">
<stop stop-color="#F6F6F6"/>
<stop offset="1" stop-color="white"/>
</linearGradient>
<linearGradient id="paint16_linear_152_28977" x1="960.656" y1="813.137" x2="960.826" y2="932.383" gradientUnits="userSpaceOnUse">
<stop stop-color="#F6F6F6"/>
<stop offset="1" stop-color="white"/>
</linearGradient>
<linearGradient id="paint17_linear_152_28977" x1="960.656" y1="813.137" x2="960.826" y2="932.383" gradientUnits="userSpaceOnUse">
<stop stop-color="#F6F6F6"/>
<stop offset="1" stop-color="white"/>
</linearGradient>
<linearGradient id="paint18_linear_152_28977" x1="960.656" y1="813.137" x2="960.826" y2="932.383" gradientUnits="userSpaceOnUse">
<stop stop-color="#F6F6F6"/>
<stop offset="1" stop-color="white"/>
</linearGradient>
<linearGradient id="paint19_linear_152_28977" x1="960.656" y1="813.137" x2="960.826" y2="932.383" gradientUnits="userSpaceOnUse">
<stop stop-color="#F6F6F6"/>
<stop offset="1" stop-color="white"/>
</linearGradient>
<linearGradient id="paint20_linear_152_28977" x1="960.656" y1="813.137" x2="960.826" y2="932.383" gradientUnits="userSpaceOnUse">
<stop stop-color="#F6F6F6"/>
<stop offset="1" stop-color="white"/>
</linearGradient>
<linearGradient id="paint21_linear_152_28977" x1="960.656" y1="813.137" x2="960.826" y2="932.383" gradientUnits="userSpaceOnUse">
<stop stop-color="#F6F6F6"/>
<stop offset="1" stop-color="white"/>
</linearGradient>
<linearGradient id="paint22_linear_152_28977" x1="960.656" y1="813.137" x2="960.826" y2="932.383" gradientUnits="userSpaceOnUse">
<stop stop-color="#F6F6F6"/>
<stop offset="1" stop-color="white"/>
</linearGradient>
<linearGradient id="paint23_linear_152_28977" x1="960.656" y1="813.137" x2="960.826" y2="932.383" gradientUnits="userSpaceOnUse">
<stop stop-color="#F6F6F6"/>
<stop offset="1" stop-color="white"/>
</linearGradient>
<linearGradient id="paint24_linear_152_28977" x1="960.656" y1="813.137" x2="960.826" y2="932.383" gradientUnits="userSpaceOnUse">
<stop stop-color="#F6F6F6"/>
<stop offset="1" stop-color="white"/>
</linearGradient>
<linearGradient id="paint25_linear_152_28977" x1="960.656" y1="813.137" x2="960.826" y2="932.383" gradientUnits="userSpaceOnUse">
<stop stop-color="#F6F6F6"/>
<stop offset="1" stop-color="white"/>
</linearGradient>
<linearGradient id="paint26_linear_152_28977" x1="960.656" y1="813.137" x2="960.826" y2="932.383" gradientUnits="userSpaceOnUse">
<stop stop-color="#F6F6F6"/>
<stop offset="1" stop-color="white"/>
</linearGradient>
<linearGradient id="paint27_linear_152_28977" x1="960.656" y1="813.137" x2="960.826" y2="932.383" gradientUnits="userSpaceOnUse">
<stop stop-color="#F6F6F6"/>
<stop offset="1" stop-color="white"/>
</linearGradient>
<linearGradient id="paint28_linear_152_28977" x1="960.656" y1="813.137" x2="960.826" y2="932.383" gradientUnits="userSpaceOnUse">
<stop stop-color="#F6F6F6"/>
<stop offset="1" stop-color="white"/>
</linearGradient>
<linearGradient id="paint29_linear_152_28977" x1="960.656" y1="813.137" x2="960.826" y2="932.383" gradientUnits="userSpaceOnUse">
<stop stop-color="#F6F6F6"/>
<stop offset="1" stop-color="white"/>
</linearGradient>
<linearGradient id="paint30_linear_152_28977" x1="960.656" y1="813.137" x2="960.826" y2="932.383" gradientUnits="userSpaceOnUse">
<stop stop-color="#F6F6F6"/>
<stop offset="1" stop-color="white"/>
</linearGradient>
<linearGradient id="paint31_linear_152_28977" x1="960.656" y1="813.137" x2="960.826" y2="932.383" gradientUnits="userSpaceOnUse">
<stop stop-color="#F6F6F6"/>
<stop offset="1" stop-color="white"/>
</linearGradient>
<linearGradient id="paint32_linear_152_28977" x1="960.656" y1="813.137" x2="960.826" y2="932.383" gradientUnits="userSpaceOnUse">
<stop stop-color="#F6F6F6"/>
<stop offset="1" stop-color="white"/>
</linearGradient>
<linearGradient id="paint33_linear_152_28977" x1="960.656" y1="813.137" x2="960.826" y2="932.383" gradientUnits="userSpaceOnUse">
<stop stop-color="#F6F6F6"/>
<stop offset="1" stop-color="white"/>
</linearGradient>
<linearGradient id="paint34_linear_152_28977" x1="960.656" y1="813.137" x2="960.826" y2="932.383" gradientUnits="userSpaceOnUse">
<stop stop-color="#F6F6F6"/>
<stop offset="1" stop-color="white"/>
</linearGradient>
<linearGradient id="paint35_linear_152_28977" x1="960.656" y1="813.137" x2="960.826" y2="932.383" gradientUnits="userSpaceOnUse">
<stop stop-color="#F6F6F6"/>
<stop offset="1" stop-color="white"/>
</linearGradient>
</defs>
</svg>
