<svg width="1910" height="933" viewBox="0 0 1910 933" fill="none" xmlns="http://www.w3.org/2000/svg">
<path d="M1920 904.569C1902.57 908.72 1884.31 916.608 1864.38 931.137H1868.95C1887.21 918.268 1903.81 910.796 1920 907.06V904.569Z" fill="url(#paint0_linear_37_757)"/>
<path d="M1920 889.209C1888.46 890.039 1855.67 898.757 1816.24 930.722C1815.82 931.137 1815.41 931.137 1815.41 931.552H1819.56C1858.16 901.248 1889.29 892.53 1920 892.115V889.209Z" fill="url(#paint1_linear_37_757)"/>
<path d="M1920 875.51C1878.91 875.095 1838.65 877.586 1783.87 916.608C1777.22 921.174 1771 926.156 1764.77 931.137H1768.92C1774.32 926.986 1779.71 922.835 1785.11 918.683C1839.07 880.076 1878.91 877.586 1919.58 878.001V875.51H1920Z" fill="url(#paint2_linear_37_757)"/>
<path d="M1920 856.414C1910.04 857.659 1900.08 858.489 1890.53 859.32C1848.61 863.056 1809.18 866.377 1751.49 902.908C1736.96 912.041 1723.27 921.589 1710.4 931.137H1714.97C1727 922.42 1739.87 913.702 1753.15 904.984C1810.01 868.868 1849.44 865.547 1890.95 861.81C1900.49 860.98 1910.04 860.15 1920.42 858.905V856.414H1920Z" fill="url(#paint3_linear_37_757)"/>
<path d="M1920 826.524C1894.27 834.827 1872.27 838.978 1851.52 843.545C1812.5 851.432 1775.15 858.905 1719.53 889.624C1708.74 895.436 1698.37 901.248 1688.4 907.06C1673.46 915.777 1658.94 924.08 1643.99 931.552H1649.81C1663.09 924.91 1675.95 917.438 1689.65 909.551C1699.61 903.739 1709.99 897.927 1720.78 892.115C1776.39 861.811 1813.33 854.338 1852.35 846.451C1873.1 842.299 1895.1 837.733 1920.42 829.846V826.524H1920Z" fill="url(#paint4_linear_37_757)"/>
<path d="M1920 782.936C1910.87 788.748 1901.74 794.144 1892.19 797.88L1890.95 798.296C1887.63 799.541 1884.72 800.786 1881.82 802.032C1854.01 812.825 1831.6 820.298 1809.6 827.77C1773.9 839.809 1739.87 851.017 1687.16 875.095L1683.42 876.755C1623.24 904.569 1575.51 926.156 1507.03 922.835C1483.37 921.589 1459.3 916.193 1433.57 909.966C1417.8 906.229 1401.19 902.493 1385.01 900.003C1350.14 894.606 1317.35 895.851 1284.98 904.569C1261.74 910.796 1243.89 919.929 1228.95 930.722H1233.52C1247.63 921.174 1264.23 912.872 1285.4 907.06C1317.77 898.342 1350.14 897.097 1384.59 902.493C1400.78 904.984 1416.97 908.72 1432.74 912.456C1458.47 918.268 1482.96 924.08 1506.61 925.326C1575.93 928.647 1623.66 906.645 1684.25 878.831L1687.99 877.17C1740.7 853.093 1774.32 841.884 1810.01 829.846C1832.01 822.373 1854.42 814.901 1882.23 804.107C1885.14 802.862 1888.46 801.617 1891.36 800.371L1892.61 799.956C1901.74 796.22 1910.87 791.238 1919.58 785.427V782.936H1920Z" fill="url(#paint5_linear_37_757)"/>
<path d="M1920 721.912C1901.32 743.083 1875.18 762.594 1848.2 775.463L1844.88 777.124C1842.8 778.369 1840.31 779.2 1838.24 780.445C1818.31 789.578 1801.71 797.465 1785.94 805.353C1747.34 824.034 1714.14 840.224 1654.79 862.226C1595.02 884.228 1543.97 896.266 1475.9 886.718C1455.98 883.812 1435.23 878.416 1413.64 872.604C1395.8 868.037 1377.54 863.056 1359.27 859.735C1325.24 853.508 1293.7 854.753 1262.57 862.641C1213.59 875.095 1192.84 900.833 1170.84 928.646C1170.01 929.477 1169.18 930.722 1168.35 931.552H1171.67C1172.09 931.137 1172.5 930.722 1172.92 930.307C1194.5 903.324 1215.25 877.585 1262.98 865.547C1294.11 857.659 1325.24 856.829 1358.86 862.641C1377.12 865.962 1395.38 870.943 1413.23 875.51C1435.23 881.322 1455.56 886.718 1475.9 889.624C1544.8 899.172 1595.85 887.133 1656.03 864.716C1715.38 842.715 1748.59 826.524 1787.19 807.844C1803.37 799.956 1819.97 792.069 1839.48 782.936C1841.56 782.105 1844.05 780.86 1846.12 779.615L1849.44 777.954C1876.01 765.5 1901.32 746.404 1920.42 726.063V721.912H1920Z" fill="url(#paint6_linear_37_757)"/>
<path d="M1920 655.491C1912.53 662.548 1905.89 669.605 1899.25 677.078C1892.19 684.965 1885.14 693.268 1875.59 701.985C1856.08 720.251 1830.35 738.517 1803.79 753.046C1802.13 753.877 1800.47 754.707 1798.81 755.537C1797.15 756.367 1795.9 757.198 1794.24 758.028C1773.9 769.236 1756.89 780.03 1740.7 790.823C1707.91 812.41 1676.78 833.167 1622 848.111C1562.65 864.716 1511.18 865.132 1444.36 849.772C1428.59 846.036 1412.4 841.054 1395.38 835.657C1375.05 829.43 1353.88 822.788 1332.71 818.637C1299.51 811.995 1269.21 812.41 1239.33 819.467C1189.52 831.506 1172.09 858.489 1153 886.718C1143.04 901.663 1132.66 917.023 1117.3 931.137H1121.04C1135.56 917.438 1145.53 902.493 1155.07 888.379C1173.75 860.565 1191.18 833.997 1239.74 822.373C1269.21 815.316 1299.51 814.901 1332.3 821.543C1353.46 825.694 1374.22 832.336 1394.55 838.563C1411.57 843.96 1427.76 848.942 1443.94 852.678C1511.18 868.038 1563.06 867.622 1622.83 851.017C1678.03 835.657 1709.16 815.316 1742.36 793.314C1758.55 782.521 1775.15 771.727 1795.9 760.519C1797.56 759.688 1798.81 758.858 1800.47 758.028C1802.13 757.198 1803.79 756.367 1805.45 755.537C1832.43 741.008 1858.16 722.742 1877.67 704.061C1887.21 695.343 1894.27 687.041 1901.32 679.153C1907.55 672.096 1913.36 665.869 1920 659.227V655.491Z" fill="url(#paint7_linear_37_757)"/>
<path d="M17.0169 931.137C11.2062 918.683 5.39559 905.814 0 892.115V899.172C4.5655 909.966 9.131 920.759 14.1115 931.137H17.0169Z" fill="url(#paint8_linear_37_757)"/>
<path d="M1920 619.79C1916.68 621.45 1913.36 623.111 1910.45 624.771C1902.98 628.922 1895.93 633.074 1888.04 638.47C1874.76 647.188 1863.55 656.321 1851.93 665.869C1845.29 671.266 1838.65 676.662 1831.18 682.474C1812.5 697.004 1789.26 712.364 1760.21 730.214C1757.72 731.46 1755.64 733.12 1753.15 734.366L1751.08 735.611C1731.98 747.65 1716.63 760.934 1701.69 774.218C1671.39 800.371 1643.16 824.864 1590.45 834.412C1530.27 845.62 1478.39 834.412 1414.06 812.825C1403.68 809.504 1392.89 805.353 1381.69 801.201C1357.61 792.484 1332.3 782.936 1306.98 777.539C1275.02 770.482 1245.14 770.067 1216.91 776.709C1166.69 788.332 1152.17 816.146 1136.39 845.205C1127.26 862.226 1118.13 879.661 1101.12 895.436C1097.38 898.757 1093.23 902.078 1089.08 904.569C1073.72 914.117 1056.29 919.514 1039.69 924.91C1033.46 926.986 1027.24 929.062 1021.01 931.137H1028.9C1032.63 929.892 1036.37 928.647 1040.1 927.401C1057.12 922.005 1074.55 916.608 1090.32 906.645C1094.89 903.739 1099.04 900.833 1102.78 897.097C1119.79 881.322 1129.34 863.471 1138.47 846.451C1153.83 817.807 1167.94 790.823 1217.33 779.2C1245.55 772.557 1274.6 772.973 1306.15 780.03C1331.47 785.842 1356.37 794.975 1380.44 803.692C1391.65 807.844 1402.02 811.58 1412.81 815.316C1477.56 836.903 1529.86 848.111 1590.45 836.903C1643.99 826.94 1672.63 802.447 1702.93 775.879C1717.87 763.01 1733.23 749.725 1752.32 737.687L1754.4 736.441C1756.47 735.196 1758.96 733.535 1761.45 732.29C1790.51 714.439 1813.75 698.664 1832.84 684.55C1840.31 678.738 1847.37 673.341 1853.59 667.945C1865.21 658.397 1876.42 649.679 1889.29 640.961C1897.17 635.565 1904.23 631.413 1911.7 627.262C1914.6 625.601 1917.09 624.356 1920 623.111V619.79Z" fill="url(#paint9_linear_37_757)"/>
<path d="M39.4293 931.137C25.7328 910.381 13.6965 889.209 2.07523 866.792C1.24514 865.547 0.830091 863.886 0 862.641V868.453C11.6213 890.455 22.8275 911.211 36.1089 931.137H39.4293Z" fill="url(#paint10_linear_37_757)"/>
<path d="M1920 597.372C1904.64 603.184 1888.87 608.996 1873.93 615.638C1866.46 618.959 1858.57 622.695 1850.27 626.847C1827.44 638.055 1807.52 650.094 1785.94 663.378C1762.28 677.908 1737.38 692.852 1715.8 707.797C1712.89 709.873 1710.4 711.949 1707.5 713.609C1690.06 726.478 1675.95 742.253 1662.67 757.198C1635.28 787.917 1609.13 816.561 1558.08 821.128C1494.58 826.524 1440.21 802.032 1382.93 776.294L1374.22 772.557C1344.33 758.858 1313.2 745.159 1281.25 736.856C1249.7 728.969 1221.48 728.139 1194.5 734.366C1143.45 745.574 1132.24 773.803 1119.79 804.107C1112.74 821.543 1105.27 839.393 1089.91 855.584C1086.59 858.905 1082.85 862.226 1078.7 865.132C1065.42 873.849 1050.06 879.661 1035.12 885.058C1012.71 892.945 991.543 900.418 978.677 918.268C975.357 922.835 972.451 926.986 969.546 931.552H972.866C975.357 927.401 978.262 923.665 981.167 919.514C993.619 902.493 1014.37 895.021 1036.37 887.133C1051.31 881.737 1067.08 876.34 1080.78 867.207C1084.93 864.301 1089.08 860.98 1092.4 857.244C1108.17 840.639 1115.64 822.373 1122.7 804.938C1134.73 775.464 1145.53 748.065 1195.33 736.856C1221.89 731.044 1250.12 731.875 1280.83 739.347C1312.79 747.235 1343.5 761.349 1373.39 775.048L1382.1 778.784C1440.21 804.938 1494.58 829.43 1558.91 823.619C1611.21 819.052 1637.77 789.993 1665.58 758.858C1678.86 743.914 1692.97 728.554 1709.99 715.685C1712.48 713.609 1715.38 711.533 1718.29 709.873C1739.87 694.928 1764.36 679.983 1788.43 665.454C1810.01 652.17 1829.94 640.546 1852.76 629.338C1861.48 625.186 1868.95 621.45 1876.42 618.129C1890.95 611.487 1906.3 606.09 1921.25 600.278V597.372H1920Z" fill="url(#paint11_linear_37_757)"/>
<path d="M60.1816 931.137H63.917C43.1647 907.89 27.393 885.058 13.6965 863.886C9.131 856.414 4.5655 848.941 0 841.469V846.451C3.73541 852.678 7.47082 858.905 11.6213 865.132C24.9027 886.303 40.2594 908.72 60.1816 931.137Z" fill="url(#paint12_linear_37_757)"/>
<path d="M1920 578.692C1905.89 583.673 1890.95 588.655 1875.59 593.636C1800.47 618.544 1715.8 646.358 1663.92 691.607C1648.15 705.306 1635.69 722.742 1623.66 739.762C1598.75 774.633 1575.51 807.844 1525.29 807.428C1466.77 806.598 1414.06 776.294 1363.01 746.404C1358.86 743.914 1355.12 741.838 1350.97 739.347C1297.02 708.212 1233.52 678.323 1171.26 691.192H1170.84C1119.38 701.985 1111.08 731.044 1102.36 761.764C1097.38 779.615 1091.98 798.296 1077.87 814.901C1065.42 829.43 1047.16 836.903 1028.9 843.96C1007.32 852.678 985.318 861.395 973.281 882.152C964.565 897.097 957.51 913.287 950.454 929.062C950.039 929.892 949.624 930.307 949.624 931.137H952.529C952.529 930.722 952.944 930.307 952.944 929.892C959.585 914.117 967.056 897.927 975.357 882.982C986.978 863.056 1008.56 854.338 1029.73 846.036C1047.99 838.563 1067.08 831.091 1079.53 816.146C1094.06 799.126 1099.46 780.445 1104.44 762.179C1113.15 731.044 1121.04 704.061 1170.84 693.268H1171.26C1232.68 680.399 1295.36 710.288 1348.9 741.008C1353.05 743.498 1356.78 745.574 1360.93 748.065C1412.4 777.954 1465.53 808.674 1524.46 809.504C1575.93 809.919 1599.58 776.294 1624.9 740.593C1636.94 723.572 1648.98 706.137 1664.75 692.853C1716.21 648.018 1800.88 620.205 1875.59 595.712C1890.53 590.73 1905.06 586.164 1919.17 581.182V578.692H1920Z" fill="url(#paint13_linear_37_757)"/>
<path d="M87.1595 931.137H90.8949C52.7108 899.172 23.6576 863.056 0 824.864V829.015C23.2425 865.132 51.4656 900.003 87.1595 931.137Z" fill="url(#paint14_linear_37_757)"/>
<path d="M1920 543.821C1899.25 551.293 1876.42 558.765 1853.18 566.653C1780.54 590.73 1697.95 617.714 1646.49 660.472C1631.13 673.341 1619.09 689.531 1607.47 704.891C1582.98 737.271 1559.74 767.991 1512.01 768.406C1456.81 768.821 1406.59 743.083 1362.18 720.251L1352.22 715.27C1345.99 711.948 1339.35 708.627 1333.13 705.306C1284.15 680.399 1226.04 656.736 1167.52 667.945C1162.54 668.775 1157.15 670.02 1152.17 671.266C1102.36 684.55 1091.15 711.118 1080.36 736.441C1074.14 751.386 1067.91 766.746 1053.8 779.2C1042.18 789.578 1025.99 794.559 1008.56 799.541C985.733 806.183 962.075 813.24 947.964 833.997C935.927 851.847 927.626 873.019 919.326 893.36C915.175 904.154 910.61 915.362 905.629 925.74C904.799 927.401 903.969 929.062 903.139 930.722H906.044C906.874 929.477 907.289 928.231 908.119 926.571C913.1 916.193 917.665 904.984 921.816 894.191C929.702 873.849 938.418 853.093 950.039 835.242C963.32 814.901 986.563 808.259 1008.98 801.617C1026.41 796.635 1043.42 791.653 1055.05 780.86C1069.57 767.576 1076.21 752.216 1082.44 736.856C1093.23 710.703 1103.61 686.21 1152.17 673.341C1157.15 672.096 1162.13 670.851 1167.11 670.02C1224.8 659.227 1282.49 682.474 1331.05 706.967C1337.28 710.288 1343.5 713.609 1350.14 716.515L1360.1 721.496C1404.51 744.329 1455.15 770.482 1510.77 770.067C1559.74 769.652 1583.4 738.517 1608.3 705.306C1619.92 689.947 1631.96 673.757 1646.9 661.303C1697.95 618.544 1780.13 591.561 1852.76 567.898C1876.01 560.426 1898.42 552.954 1918.75 545.481V543.821H1920Z" fill="url(#paint15_linear_37_757)"/>
<path d="M109.572 931.137H114.137C74.7082 903.739 41.0895 868.037 11.6213 823.203C7.47082 816.977 3.73541 811.165 0 804.938V809.919C2.90532 814.901 6.22568 819.882 9.131 824.449C38.1842 868.868 71.3878 904.154 109.572 931.137Z" fill="url(#paint16_linear_37_757)"/>
<path d="M1920 508.119C1915.43 509.78 1911.28 511.44 1907.13 513.101C1883.89 521.819 1858.16 530.537 1830.77 539.254C1759.79 562.502 1679.69 588.24 1628.64 629.338C1614.11 640.961 1602.08 655.906 1590.45 670.435C1565.97 700.325 1543.14 728.554 1497.9 729.799C1444.77 731.044 1396.21 708.627 1348.9 687.041L1338.52 682.474C1330.22 678.738 1322.33 675.002 1314.45 671.681C1265.47 650.509 1207.37 630.998 1147.6 647.603C1142.62 648.849 1137.22 650.509 1132.66 652.17C1085.34 667.529 1071.23 690.777 1058.78 710.703C1050.89 723.572 1043.84 735.196 1028.9 744.744C1018.52 751.386 1003.99 754.292 988.638 756.783C964.981 760.934 938.418 765.915 922.231 787.502C907.289 807.428 898.158 832.751 889.442 856.829C886.537 865.132 883.632 873.019 880.726 880.491C873.671 897.927 866.615 911.211 858.314 921.589C855.409 925.325 852.503 928.647 849.598 931.552H853.333C855.824 929.062 858.314 926.156 860.389 923.25C868.69 912.456 876.161 899.172 883.217 881.322C886.122 873.849 889.027 865.962 891.932 857.659C900.648 833.582 909.364 808.674 924.306 788.748C939.663 767.991 964.981 763.425 989.053 759.273C1004.82 756.367 1019.35 753.877 1030.56 746.819C1045.5 737.271 1052.97 724.817 1061.27 711.948C1074.14 691.192 1087 669.605 1133.49 654.661C1138.05 653 1143.04 651.755 1148.43 650.094C1207.37 633.904 1265.06 653 1313.62 674.172C1321.5 677.493 1329.39 681.229 1337.69 684.965L1348.07 689.531C1395.38 711.118 1444.36 733.95 1497.9 732.705C1544.38 731.46 1567.63 702.816 1592.53 672.511C1604.15 658.397 1615.77 643.452 1630.3 631.828C1681.35 591.146 1761.04 564.992 1831.6 542.16C1858.99 533.442 1884.72 524.725 1907.96 516.007C1911.7 514.346 1915.85 513.101 1920 511.441V508.119Z" fill="url(#paint17_linear_37_757)"/>
<path d="M141.946 931.137H148.171C94.2153 905.814 49.8054 864.301 12.0363 804.523C7.88586 797.88 3.73541 791.238 0 784.596V789.993C3.32036 795.39 6.22568 800.786 9.54604 805.768C46.4851 864.301 89.6498 905.399 141.946 931.137Z" fill="url(#paint18_linear_37_757)"/>
<path d="M146.511 912.041C161.453 917.853 172.244 922.835 180.96 926.571C185.11 928.231 189.261 929.892 192.581 931.552H199.637C194.241 929.477 188.846 926.986 181.79 924.08C173.074 920.344 161.868 915.362 147.341 909.55C93.8003 887.549 49.8055 847.696 12.4514 786.672C7.88586 779.615 4.15045 772.142 0 765.085V770.482C3.32036 776.294 6.64073 782.106 9.96109 787.917C47.7302 849.357 92.1401 890.039 146.511 912.041Z" fill="url(#paint19_linear_37_757)"/>
<path d="M1920 471.173C1905.89 478.23 1890.53 484.042 1877.25 489.024C1856.08 496.911 1832.84 504.383 1808.35 512.271C1739.87 534.273 1662.26 559.596 1611.21 598.618C1597.09 609.411 1585.47 622.695 1573.85 635.98C1549.78 663.378 1526.95 689.531 1484.2 691.192C1433.15 693.268 1387.91 674.587 1340.18 655.076C1336.03 653.415 1331.47 651.339 1327.32 649.679L1324.82 648.849C1314.86 644.697 1305.73 640.961 1296.19 637.64C1250.12 620.62 1189.52 604.015 1128.09 626.432C1123.11 628.092 1118.13 630.168 1113.57 631.828C1070.4 648.434 1053.39 667.114 1040.1 682.059C1030.14 693.268 1021.43 702.816 1005.24 708.627C996.109 711.948 984.073 712.779 970.791 713.609C945.058 715.27 916.005 716.93 897.328 739.347C879.066 760.934 870.35 790.408 861.634 818.637C859.974 824.034 858.314 829.015 857.069 833.997C852.918 846.451 847.523 862.641 838.392 876.755C828.431 892.115 816.809 903.324 803.113 910.796C782.776 922.42 757.458 925.741 732.97 927.816C722.594 928.646 713.048 929.062 704.747 929.477C701.842 929.477 699.352 929.477 696.861 929.892C693.541 929.892 690.636 930.307 687.73 930.307C682.75 930.307 678.184 930.722 674.034 931.137H728.405C730.065 931.137 731.725 930.722 732.97 930.722C757.458 928.231 783.191 924.91 803.943 913.287C818.055 905.399 830.091 893.776 840.052 878.416C849.183 863.886 854.994 847.696 859.144 834.827C860.804 829.845 862.464 824.449 863.709 819.467C872.01 791.654 880.726 762.594 898.988 741.008C917.25 719.421 945.473 717.76 970.791 716.515C984.073 715.685 996.524 714.854 1006.07 711.533C1023.09 705.306 1031.8 695.343 1042.18 684.135C1056.29 668.775 1072.48 650.924 1114.81 634.319C1119.79 632.244 1124.36 630.583 1129.34 628.922C1189.94 606.505 1250.12 623.111 1295.77 640.131C1304.9 643.452 1314.45 647.188 1324.41 651.339L1326.9 652.17C1331.05 653.83 1335.62 655.491 1339.77 657.566C1385.42 676.662 1433.15 696.174 1484.62 693.683C1528.61 692.022 1551.85 665.454 1576.34 637.64C1587.55 624.771 1599.17 611.487 1613.28 600.694C1663.92 562.086 1741.53 536.763 1809.6 514.762C1834.09 506.874 1857.74 499.402 1878.91 491.514C1892.19 486.533 1906.72 481.136 1920.83 474.079V471.173H1920Z" fill="url(#paint20_linear_37_757)"/>
<path d="M1920 428.83C1900.49 446.265 1872.27 456.228 1847.37 464.946C1828.69 471.588 1808.77 477.815 1787.6 484.457C1720.36 506.044 1644.41 530.121 1593.36 567.483C1579.66 577.446 1568.46 589.485 1557.25 601.109C1533.18 626.017 1510.77 649.679 1470.09 652.17C1420.29 655.076 1376.71 638.885 1330.22 621.865C1323.58 619.374 1316.52 616.884 1309.47 614.393C1297.43 610.242 1287.89 606.505 1277.51 603.599C1209.44 582.428 1157.15 582.843 1108.17 605.675C1103.19 607.751 1098.63 610.242 1093.64 612.317C1059.2 628.092 1040.93 641.376 1026.41 652.17C1011.05 663.793 1000.67 671.266 979.922 673.756C972.866 674.587 963.32 673.756 953.359 673.341C926.381 671.266 893.178 668.775 870.765 692.437C848.768 715.27 840.467 750.556 832.996 781.275L831.336 788.747C827.601 803.692 823.45 819.052 815.979 833.167C807.263 849.772 796.887 861.395 783.606 870.113C764.099 882.982 739.196 887.133 714.708 891.7H713.878C709.728 892.53 705.992 892.945 702.672 893.776C693.541 895.436 685.24 896.681 678.599 898.342L676.939 898.757C659.922 902.908 652.036 904.984 635.85 919.929C634.189 921.174 632.944 922.835 631.284 924.08C628.794 926.571 625.888 929.062 622.983 931.552C622.568 931.968 622.568 931.968 622.153 932.383H625.888C628.379 930.307 630.454 928.231 632.529 926.156C634.189 924.495 635.435 923.25 637.095 922.004C652.866 907.89 659.922 905.814 676.939 901.663L678.599 901.248C685.24 899.587 693.126 898.342 702.257 896.681C705.992 896.266 709.728 895.436 713.463 894.606H714.293C738.781 890.454 764.514 885.888 784.436 873.019C798.132 863.886 808.923 851.847 817.639 834.827C825.11 820.297 829.676 804.523 833.411 789.578L835.071 782.106C842.542 751.801 850.843 716.93 872.01 694.513C893.178 672.096 925.966 674.587 952.529 676.247C962.49 677.078 972.036 677.493 979.507 676.662C1001.09 674.172 1011.47 666.284 1027.24 654.66C1041.76 643.867 1059.61 630.583 1094.06 614.808C1099.04 612.732 1103.61 610.657 1108.59 608.166C1156.73 585.749 1208.61 585.334 1275.85 606.505C1285.81 609.411 1295.77 613.147 1307.39 617.299C1314.45 619.79 1321.09 622.28 1328.15 624.771C1374.63 642.207 1418.63 658.397 1468.85 655.491C1510.35 653 1533.18 628.922 1557.67 603.599C1568.87 591.976 1580.08 579.937 1593.36 570.389C1644.41 533.442 1719.95 508.95 1787.19 487.778C1808.35 481.136 1828.28 474.494 1846.95 468.267C1871.44 459.549 1898.83 450.001 1918.75 433.396V428.83H1920Z" fill="url(#paint21_linear_37_757)"/>
<path d="M140.285 887.133C179.3 901.248 190.091 901.663 206.278 902.493C212.088 902.493 218.314 902.908 227.03 903.739C234.916 904.569 243.632 906.229 252.763 907.89C257.328 908.72 261.894 909.551 266.459 910.381C275.59 912.041 285.136 913.287 293.852 914.532C318.755 918.268 341.997 922.004 361.505 926.571C366.485 927.816 371.466 929.477 376.446 931.137H383.917C376.861 928.231 369.805 925.741 362.335 924.08C342.828 919.098 319.17 915.777 294.267 911.626C285.136 910.381 276.005 908.72 266.874 907.475C262.309 906.645 257.743 905.814 253.178 904.984C244.047 903.323 235.331 901.663 227.445 900.833C218.729 900.002 212.503 899.587 206.693 899.587C190.506 899.172 179.715 898.757 141.53 884.643C90.8949 865.962 47.7302 826.94 13.2815 768.406C8.30091 760.519 4.15045 752.631 0 744.329V750.14C3.32036 756.783 6.64073 763.01 10.3761 769.652C45.2399 829.015 88.8197 868.453 140.285 887.133Z" fill="url(#paint22_linear_37_757)"/>
<path d="M1920 367.39C1913.36 379.844 1906.3 391.468 1895.1 402.261C1893.85 403.091 1893.02 404.337 1891.78 405.167C1872.27 422.188 1844.46 431.32 1817.48 440.453C1802.54 445.435 1786.36 450.416 1769.75 455.813C1703.35 476.57 1628.22 500.232 1575.93 536.348C1563.06 545.066 1551.85 555.859 1541.06 566.238C1517.41 588.655 1494.99 610.242 1456.81 613.147C1408.25 616.884 1365.5 602.769 1320.67 587.409C1311.54 584.503 1302.41 581.182 1293.28 578.277C1280.83 574.54 1270.87 571.219 1260.49 568.729C1192.43 551.293 1139.71 556.275 1089.91 583.673C1085.34 586.164 1080.78 588.655 1075.8 591.146C1056.29 601.109 1041.76 609.826 1030.14 616.469C998.599 634.734 986.978 641.791 957.095 637.225C952.114 636.395 945.888 635.149 939.663 633.489C911.44 626.847 873.255 618.129 846.693 643.037C820.96 667.114 813.904 707.797 808.093 741.008C805.603 755.537 802.283 772.557 796.057 787.087C788.586 804.938 779.04 817.807 766.589 827.355C749.572 840.224 726.329 846.036 704.332 851.432L697.276 853.093C683.58 856.414 671.543 859.735 662.827 864.301C647.056 872.189 642.905 877.586 630.869 892.115L627.964 895.436C624.643 899.587 620.908 903.739 616.342 908.305L610.947 913.702C605.551 919.098 600.156 924.91 594.345 930.307H598.08C603.061 925.325 608.042 920.344 613.022 915.362L618.418 909.966C622.983 905.399 626.719 900.833 630.039 896.681L632.944 893.36C644.981 878.831 649.131 873.849 664.073 866.377C672.374 862.226 684.41 858.905 698.106 855.584L705.162 853.923C727.575 848.526 750.817 842.715 768.664 829.43C781.945 819.467 791.492 806.598 798.962 788.333C805.188 772.973 808.508 756.367 810.999 741.423C816.809 709.043 823.865 668.775 848.768 645.112C874.086 621.035 911.855 629.753 939.248 635.98C945.888 637.64 951.699 638.885 957.095 639.716C987.808 644.282 1000.67 636.81 1031.8 618.544C1043.42 611.487 1058.37 603.184 1077.46 593.221C1082.44 590.73 1087 588.24 1091.57 585.749C1140.54 558.35 1192.84 553.784 1260.08 570.804C1270.04 573.295 1280.42 576.616 1292.87 580.352C1302 583.258 1311.54 586.164 1320.26 589.485C1365.5 604.43 1408.66 618.959 1457.64 615.223C1496.65 612.317 1519.48 590.73 1543.55 567.483C1554.34 557.105 1565.55 546.727 1578 538.009C1629.88 502.308 1705.01 478.645 1771 457.889C1788.02 452.492 1803.79 447.51 1818.73 442.529C1844.46 433.811 1873.93 423.848 1893.85 406.828C1895.1 405.997 1895.93 404.752 1897.17 403.922C1907.13 394.374 1914.19 383.58 1920.42 372.787V367.39H1920Z" fill="url(#paint23_linear_37_757)"/>
<path d="M134.06 862.641C171.829 875.095 183.035 871.359 195.486 867.207C202.127 865.132 208.768 863.056 219.559 862.641C231.18 862.226 245.292 864.716 259.403 867.622C290.947 873.849 326.226 883.397 354.449 892.945C375.616 900.418 395.123 913.287 416.291 926.571C418.366 928.231 420.856 929.477 422.931 931.137H427.912C424.591 929.062 420.856 926.571 417.536 924.495C396.368 910.796 376.446 897.927 355.279 890.454C327.056 880.491 291.362 870.943 259.818 864.716C245.292 861.811 231.595 859.32 219.559 859.735C208.353 860.15 200.882 862.226 194.656 864.301C182.205 868.453 171.829 871.774 134.89 859.735C85.9144 843.545 45.2399 806.598 13.2815 749.725C8.30091 741.423 4.15045 732.29 0 723.572V729.799C3.32036 736.856 7.05577 744.329 11.2062 751.386C43.1647 809.089 84.2542 846.451 134.06 862.641Z" fill="url(#paint24_linear_37_757)"/>
<path d="M1920 315.084C1915.85 319.235 1912.11 323.387 1908.79 327.953C1904.64 333.35 1900.49 339.161 1896.76 344.143C1886.8 358.257 1877.67 371.542 1862.31 383.58C1861.06 384.411 1860.23 385.241 1858.99 386.071C1839.9 400.186 1813.75 408.073 1788.85 415.961L1787.6 416.376C1777.22 419.697 1766.85 423.018 1756.06 426.339C1688.82 447.095 1612.87 470.343 1558.08 505.629C1546.04 513.516 1534.84 522.649 1524.46 531.782C1500.8 552.123 1478.39 571.219 1442.7 574.54C1395.38 579.107 1353.46 566.653 1309.05 553.369C1297.85 550.048 1286.64 546.727 1275.02 543.406C1265.06 540.5 1253.02 537.594 1241.4 535.103C1173.33 521.404 1120.21 530.121 1069.57 563.332C1065.01 566.238 1060.44 569.144 1055.88 572.05C988.223 611.902 974.112 620.205 932.192 603.184C930.117 602.354 928.042 601.524 925.551 600.278C898.158 588.655 852.503 569.559 820.545 596.542C794.812 618.544 787.341 657.151 783.191 695.758C781.115 713.194 779.455 728.969 774.475 743.498C768.249 762.594 759.948 776.294 747.912 786.672C732.555 799.956 710.973 806.598 690.22 813.24C686.485 814.486 682.75 815.731 679.014 816.976C666.563 821.128 653.696 825.694 645.396 832.751C635.434 840.639 632.114 847.696 627.134 857.244C624.643 861.81 622.153 867.207 618.418 873.434C615.097 878.831 611.777 883.397 608.041 887.549C595.175 902.493 578.573 919.929 559.066 931.137H564.047C582.309 919.514 597.665 903.324 610.117 889.209C613.852 885.058 617.172 880.076 620.493 874.68C624.643 868.037 627.134 863.056 629.209 858.074C633.774 848.941 637.095 842.299 646.641 834.412C654.942 827.77 667.393 823.203 679.429 819.052C683.165 817.807 686.9 816.561 690.635 815.316C711.388 808.674 733.385 802.032 749.157 788.332C761.608 777.539 770.324 763.425 776.55 743.914C781.53 728.969 783.191 713.194 785.266 695.343C789.416 657.151 796.887 618.959 821.79 597.788C852.503 571.634 897.328 590.73 923.891 601.939C926.381 602.769 928.456 604.015 930.532 604.845C974.112 622.28 988.223 613.978 1056.71 573.71C1061.27 570.804 1066.25 567.898 1070.82 564.992C1120.62 532.197 1173.33 523.479 1240.57 537.179C1252.19 539.669 1264.23 542.575 1274.19 545.481C1285.81 548.802 1297.02 552.123 1308.22 555.444C1352.63 568.729 1394.55 581.182 1442.7 576.616C1479.22 573.295 1502.05 553.784 1526.12 533.442C1536.5 524.725 1547.29 515.177 1559.33 507.704C1613.7 472.833 1689.65 449.586 1756.47 428.83C1767.26 425.509 1778.05 422.188 1788.02 418.866L1789.26 418.451C1814.58 410.564 1840.73 402.261 1860.23 388.147C1861.48 387.317 1862.31 386.486 1863.55 385.656C1878.91 373.202 1888.46 359.918 1898.42 345.804C1902.15 340.407 1905.89 335.01 1910.45 329.613C1913.36 325.877 1916.26 322.141 1919.58 318.82V315.084H1920Z" fill="url(#paint25_linear_37_757)"/>
<path d="M127.419 838.148C167.263 849.772 177.639 841.884 188.431 833.167C194.241 828.6 200.467 823.618 212.088 821.958C224.955 819.882 240.311 822.788 252.348 825.694C279.326 831.921 310.869 843.545 346.978 860.15C366.07 868.868 383.917 882.152 402.594 895.851C420.026 908.72 437.873 921.589 456.965 931.552H462.776C441.608 921.174 422.516 907.475 403.839 893.36C384.747 879.661 366.9 866.377 347.808 857.244C311.699 840.224 279.741 828.6 252.763 822.788C240.726 819.882 224.955 816.977 211.673 819.052C199.637 820.713 192.996 826.109 186.77 830.676C176.394 838.978 166.433 846.451 128.249 835.242C69.7276 818.222 33.6187 769.652 13.6965 731.875C8.30091 721.912 3.73541 711.948 0 701.57V708.627C3.32036 716.93 7.05577 724.818 11.6213 733.12C31.5435 771.312 68.0675 820.713 127.419 838.148Z" fill="url(#paint26_linear_37_757)"/>
<path d="M1920 291.421C1905.06 300.139 1891.78 309.687 1880.16 320.481C1876.42 324.217 1872.68 327.953 1868.95 331.274C1856.91 343.313 1845.71 354.521 1829.52 364.9C1828.27 365.73 1827.44 366.145 1826.2 366.975C1807.52 377.769 1784.28 384.826 1761.45 391.468L1753.57 393.959C1685.91 413.885 1601.25 438.793 1540.65 474.909C1529.44 481.551 1518.65 489.439 1508.69 497.326C1485.03 515.177 1462.62 532.197 1429 535.933C1382.52 541.33 1341.43 530.121 1297.85 518.498C1284.98 515.177 1271.28 511.441 1258 508.119C1244.31 504.798 1233.1 502.723 1223.55 501.477C1155.49 491.099 1101.95 503.968 1050.89 542.99C1046.33 546.312 1041.76 549.633 1037.2 552.538C969.961 597.372 950.454 596.127 908.119 568.313C858.729 535.518 822.205 529.291 795.227 549.633C765.759 572.05 760.363 617.714 758.703 650.509V650.924C757.873 667.53 757.043 684.135 753.722 699.91C749.157 719.836 741.686 734.781 730.065 745.989C715.953 759.688 695.616 767.576 676.109 775.048C671.128 777.124 666.148 778.784 661.582 780.86C649.961 785.842 636.68 791.653 628.794 801.201C620.908 810.334 618.833 819.052 616.757 829.015C615.097 835.657 613.437 843.13 609.702 851.432C607.211 857.244 604.306 862.226 600.571 866.792C574.423 902.078 529.183 933.628 478.962 917.853C445.344 907.06 417.536 884.228 390.973 861.81C374.371 848.111 358.599 834.827 341.582 824.449C315.019 808.674 280.571 789.578 246.952 780.86C229.105 776.294 215.824 775.463 205.032 778.784C192.581 782.105 186.77 789.993 181.375 797.88C172.244 810.334 163.528 821.958 122.853 811.58C62.2568 795.39 29.0532 743.498 14.1115 713.609C8.30091 701.985 3.73541 690.362 0 678.738V686.625C3.32036 696.173 7.47082 705.306 12.0363 714.854C26.9779 744.744 61.0117 797.465 121.608 813.24C163.943 824.034 173.489 811.165 183.035 798.296C188.431 791.238 193.826 783.766 205.447 780.445C216.239 777.539 229.105 778.369 246.122 782.521C279.326 791.238 313.774 810.334 340.337 825.694C357.354 835.657 373.126 848.941 389.728 862.641C416.706 885.058 444.514 907.89 478.547 919.099C530.013 935.704 576.498 903.324 603.061 867.207C606.796 862.226 609.702 856.829 612.192 851.017C615.927 842.299 617.588 834.827 619.248 827.77C621.323 818.222 623.398 809.919 630.869 801.201C638.755 792.484 651.206 786.257 662.827 781.69C667.393 779.615 672.373 777.954 677.354 775.879C697.276 768.406 717.613 760.519 732.14 746.404C744.176 734.781 752.062 719.836 756.628 699.079C760.363 683.305 761.193 666.284 762.023 649.679V649.264C763.683 617.299 768.664 572.05 797.717 550.463C823.45 530.952 859.144 537.179 907.289 569.144C952.114 599.033 974.526 596.542 1039.27 553.369C1043.84 550.463 1048.4 547.142 1052.97 543.821C1103.61 505.214 1156.32 492.76 1223.97 503.138C1233.93 504.798 1244.72 506.874 1258.42 509.78C1272.11 513.101 1285.4 516.422 1298.26 520.158C1341.84 531.782 1383.35 542.99 1430.25 537.594C1464.7 533.442 1487.11 516.422 1511.18 498.571C1521.14 491.099 1531.52 483.212 1542.72 476.57C1603.32 440.453 1687.57 415.961 1755.23 396.034L1763.11 393.544C1785.94 386.901 1809.6 379.844 1828.69 369.051C1829.93 368.221 1830.77 367.805 1832.01 366.975C1848.61 356.597 1860.23 344.973 1872.27 332.935C1876.01 329.198 1879.33 325.877 1883.06 322.141C1893.85 311.763 1906.3 302.63 1920.83 294.327V291.421H1920Z" fill="url(#paint27_linear_37_757)"/>
<path d="M1920 278.552C1913.77 281.043 1907.96 283.534 1902.15 286.025C1882.65 294.327 1866.46 303.46 1851.93 313.008L1846.54 316.744C1830.35 327.538 1816.65 337.086 1797.15 346.219C1795.9 346.634 1795.07 347.049 1793.83 347.879C1776.39 355.352 1756.06 361.163 1736.13 366.145L1727.83 368.221C1670.97 383.58 1587.55 408.073 1522.8 443.359C1512.43 449.171 1502.46 455.398 1492.92 461.625C1469.26 477.4 1446.43 491.929 1414.89 496.496C1368.82 502.723 1328.56 493.175 1285.81 482.381C1271.28 478.645 1255.93 474.909 1240.16 472.003C1226.46 469.512 1214.84 467.437 1204.46 466.606C1135.15 459.549 1083.27 475.739 1030.56 520.989C1025.99 524.725 1021.84 528.461 1017.28 531.782C953.774 578.692 926.796 572.88 883.217 532.197C867.445 517.668 812.244 472.003 769.494 501.062C745.006 517.667 733.385 552.123 733.8 603.184V606.505C734.215 622.28 734.215 638.886 732.14 654.245C728.82 675.417 722.179 691.192 710.973 703.231C698.106 717.345 678.599 726.063 659.922 734.366C654.112 736.856 648.301 739.762 642.905 742.253C626.304 750.556 616.757 758.028 610.947 767.161C604.306 777.954 603.891 788.748 603.061 799.956C602.646 808.674 602.231 817.392 599.326 827.355C597.665 833.167 594.76 838.978 591.44 844.375C568.197 880.907 516.732 909.966 466.926 892.115C431.232 879.246 403.009 853.093 376.031 827.355C361.505 813.655 347.808 800.786 333.281 789.993C307.134 770.482 272.27 747.235 238.651 737.271C221.219 732.29 207.108 731.875 195.901 736.441C183.035 741.423 178.054 752.216 173.489 762.179C165.603 779.2 158.132 794.975 114.968 785.427C73.463 776.294 35.6939 742.253 14.1115 694.928C8.30091 681.644 3.73541 667.114 0 653V662.963C3.32036 674.172 7.47082 685.38 12.4514 696.589C34.4488 744.744 73.048 779.2 114.968 788.748C160.208 798.711 168.508 781.275 176.394 764.255C180.96 754.292 185.525 744.329 197.562 739.762C208.353 735.611 221.634 735.611 238.651 740.593C271.855 750.141 306.303 773.388 332.036 792.899C346.563 803.692 360.259 816.561 374.786 829.846C402.179 855.584 430.402 882.152 466.511 895.021C517.977 913.702 569.442 884.228 593.93 846.036C597.25 840.639 600.156 834.827 601.816 828.6C605.136 818.222 605.136 809.504 605.551 800.786C605.966 789.578 606.381 779.615 613.022 769.237C618.418 760.519 627.964 753.461 643.735 745.159C649.131 742.253 654.942 739.762 660.752 737.271C679.429 728.969 698.936 720.251 712.633 705.721C724.254 693.268 730.895 677.078 734.215 655.491C736.291 639.716 736.291 623.111 735.875 607.336V604.015C735.045 553.369 746.667 519.743 770.324 503.968C811.414 476.154 865.37 520.573 880.726 534.688C923.891 574.54 952.529 583.258 1018.11 534.273C1022.67 530.952 1027.24 527.215 1031.39 523.479C1083.27 478.645 1134.73 462.455 1203.22 469.512C1213.59 470.758 1225.21 472.418 1238.5 474.909C1253.85 477.815 1269.21 481.551 1283.74 485.287C1326.9 495.666 1367.16 505.629 1413.64 499.402C1446.02 494.835 1469.68 479.476 1492.92 464.116C1502.46 457.889 1512.43 451.662 1522.39 445.85C1586.72 410.564 1669.73 386.071 1726.59 371.126L1734.89 369.051C1754.81 363.654 1775.56 358.257 1793 350.37C1794.24 349.955 1795.07 349.54 1796.32 348.709C1815.82 339.577 1830.77 329.613 1846.12 319.235L1851.52 315.499C1865.63 305.951 1881.82 297.233 1901.32 288.931C1906.72 286.44 1912.11 284.364 1917.92 281.873V278.552H1920Z" fill="url(#paint28_linear_37_757)"/>
<path d="M19.5071 417.206C20.3372 404.752 21.1673 392.298 19.5071 380.674C14.5266 344.973 9.131 310.102 0 276.892V287.27C7.47082 317.575 12.4514 349.125 17.0169 381.09C18.677 392.713 17.847 405.167 17.0169 416.791V417.206C15.3567 437.962 11.6213 459.964 7.47082 483.212C4.98054 498.156 2.07523 513.516 0 529.291V552.123C2.07523 528.461 6.22568 505.214 9.96109 483.627C14.1115 460.38 18.262 438.378 19.5071 417.206Z" fill="url(#paint29_linear_37_757)"/>
<path d="M1920 268.174C1905.47 274.816 1890.12 280.628 1874.76 286.44C1857.33 292.667 1839.9 298.894 1824.12 305.951C1803.79 314.669 1785.94 320.896 1764.77 327.538L1761.45 328.783C1747.34 332.934 1731.57 336.671 1716.63 340.407C1710.4 341.652 1704.18 343.313 1697.95 344.973C1629.05 361.578 1560.99 386.071 1505.37 413.055C1496.24 417.621 1487.52 422.603 1478.81 427.169C1454.32 440.868 1431.49 453.322 1401.19 458.304C1355.95 465.776 1315.69 456.643 1273.77 447.51C1257.59 443.774 1240.57 440.038 1223.14 437.547C1209.44 435.472 1197.82 434.226 1186.61 433.396C1116.89 429.245 1064.59 449.586 1011.47 501.062C1007.32 505.214 1002.75 509.365 998.599 512.686C935.512 564.577 901.064 547.557 859.144 497.741C830.091 463.285 782.361 430.905 744.176 454.153C710.973 474.494 706.822 521.819 709.728 557.935L710.143 564.577C711.388 579.937 712.218 595.712 711.388 611.072C709.728 633.489 703.917 650.094 693.126 662.963C681.09 677.493 662.412 687.041 644.566 696.174C638.34 699.495 631.699 702.816 625.473 706.137C614.267 712.364 600.986 721.496 594.345 735.611C588.534 748.48 589.78 760.934 591.025 773.803C591.855 783.766 593.1 794.144 590.61 804.938C589.365 811.165 587.289 817.392 583.969 823.203C563.217 860.98 507.185 887.964 456.55 868.037C418.781 853.093 390.143 822.788 362.335 793.314C350.713 780.86 338.677 768.406 326.226 757.198C289.702 724.402 258.158 703.646 232.01 695.758C214.163 689.947 200.052 690.362 188.431 696.589C175.564 703.231 171.414 716.515 167.263 728.969C160.623 750.14 154.397 770.067 108.327 761.764C62.2568 753.046 29.8833 712.364 15.3567 677.493C7.05577 657.566 2.49027 637.64 0 617.714V635.149C2.90532 649.679 6.64073 664.208 12.8664 678.323C27.808 714.024 60.5966 755.122 108.742 763.84C156.887 772.557 163.943 750.556 170.584 729.384C174.734 716.515 178.47 704.476 190.506 698.249C201.712 692.437 214.994 692.437 232.01 697.834C257.743 706.137 289.287 726.478 324.981 758.858C337.432 769.652 348.638 782.105 360.674 794.974C388.483 824.449 417.536 854.753 455.72 870.113C507.186 890.87 564.877 863.056 586.044 824.034C589.365 818.222 591.44 811.58 593.1 804.938C595.175 793.729 594.345 782.936 593.515 772.973C592.27 760.104 591.025 748.065 596.835 736.026C601.816 725.648 610.947 716.93 626.719 707.797C632.944 704.476 639.17 701.155 645.811 697.834C664.073 688.701 682.75 679.153 695.201 663.793C706.407 650.509 712.218 633.489 713.878 610.242C715.123 594.882 713.878 579.107 712.633 563.332L712.218 556.69C709.728 521.404 713.463 474.909 745.422 455.398C781.946 432.981 828.431 464.531 856.654 498.571C899.818 549.217 935.097 567.068 999.844 513.931C1004.41 510.195 1008.56 506.459 1013.13 502.308C1065.84 451.247 1117.3 431.32 1186.2 435.472C1196.99 436.302 1209.03 437.547 1222.31 439.623C1239.74 442.529 1256.34 445.85 1272.53 449.586C1314.86 458.719 1355.12 467.852 1401.19 460.379C1431.49 455.398 1455.98 442.114 1479.64 428.83C1488.35 424.263 1497.07 419.282 1506.2 414.715C1561.4 387.317 1629.88 363.239 1698.37 346.634C1704.59 344.973 1710.82 343.728 1717.04 342.067C1731.98 338.746 1747.76 335.01 1761.87 330.444L1765.19 329.198C1786.36 322.556 1804.2 315.914 1824.54 307.196C1840.31 300.554 1857.74 294.327 1875.18 287.685C1890.12 282.289 1905.47 276.477 1919.58 269.835V268.174H1920Z" fill="url(#paint30_linear_37_757)"/>
<path d="M1920 251.154C1898.42 268.589 1870.61 279.798 1846.95 286.44C1829.11 291.421 1810.84 295.158 1795.49 298.479C1780.96 301.385 1767.26 303.46 1752.74 305.536C1746.1 306.366 1739.04 307.612 1731.98 308.857L1728.66 309.272C1709.16 312.593 1687.99 315.914 1668.07 320.065C1599.17 335.01 1532.35 361.994 1487.94 381.505C1481.3 384.411 1474.66 387.317 1468.43 390.222C1442.28 402.261 1417.8 413.47 1387.91 418.866C1343.09 427.169 1303.24 419.282 1261.32 410.979C1243.48 407.243 1225.21 403.922 1206.12 401.431C1192.43 399.77 1180.39 398.94 1168.77 398.525C1098.63 397.28 1045.91 421.772 992.374 479.06C988.223 483.627 983.658 488.193 979.507 491.929C954.189 514.762 931.362 524.725 910.195 522.234C885.707 519.328 861.634 500.232 835.071 461.625C807.263 421.772 760.363 383.165 719.274 405.582C679.844 427.169 682.75 486.533 685.655 511.025C686.07 514.346 686.485 517.667 686.9 520.573C688.975 535.518 690.635 550.878 690.635 565.407C690.635 588.655 685.655 606.09 675.279 620.205C664.073 635.564 645.811 645.943 628.379 655.491C621.323 659.227 614.267 663.378 608.042 667.945C596.835 675.417 583.554 685.795 578.158 701.985C573.178 716.93 576.083 731.044 578.988 746.404C581.064 757.613 583.554 769.236 582.309 781.275C581.479 788.332 579.818 794.559 576.913 800.786C556.991 842.715 493.904 863.056 447.004 842.714C406.329 824.864 377.276 789.993 349.053 756.367C339.922 745.159 329.961 733.535 320.415 723.157C300.908 701.985 262.724 665.039 226.615 652.585C208.768 646.358 193.826 647.188 182.205 654.66C169.339 662.963 166.018 678.323 162.698 693.683C157.302 719.006 152.322 743.083 103.346 736.441C65.9922 731.044 31.9585 700.74 16.1868 658.812C-8.71595 591.976 12.0363 524.725 30.2983 464.946C35.6939 447.095 41.0895 430.49 44.8249 413.885C47.7302 402.261 50.6355 389.807 51.4656 377.769C57.6913 300.139 47.3152 239.945 19.0921 194.696C13.2815 185.563 7.05577 176.845 0.415045 168.543V172.694C6.22568 180.167 12.0363 187.639 17.0169 195.941C44.8249 240.776 55.201 300.139 48.9754 377.353C48.1453 389.392 45.2399 401.016 42.3346 413.055C38.1842 429.66 33.2036 446.265 27.808 464.116C9.54604 523.894 -11.6213 591.976 13.6965 659.642C29.8833 702.4 64.7471 733.535 102.931 738.932C153.982 746.404 159.792 719.836 165.188 694.098C168.508 678.738 171.414 664.624 183.45 656.736C194.656 649.679 208.353 648.849 225.785 655.076C262.724 667.945 302.983 708.212 318.34 724.817C327.886 735.196 337.847 746.819 346.978 758.028C375.616 792.069 404.669 826.94 445.759 845.205C493.904 866.377 558.651 845.205 579.403 802.032C582.309 795.805 584.384 788.748 585.214 781.69C586.459 769.236 583.969 757.613 581.894 745.989C578.988 731.044 576.083 717.345 581.064 703.231C585.214 691.192 593.93 681.229 610.117 670.435C616.342 666.284 623.813 662.133 630.454 658.397C647.886 648.433 666.148 638.055 678.184 622.28C688.975 607.751 693.956 589.9 693.956 565.823C693.956 550.878 691.881 535.518 690.221 520.573C689.805 517.252 689.39 513.931 688.975 511.025C686.07 486.948 683.165 429.245 721.349 408.488C761.193 386.901 806.848 424.678 833.826 463.701C861.219 502.723 885.707 522.649 911.025 525.555C933.437 528.046 956.68 518.083 982.412 494.42C986.563 490.684 991.128 486.118 995.279 481.551C1047.99 424.263 1100.29 400.601 1169.6 401.846C1181.22 401.846 1193.26 403.092 1206.95 404.752C1226.04 407.243 1244.31 410.564 1262.15 414.3C1304.49 422.603 1343.92 430.49 1389.57 422.188C1419.46 416.791 1445.6 404.752 1470.92 393.544C1477.56 390.638 1483.79 387.732 1490.43 384.826C1534.84 365.73 1601.66 338.331 1670.14 323.386C1690.06 319.235 1710.82 315.499 1730.74 312.593L1734.06 312.178C1741.12 310.933 1748.17 310.102 1754.81 308.857C1769.34 306.781 1783.45 304.706 1797.98 301.8C1813.33 298.479 1831.6 294.743 1849.44 289.761C1872.68 283.119 1900.08 272.741 1921.66 255.72V251.154H1920Z" fill="url(#paint31_linear_37_757)"/>
<path d="M1898.83 38.6071C1903.4 26.5683 1911.28 15.775 1920 6.22695V2.07565C1910.04 12.4539 1901.32 24.0776 1896.34 37.3617C1885.14 66.836 1893.44 98.801 1901.74 129.521C1909.62 158.58 1917.51 188.884 1908.79 216.698C1896.76 256.551 1855.67 278.137 1820.8 285.61C1820.39 285.61 1819.97 286.025 1819.14 286.025C1791.75 291.421 1762.7 290.591 1734.89 290.176C1723.27 289.761 1711.23 289.346 1699.2 289.761C1625.73 290.591 1561.82 315.084 1499.97 338.746C1459.71 354.106 1417.8 370.296 1373.39 379.844C1372.97 379.844 1372.56 379.844 1372.14 380.259C1328.15 389.392 1289.13 382.335 1247.63 374.863C1228.53 371.542 1208.61 367.805 1188.27 366.145C1097.38 357.842 1034.71 384.411 972.451 458.719C946.303 489.854 920.571 504.798 895.668 502.723C866.615 500.232 838.392 475.739 809.754 427.169C783.191 382.335 736.706 337.501 693.126 359.088C649.131 380.674 657.017 446.265 660.337 465.776C661.167 469.512 661.582 473.664 662.412 477.4C669.053 513.516 676.109 550.878 656.602 579.937C645.811 595.712 628.379 606.921 611.777 617.299C588.949 631.828 567.367 645.528 560.726 670.435C556.576 687.456 561.141 704.476 565.707 721.081C569.027 733.535 572.763 746.82 572.348 759.273C571.932 781.275 559.896 800.371 538.729 813.24C508.846 831.506 466.096 833.997 434.968 819.052C391.388 798.296 361.92 758.028 332.866 718.591C325.811 709.458 318.755 699.495 311.699 690.362C303.398 679.984 236.991 596.957 188.431 607.336C183.035 608.581 178.054 610.657 173.074 614.393C159.792 624.356 157.302 642.207 155.227 659.642C151.077 689.531 147.341 717.345 95.8755 712.364C61.0117 708.627 29.0532 679.983 16.1868 640.961C-5.39559 574.54 23.6576 511.025 51.8807 449.586C57.6913 436.717 63.917 423.848 69.3126 410.979C90.0648 361.579 117.873 267.759 71.3878 196.357C57.2763 174.77 38.1842 157.75 19.0921 141.144C12.8664 135.748 6.64073 129.936 0.415045 124.124V127.86C6.22568 133.257 11.6213 138.238 17.4319 143.22C36.1089 159.825 55.201 176.846 69.3126 198.017C114.968 268.174 87.5746 361.163 67.2374 410.149C61.8418 423.018 56.0311 435.472 50.2205 448.756C20.7523 510.61 -8.30091 574.125 13.6965 641.791C26.978 682.059 59.7665 711.118 96.2905 714.854C150.246 720.251 154.812 689.531 158.547 659.642C161.038 642.207 163.113 625.601 175.564 616.469C213.333 588.24 278.08 650.509 310.454 692.022C317.51 701.155 324.565 710.703 331.621 720.251C360.674 759.688 390.558 800.371 434.553 821.128C466.511 836.488 510.091 833.997 540.804 815.316C562.802 802.032 574.838 782.106 575.668 759.273C576.083 745.989 572.348 732.705 569.027 720.251C564.462 703.231 559.896 687.456 564.047 671.266C570.272 647.188 591.44 633.904 613.852 619.79C630.869 608.996 648.716 597.788 659.507 581.598C679.429 551.708 672.789 513.516 665.733 476.985C664.903 473.249 664.488 469.097 663.658 465.361C660.337 446.265 652.451 382.335 694.786 361.578C737.121 340.822 782.361 384.826 808.093 428.83C837.147 478.23 865.785 503.138 896.083 505.629C921.816 507.704 948.379 492.76 974.942 460.795C1037.2 386.486 1096.96 360.748 1188.27 369.466C1208.61 371.542 1228.53 374.863 1247.63 378.184C1289.13 385.656 1328.56 392.713 1372.97 383.58C1373.39 383.58 1373.8 383.58 1374.22 383.165C1419.04 373.617 1460.96 357.427 1501.22 342.067C1562.65 318.405 1626.56 293.912 1699.2 293.082C1711.23 293.082 1723.27 293.082 1734.89 293.497C1762.7 294.327 1791.75 295.158 1819.56 289.346C1855.25 282.289 1898.42 259.872 1911.28 218.359C1920 189.715 1912.11 158.995 1904.23 129.521C1896.34 98.801 1888.04 67.2511 1898.83 38.6071Z" fill="url(#paint32_linear_37_757)"/>
<path d="M1920 577.446C1905.47 582.428 1890.53 587.409 1875.18 592.391C1800.05 617.299 1714.97 645.113 1662.67 690.362C1646.9 704.061 1634.45 721.912 1622 738.932C1597.51 773.803 1574.27 806.598 1524.88 805.768C1466.77 804.938 1414.47 774.633 1363.42 745.159L1351.39 738.102C1297.02 706.967 1233.52 676.662 1170.84 689.947H1170.43C1118.13 701.155 1109.83 730.629 1100.7 761.349C1095.72 779.2 1090.32 797.465 1076.63 814.07C1064.59 828.185 1045.91 835.657 1028.07 842.714C1006.49 851.432 984.073 860.15 971.621 881.322C962.905 896.266 955.85 912.456 948.794 928.647C948.379 929.477 947.964 930.307 947.549 931.552H953.359C953.359 931.552 953.359 931.137 953.774 931.137C960.415 915.362 967.471 899.172 976.187 884.643C987.393 865.132 1008.15 856.829 1029.73 848.111C1048.4 840.639 1067.5 833.166 1080.36 817.807C1094.89 800.786 1100.29 781.69 1105.68 763.425C1114.4 732.705 1121.87 706.137 1171.26 695.758C1232.27 682.889 1294.94 712.364 1348.48 743.498L1360.52 750.556C1411.98 780.445 1465.11 811.165 1524.46 811.995C1576.76 812.41 1601.66 777.124 1626.15 742.668C1638.18 725.648 1650.22 708.627 1665.58 694.928C1717.04 650.509 1801.3 622.695 1876.01 597.788C1890.95 592.806 1905.06 588.24 1919.17 583.258V577.446H1920Z" fill="url(#paint33_linear_37_757)"/>
<path d="M85.0843 931.137H92.9702C53.9559 898.342 24.0726 861.395 0 822.373V831.506C22.8275 866.792 50.2205 900.833 85.0843 931.137Z" fill="url(#paint34_linear_37_757)"/>
<path d="M1900.08 39.0222C1904.64 27.3986 1911.7 17.4354 1920 7.88745V0C1909.62 10.7934 1900.49 22.8321 1895.1 36.9466C1883.89 66.836 1892.19 99.2161 1900.49 129.936C1907.96 158.995 1915.85 188.884 1907.55 216.698C1895.51 256.551 1853.59 278.137 1819.14 285.195C1791.75 290.591 1763.11 289.761 1735.3 289.346C1723.68 288.931 1711.65 288.516 1699.61 288.931C1626.15 289.761 1561.82 314.254 1499.97 337.916C1459.71 353.276 1417.8 369.466 1373.39 379.014C1329.39 388.562 1289.55 381.505 1248.04 374.032C1228.95 370.711 1209.03 366.975 1188.28 364.9C1096.55 356.597 1033.88 383.165 971.621 457.889C945.888 488.608 920.156 503.553 896.083 501.477C867.86 498.987 839.222 473.664 811.414 426.339C784.851 381.09 737.536 335.84 693.126 357.427C648.301 379.429 656.187 445.85 659.922 465.776C660.752 469.512 661.167 473.664 661.997 477.4C668.638 513.101 675.279 550.463 656.187 579.107C645.811 594.882 628.379 605.675 611.777 616.053C589.779 630.168 566.537 644.282 560.311 670.02C556.161 687.041 560.726 704.476 565.292 721.081C568.612 733.535 572.348 746.404 571.933 759.273C571.518 780.86 559.896 799.541 539.144 811.995C509.676 830.261 467.341 832.336 436.628 817.807C393.463 797.05 363.995 756.783 335.357 717.76C328.301 708.212 321.245 698.664 314.189 689.531C305.888 679.153 239.066 595.712 189.676 606.09C184.28 607.336 178.885 609.411 173.904 613.147C160.208 623.111 157.717 641.376 155.642 659.227C151.492 688.286 147.756 715.685 97.5357 710.703C62.6719 707.382 31.1284 679.153 18.262 640.546C-3.32036 574.54 25.7328 511.441 53.5409 450.416C59.3515 437.547 65.5772 424.263 70.9728 411.809C91.725 361.994 119.533 267.759 73.048 195.941C58.9365 174.355 39.4293 157.334 20.7523 140.314C14.1115 134.502 7.47082 128.69 1.24514 122.463V129.521C6.64073 134.502 12.0363 139.484 17.4319 144.05C36.1089 160.655 55.201 177.676 68.8975 198.432C114.553 268.174 87.1595 360.333 66.4073 409.318C61.0117 422.188 55.201 434.641 49.3904 447.926C19.5071 510.195 -9.96109 574.125 12.4514 642.207C25.7328 682.889 59.3515 712.364 95.8755 716.1C151.492 721.496 155.642 688.701 159.792 660.057C162.283 642.622 164.358 626.432 175.979 617.714C212.918 589.9 277.25 652.17 309.209 693.268C316.265 702.4 323.32 711.949 330.376 721.497C359.429 760.934 389.313 801.617 433.722 822.788C466.096 838.148 510.091 835.657 541.219 816.977C563.632 803.277 576.083 782.936 576.498 759.688C576.913 746.404 573.178 733.12 569.442 720.251C564.877 703.646 560.311 687.456 564.462 671.681C570.272 648.018 591.44 634.734 613.437 621.035C630.454 610.242 648.301 599.033 659.507 582.428C679.844 552.123 672.789 513.931 666.148 476.985C665.318 473.249 664.903 469.097 664.073 465.361C660.752 446.265 653.281 383.165 694.786 362.824C736.29 342.482 780.7 386.071 806.433 429.66C835.901 479.476 864.955 504.798 895.253 507.289C921.401 509.365 948.379 494.005 975.357 462.04C1037.2 388.147 1096.97 362.409 1187.86 371.126C1208.2 373.202 1228.12 376.523 1247.21 379.844C1289.13 387.317 1328.98 394.374 1374.63 384.826C1419.46 375.278 1461.37 359.088 1502.05 343.728C1566.38 319.235 1626.98 295.988 1699.61 294.743C1711.23 294.743 1723.68 294.742 1735.3 295.158C1763.53 295.988 1792.17 296.818 1820.39 291.006C1856.91 283.949 1900.08 261.117 1912.94 219.189C1921.66 190.13 1913.77 159.41 1905.89 129.521C1897.59 97.1405 1889.7 67.2511 1900.08 39.0222Z" fill="url(#paint35_linear_37_757)"/>
<defs>
<linearGradient id="paint0_linear_37_757" x1="961" y1="813.137" x2="960.83" y2="932.383" gradientUnits="userSpaceOnUse">
<stop stop-color="#F6F6F6"/>
<stop offset="1" stop-color="white"/>
</linearGradient>
<linearGradient id="paint1_linear_37_757" x1="961" y1="813.137" x2="960.83" y2="932.383" gradientUnits="userSpaceOnUse">
<stop stop-color="#F6F6F6"/>
<stop offset="1" stop-color="white"/>
</linearGradient>
<linearGradient id="paint2_linear_37_757" x1="961" y1="813.137" x2="960.83" y2="932.383" gradientUnits="userSpaceOnUse">
<stop stop-color="#F6F6F6"/>
<stop offset="1" stop-color="white"/>
</linearGradient>
<linearGradient id="paint3_linear_37_757" x1="961" y1="813.137" x2="960.83" y2="932.383" gradientUnits="userSpaceOnUse">
<stop stop-color="#F6F6F6"/>
<stop offset="1" stop-color="white"/>
</linearGradient>
<linearGradient id="paint4_linear_37_757" x1="961" y1="813.137" x2="960.83" y2="932.383" gradientUnits="userSpaceOnUse">
<stop stop-color="#F6F6F6"/>
<stop offset="1" stop-color="white"/>
</linearGradient>
<linearGradient id="paint5_linear_37_757" x1="961" y1="813.137" x2="960.83" y2="932.383" gradientUnits="userSpaceOnUse">
<stop stop-color="#F6F6F6"/>
<stop offset="1" stop-color="white"/>
</linearGradient>
<linearGradient id="paint6_linear_37_757" x1="961" y1="813.137" x2="960.83" y2="932.383" gradientUnits="userSpaceOnUse">
<stop stop-color="#F6F6F6"/>
<stop offset="1" stop-color="white"/>
</linearGradient>
<linearGradient id="paint7_linear_37_757" x1="961" y1="813.137" x2="960.83" y2="932.383" gradientUnits="userSpaceOnUse">
<stop stop-color="#F6F6F6"/>
<stop offset="1" stop-color="white"/>
</linearGradient>
<linearGradient id="paint8_linear_37_757" x1="961" y1="813.137" x2="960.83" y2="932.383" gradientUnits="userSpaceOnUse">
<stop stop-color="#F6F6F6"/>
<stop offset="1" stop-color="white"/>
</linearGradient>
<linearGradient id="paint9_linear_37_757" x1="961" y1="813.137" x2="960.83" y2="932.383" gradientUnits="userSpaceOnUse">
<stop stop-color="#F6F6F6"/>
<stop offset="1" stop-color="white"/>
</linearGradient>
<linearGradient id="paint10_linear_37_757" x1="961" y1="813.137" x2="960.83" y2="932.383" gradientUnits="userSpaceOnUse">
<stop stop-color="#F6F6F6"/>
<stop offset="1" stop-color="white"/>
</linearGradient>
<linearGradient id="paint11_linear_37_757" x1="961" y1="813.137" x2="960.83" y2="932.383" gradientUnits="userSpaceOnUse">
<stop stop-color="#F6F6F6"/>
<stop offset="1" stop-color="white"/>
</linearGradient>
<linearGradient id="paint12_linear_37_757" x1="961" y1="813.137" x2="960.83" y2="932.383" gradientUnits="userSpaceOnUse">
<stop stop-color="#F6F6F6"/>
<stop offset="1" stop-color="white"/>
</linearGradient>
<linearGradient id="paint13_linear_37_757" x1="961" y1="813.137" x2="960.83" y2="932.383" gradientUnits="userSpaceOnUse">
<stop stop-color="#F6F6F6"/>
<stop offset="1" stop-color="white"/>
</linearGradient>
<linearGradient id="paint14_linear_37_757" x1="961" y1="813.137" x2="960.83" y2="932.383" gradientUnits="userSpaceOnUse">
<stop stop-color="#F6F6F6"/>
<stop offset="1" stop-color="white"/>
</linearGradient>
<linearGradient id="paint15_linear_37_757" x1="961" y1="813.137" x2="960.83" y2="932.383" gradientUnits="userSpaceOnUse">
<stop stop-color="#F6F6F6"/>
<stop offset="1" stop-color="white"/>
</linearGradient>
<linearGradient id="paint16_linear_37_757" x1="961" y1="813.137" x2="960.83" y2="932.383" gradientUnits="userSpaceOnUse">
<stop stop-color="#F6F6F6"/>
<stop offset="1" stop-color="white"/>
</linearGradient>
<linearGradient id="paint17_linear_37_757" x1="961" y1="813.137" x2="960.83" y2="932.383" gradientUnits="userSpaceOnUse">
<stop stop-color="#F6F6F6"/>
<stop offset="1" stop-color="white"/>
</linearGradient>
<linearGradient id="paint18_linear_37_757" x1="961" y1="813.137" x2="960.83" y2="932.383" gradientUnits="userSpaceOnUse">
<stop stop-color="#F6F6F6"/>
<stop offset="1" stop-color="white"/>
</linearGradient>
<linearGradient id="paint19_linear_37_757" x1="961" y1="813.137" x2="960.83" y2="932.383" gradientUnits="userSpaceOnUse">
<stop stop-color="#F6F6F6"/>
<stop offset="1" stop-color="white"/>
</linearGradient>
<linearGradient id="paint20_linear_37_757" x1="961" y1="813.137" x2="960.83" y2="932.383" gradientUnits="userSpaceOnUse">
<stop stop-color="#F6F6F6"/>
<stop offset="1" stop-color="white"/>
</linearGradient>
<linearGradient id="paint21_linear_37_757" x1="961" y1="813.137" x2="960.83" y2="932.383" gradientUnits="userSpaceOnUse">
<stop stop-color="#F6F6F6"/>
<stop offset="1" stop-color="white"/>
</linearGradient>
<linearGradient id="paint22_linear_37_757" x1="961" y1="813.137" x2="960.83" y2="932.383" gradientUnits="userSpaceOnUse">
<stop stop-color="#F6F6F6"/>
<stop offset="1" stop-color="white"/>
</linearGradient>
<linearGradient id="paint23_linear_37_757" x1="961" y1="813.137" x2="960.83" y2="932.383" gradientUnits="userSpaceOnUse">
<stop stop-color="#F6F6F6"/>
<stop offset="1" stop-color="white"/>
</linearGradient>
<linearGradient id="paint24_linear_37_757" x1="961" y1="813.137" x2="960.83" y2="932.383" gradientUnits="userSpaceOnUse">
<stop stop-color="#F6F6F6"/>
<stop offset="1" stop-color="white"/>
</linearGradient>
<linearGradient id="paint25_linear_37_757" x1="961" y1="813.137" x2="960.83" y2="932.383" gradientUnits="userSpaceOnUse">
<stop stop-color="#F6F6F6"/>
<stop offset="1" stop-color="white"/>
</linearGradient>
<linearGradient id="paint26_linear_37_757" x1="961" y1="813.137" x2="960.83" y2="932.383" gradientUnits="userSpaceOnUse">
<stop stop-color="#F6F6F6"/>
<stop offset="1" stop-color="white"/>
</linearGradient>
<linearGradient id="paint27_linear_37_757" x1="961" y1="813.137" x2="960.83" y2="932.383" gradientUnits="userSpaceOnUse">
<stop stop-color="#F6F6F6"/>
<stop offset="1" stop-color="white"/>
</linearGradient>
<linearGradient id="paint28_linear_37_757" x1="961" y1="813.137" x2="960.83" y2="932.383" gradientUnits="userSpaceOnUse">
<stop stop-color="#F6F6F6"/>
<stop offset="1" stop-color="white"/>
</linearGradient>
<linearGradient id="paint29_linear_37_757" x1="961" y1="813.137" x2="960.83" y2="932.383" gradientUnits="userSpaceOnUse">
<stop stop-color="#F6F6F6"/>
<stop offset="1" stop-color="white"/>
</linearGradient>
<linearGradient id="paint30_linear_37_757" x1="961" y1="813.137" x2="960.83" y2="932.383" gradientUnits="userSpaceOnUse">
<stop stop-color="#F6F6F6"/>
<stop offset="1" stop-color="white"/>
</linearGradient>
<linearGradient id="paint31_linear_37_757" x1="961" y1="813.137" x2="960.83" y2="932.383" gradientUnits="userSpaceOnUse">
<stop stop-color="#F6F6F6"/>
<stop offset="1" stop-color="white"/>
</linearGradient>
<linearGradient id="paint32_linear_37_757" x1="961" y1="813.137" x2="960.83" y2="932.383" gradientUnits="userSpaceOnUse">
<stop stop-color="#F6F6F6"/>
<stop offset="1" stop-color="white"/>
</linearGradient>
<linearGradient id="paint33_linear_37_757" x1="961" y1="813.137" x2="960.83" y2="932.383" gradientUnits="userSpaceOnUse">
<stop stop-color="#F6F6F6"/>
<stop offset="1" stop-color="white"/>
</linearGradient>
<linearGradient id="paint34_linear_37_757" x1="961" y1="813.137" x2="960.83" y2="932.383" gradientUnits="userSpaceOnUse">
<stop stop-color="#F6F6F6"/>
<stop offset="1" stop-color="white"/>
</linearGradient>
<linearGradient id="paint35_linear_37_757" x1="961" y1="813.137" x2="960.83" y2="932.383" gradientUnits="userSpaceOnUse">
<stop stop-color="#F6F6F6"/>
<stop offset="1" stop-color="white"/>
</linearGradient>
</defs>
</svg>
