<svg width="22" height="20" viewBox="0 0 22 20" fill="none" xmlns="http://www.w3.org/2000/svg">
<path d="M4.63982 0.0928712C7.1964 -0.269904 9.17153 0.545889 11.0156 2.19191C14.2109 -1.17594 20.2894 -0.74097 21.6923 4.04008C22.5802 7.06681 21.4431 8.54137 19.6046 10.7469C17.4283 13.3549 14.5302 16.748 12.149 19.1196C11.8056 19.4607 11.4863 19.8361 10.999 19.995C10.5283 20.0617 10.0705 19.4499 9.7493 19.1214C7.2647 16.5693 3.4529 12.4561 1.37257 9.6694C-1.27077 6.13009 -0.0506275 0.758861 4.63982 0.0928712ZM5.56093 1.53314C2.95451 1.63782 1.16583 4.29276 1.63469 6.71306C1.81189 7.62812 2.45981 8.40962 3.03019 9.12795C5.35788 12.0662 8.26334 14.6309 10.5707 17.5999L11.0156 17.8454L19.6877 7.94938C22.3384 3.35965 16.4481 -0.549655 12.6049 2.83263C12.1545 3.2297 11.5934 4.32163 11.0322 4.37578C10.3123 4.44436 9.92096 3.40658 9.48348 3.00951C8.56422 2.17928 6.81615 1.48441 5.56278 1.53495L5.56093 1.53314Z" fill="#C8C6E5"/>
</svg>
