<svg width="20" height="20" viewBox="0 0 20 20" fill="none" xmlns="http://www.w3.org/2000/svg">
<path fill-rule="evenodd" clip-rule="evenodd" d="M19.6 10.2273C19.6 9.51819 19.5364 8.83637 19.4182 8.18182H10V12.05H15.3818C15.15 13.3 14.4455 14.3591 13.3864 15.0682V17.5773H16.6182C18.5091 15.8364 19.6 13.2727 19.6 10.2273Z" fill="#4285F4"/>
<path fill-rule="evenodd" clip-rule="evenodd" d="M9.99986 20C12.6999 20 14.9635 19.1045 16.6181 17.5772L13.3862 15.0682C12.4908 15.6682 11.3453 16.0227 9.99986 16.0227C7.39531 16.0227 5.19076 14.2636 4.40439 11.9H1.06348V14.4909C2.70893 17.7591 6.09076 20 9.99986 20Z" fill="#34A853"/>
<path fill-rule="evenodd" clip-rule="evenodd" d="M4.40455 11.9C4.20455 11.3 4.09092 10.659 4.09092 9.99995C4.09092 9.34086 4.20455 8.69995 4.40455 8.09995V5.50903H1.06364C0.386364 6.85904 0 8.38631 0 9.99995C0 11.6136 0.386364 13.1409 1.06364 14.4909L4.40455 11.9Z" fill="#FBBC05"/>
<path fill-rule="evenodd" clip-rule="evenodd" d="M9.99986 3.97728C11.468 3.97728 12.7862 4.48183 13.8226 5.47274L16.6908 2.60455C14.959 0.990911 12.6953 0 9.99986 0C6.09076 0 2.70893 2.24091 1.06348 5.5091L4.40439 8.10002C5.19076 5.73638 7.39531 3.97728 9.99986 3.97728Z" fill="#EA4335"/>
</svg>
