<svg width="32" height="32" viewBox="0 0 32 32" fill="none" xmlns="http://www.w3.org/2000/svg">
<path opacity="0.5" d="M29.3346 16.0013C29.3346 22.2866 29.3346 25.4293 27.3813 27.3813C25.4306 29.3346 22.2866 29.3346 16.0013 29.3346C9.71597 29.3346 6.5733 29.3346 4.61997 27.3813C2.66797 25.4306 2.66797 22.2866 2.66797 16.0013C2.66797 9.71597 2.66797 6.5733 4.61997 4.61997C6.57464 2.66797 9.71597 2.66797 16.0013 2.66797C22.2866 2.66797 25.4293 2.66797 27.3813 4.61997C29.3346 6.57464 29.3346 9.71597 29.3346 16.0013Z" fill="#FF3C00"/>
<path d="M9.33203 22.3346C9.06681 22.3346 8.81246 22.44 8.62492 22.6275C8.43739 22.8151 8.33203 23.0694 8.33203 23.3346C8.33203 23.5999 8.43739 23.8542 8.62492 24.0417C8.81246 24.2293 9.06681 24.3346 9.33203 24.3346H17.332C17.5972 24.3346 17.8516 24.2293 18.0391 24.0417C18.2267 23.8542 18.332 23.5999 18.332 23.3346C18.332 23.0694 18.2267 22.8151 18.0391 22.6275C17.8516 22.44 17.5972 22.3346 17.332 22.3346H9.33203ZM9.33203 17.668C9.06681 17.668 8.81246 17.7733 8.62492 17.9609C8.43739 18.1484 8.33203 18.4028 8.33203 18.668C8.33203 18.9332 8.43739 19.1875 8.62492 19.3751C8.81246 19.5626 9.06681 19.668 9.33203 19.668H21.332C21.5972 19.668 21.8516 19.5626 22.0391 19.3751C22.2267 19.1875 22.332 18.9332 22.332 18.668C22.332 18.4028 22.2267 18.1484 22.0391 17.9609C21.8516 17.7733 21.5972 17.668 21.332 17.668H9.33203ZM29.332 6.66797C29.332 7.72883 28.9106 8.74625 28.1605 9.4964C27.4103 10.2465 26.3929 10.668 25.332 10.668C24.2712 10.668 23.2537 10.2465 22.5036 9.4964C21.7535 8.74625 21.332 7.72883 21.332 6.66797C21.332 5.6071 21.7535 4.58969 22.5036 3.83954C23.2537 3.0894 24.2712 2.66797 25.332 2.66797C26.3929 2.66797 27.4103 3.0894 28.1605 3.83954C28.9106 4.58969 29.332 5.6071 29.332 6.66797Z" fill="#FF3C00"/>
</svg>
