<svg width="29" height="32" viewBox="0 0 29 32" fill="none" xmlns="http://www.w3.org/2000/svg">
<path d="M26.8327 12.2606L6.47055 0.580938C5.80557 0.194576 5.0518 -0.00582157 4.28592 0.00012875C3.52003 0.00607907 2.76936 0.218166 2.11027 0.614814C1.46815 0.988189 0.934669 1.52771 0.564028 2.17856C0.193387 2.82941 -0.00120967 3.5684 5.65789e-06 4.32047V27.6798C-0.00120967 28.4319 0.193387 29.1709 0.564028 29.8217C0.934669 30.4726 1.46815 31.0121 2.11027 31.3855C2.76943 31.7819 3.52007 31.9939 4.28592 31.9999C5.05176 32.0058 5.80551 31.8055 6.47055 31.4194L26.8327 19.7397C27.4894 19.3698 28.0368 18.828 28.4179 18.1704C28.799 17.5128 29 16.7634 29 16.0001C29 15.2369 28.799 14.4875 28.4179 13.8299C28.0368 13.1723 27.4894 12.6305 26.8327 12.2606Z" fill="white"/>
</svg>
