<svg width="47" height="45" viewBox="0 0 47 45" fill="none" xmlns="http://www.w3.org/2000/svg">
<path d="M8.85891 23.4102L9.95384 23.4891C10.0804 24.3849 10.9406 28.5866 11.7035 28.8472L35.5224 28.6986C37.3969 24.7979 37.5748 19.8124 35.3042 16.0898H11.7035C11.2597 16.2422 10.5866 18.4853 10.4307 19.0304C10.1409 20.0419 10.3188 22.441 8.81673 21.4277C8.62048 19.2526 9.62922 16.6662 10.7718 14.7939C19.8816 -0.135051 42.9265 10.3719 37.6775 27.0061C33.5417 40.116 14.9168 40.8576 9.71542 28.0855C9.4293 27.3824 8.27935 23.7663 8.85891 23.4102ZM22.7702 9.10352C20.3896 9.79555 18.9224 12.5324 18.3685 14.7792H22.7702V9.10352ZM28.6392 14.7792C28.0853 12.5324 26.6181 9.79555 24.2375 9.10352V14.7792H28.6392ZM12.6829 14.7792H16.6261L18.1539 11.543L19.3754 9.65053C17.8641 10.0837 16.5124 10.8308 15.2689 11.7762C14.8655 12.0827 12.2226 14.3331 12.6829 14.7774V14.7792ZM34.3248 14.7792C34.3743 14.4947 34.2973 14.3552 34.1506 14.1294C32.8924 12.2002 29.7965 10.3627 27.6323 9.65053L28.8538 11.543L30.3816 14.7792H34.3248ZM16.9013 30.3414H12.4995C13.7265 32.0577 15.379 33.4986 17.2644 34.4642C17.8843 34.7817 18.838 35.303 19.4689 35.1929C18.2365 33.8236 17.3653 32.1128 16.9013 30.3396V30.3414ZM22.7702 30.3414H18.3685C19.0911 32.5496 20.3548 35.1488 22.7702 35.8335V30.3414ZM28.6392 30.3414H24.2375V35.8335C26.6529 35.1488 27.9166 32.5478 28.6392 30.3414ZM34.3248 30.3414H30.1065C29.6425 32.1146 28.7713 33.8254 27.5388 35.1947C28.951 35.1176 30.5705 34.0493 31.737 33.1609C32.7365 32.3991 33.7911 31.5125 34.323 30.3414H34.3248Z" fill="#312783"/>
<path d="M41.4153 9.53122C40.335 8.41885 36.8301 8.06641 35.4326 7.17247C33.8094 6.13352 32.377 2.43663 30.9703 1.74093C29.1766 0.854338 26.8198 2.88268 24.9069 2.66975L24.5896 2.23287C24.5713 2.00342 24.641 1.8529 24.773 1.67302C24.9766 1.394 28.4357 0.309165 28.9969 0.213713C30.4421 -0.0304213 31.6526 0.222892 32.6723 1.32058C33.6921 2.41827 34.8457 4.99912 35.8783 5.81046C37.0172 6.70623 40.1791 7.12658 41.606 7.96545C44.5002 9.66705 42.8092 13.6338 43.352 16.2917C43.5721 17.3711 45.9124 19.7941 46.5286 20.9927C47.2347 22.3676 47.1137 23.3918 46.3911 24.7208C45.6043 26.1691 43.2989 28.2011 43.1246 29.699C42.9027 31.6135 43.4217 35.0277 42.2865 36.5531C41.0246 38.2492 37.9764 38.3428 36.1039 39.1688C33.8241 40.1747 32.8429 44.3617 30.2954 44.9069C27.7057 45.4594 25.6039 43.3742 23.2269 43.3283C20.4905 43.2732 17.2002 46.2891 14.5958 43.8992C13.1634 42.5849 12.1382 39.5708 10.3904 38.7595C8.51227 37.8876 5.3742 37.6893 4.15822 35.8262C3.07979 34.1723 4.08853 30.58 3.65202 28.6417C3.42643 27.6376 1.14303 25.1981 0.534121 24.0637C-0.225179 22.6466 -0.151817 21.6131 0.607483 20.2162C1.22739 19.0745 3.5163 16.78 3.79141 15.8897C4.22241 14.4984 3.76023 11.2604 4.0977 9.60464C4.75245 6.39234 9.67874 6.88061 11.6412 5.41764C13.2221 4.23918 14.3207 0.659764 16.5601 0.0760435C17.91 -0.276392 21.1416 0.674449 22.3979 1.32425C22.596 1.42705 22.8473 1.46743 22.928 1.72074L22.7794 2.4403C22.6052 2.64955 22.4089 2.70829 22.1412 2.69728C21.0481 2.64588 19.0104 1.40135 17.8531 1.26918C15.6229 1.01404 14.0255 5.45068 12.2959 6.62546C10.5664 7.80025 6.67638 7.90121 5.73734 9.41558C4.91202 10.7464 5.51909 13.5934 5.34119 15.2436C5.0404 18.0337 1.09534 20.1281 1.50067 22.7384C1.70425 24.0398 4.28477 26.4316 4.84049 28.0084C5.61813 30.2093 4.19307 33.7373 5.55027 35.3563C6.53516 36.5311 10.2179 36.8817 11.7476 37.9592C13.4697 39.1707 14.9241 43.4311 17.0003 43.5192C18.5886 43.5853 21.3929 41.8341 23.2214 41.8708C25.116 41.9075 28.1404 43.9377 29.7378 43.6422C31.5591 43.3063 33.0666 39.4331 34.6971 38.3263C36.3386 37.2121 40.2892 37.1093 41.2887 35.5692C42.092 34.3302 41.4189 30.9325 41.7381 29.2437C42.1581 27.0282 45.5217 24.842 45.5217 22.753C45.5217 20.9652 42.7138 18.7331 42.1141 16.9838C41.3951 14.8857 42.789 10.9593 41.4098 9.5404L41.4153 9.53122Z" fill="#312783"/>
<path d="M22.3668 4.76233C30.3192 4.24286 37.8884 9.34032 40.3845 16.8773C40.6798 17.7694 41.5693 20.9487 40.8486 21.5728C40.5734 21.8114 40.0783 21.6388 39.9187 21.369C39.7169 21.0276 39.4052 18.3825 39.1465 17.5638C33.7893 0.597354 8.46826 3.58938 7.17341 20.9046C5.64748 41.3201 34.7907 45.8339 39.5574 25.7689C39.7811 24.8236 39.5941 22.5199 41.021 23.5644C41.2355 28.5278 38.0186 33.7299 34.1249 36.6412C21.3947 46.1569 3.66486 35.4334 5.92075 19.8381C7.10005 11.6899 14.152 5.30016 22.3649 4.76233H22.3668Z" fill="#312783"/>
<path d="M28.045 18.3054C34.6054 17.3729 34.6348 27.577 28.0138 26.6629C23.5681 26.0498 23.3883 18.968 28.045 18.3054ZM28.5934 19.583C24.9766 19.772 25.1692 25.3743 28.7273 25.3981C32.5733 25.4238 32.4889 19.3792 28.5934 19.583Z" fill="#312783"/>
<path d="M21.4314 23.6176C21.0591 23.1734 19.2195 22.7237 18.5739 22.3547C16.5491 21.1946 17.4276 18.544 19.5771 18.2742C20.6574 18.1383 23.7038 18.8157 22.4695 20.2511C21.734 20.4971 19.9935 18.8138 19.0856 19.9795C18.1374 21.2001 20.3199 21.5232 21.0591 21.8885C22.4291 22.5621 23.5956 23.5093 22.8418 25.1962C22.088 26.8831 19.7037 27.0245 18.1979 26.2113C17.6624 25.9213 16.8114 25.3816 17.1727 24.6676C17.6862 23.6543 18.6198 24.9374 19.2433 25.1669C20.5547 25.6515 22.4475 24.8273 21.4332 23.6194L21.4314 23.6176Z" fill="#312783"/>
<path d="M14.462 18.2834C15.1717 18.0814 15.368 18.6633 15.4377 19.2599C15.5972 20.6513 15.5991 24.2839 15.4377 25.6753C15.2799 27.0282 14.1135 27.0337 13.9594 25.8644C13.8641 25.1448 13.9007 18.9497 14.0603 18.6248C14.13 18.4798 14.3097 18.3292 14.4638 18.2852L14.462 18.2834Z" fill="#312783"/>
</svg>
