<svg width="46" height="47" viewBox="0 0 46 47" fill="none" xmlns="http://www.w3.org/2000/svg">
<path d="M34.8558 10.7786H24.7918V17.2718C24.7918 17.303 24.515 17.5947 24.4287 17.6351H11.854C11.7696 17.5947 11.491 17.303 11.491 17.2718V10.7786H1.42874V32.4544C1.42874 32.8012 2.33091 33.5718 2.77301 33.4653L22.0098 33.458C23.2013 33.4617 23.4331 34.7643 22.1949 34.9331C15.9516 34.4708 8.91749 35.5203 2.76942 34.9331C1.36045 34.7992 0.569698 34.0396 0.0754805 32.7369L0 9.96765C0.0772777 9.48144 4.15862 2.13325 4.69237 1.38834C5.3699 0.443441 5.75988 0.243453 6.90287 0.162724C14.2407 -0.358346 22.1625 0.575544 29.5632 0.162724C30.2731 0.162724 30.8985 0.548022 31.3406 1.09845C33.1629 3.36804 34.5485 7.49256 36.254 10.0007C36.3636 10.5511 36.3942 13.8463 36.2576 14.3123C36.0456 15.0444 34.8558 14.8609 34.8558 14.5325V10.7786ZM13.8291 1.63236H6.37092L5.77067 2.30205L1.96789 9.31631H11.6725L13.8291 1.6342V1.63236ZM29.7339 1.63236H22.4555L24.7019 9.31448H34.137L30.1904 1.94977C30.1006 1.82868 29.8597 1.65438 29.7339 1.63236ZM13.1103 9.31631H22.9946L21.0393 1.92225L20.7554 1.80483L15.1051 1.83418L13.1103 9.31631ZM23.354 10.7786H12.9305V16.2664H23.354V10.7786Z" fill="#312783"/>
<path d="M39.9274 18.6038C43.5667 19.1616 42.9844 19.5102 42.2511 22.7192L44.3628 24.9924C44.4886 25.4805 42.4039 27.3318 42.075 27.9244L42.5602 31.6086L39.7513 32.4067C39.275 33.3442 39.4907 34.7093 38.6263 35.3827C37.9469 35.6946 36.414 34.9625 35.6628 34.8047C35.0212 35.1588 33.9321 36.8523 33.3193 36.9459C32.3847 37.0871 31.2453 35.0634 30.433 34.6047C29.4805 34.6653 28.2711 35.2084 27.3617 35.2322C26.2349 35.2597 26.4973 32.9791 26.0102 32.225C25.4226 31.9627 23.5356 31.8269 23.2606 31.271C22.9227 30.5884 23.8447 28.9133 23.8536 28.0895C23.5356 27.4602 21.7833 26.2529 21.7276 25.6805C21.6539 24.9136 23.8213 23.6384 24.0406 22.7155C24.2257 21.9339 23.1887 20.0203 23.5589 19.0387L26.2331 18.3763C26.7561 17.6993 26.6105 15.8407 27.3581 15.4829C27.9494 15.2004 29.6621 16.0994 30.4187 16.0572C31.0027 15.7618 32.2805 13.9087 32.7855 13.894C33.6284 13.8702 34.8738 16.048 35.5262 16.2388C36.1785 16.4296 37.4383 15.7728 38.1842 15.7196C40.0173 15.5912 39.3865 17.2883 39.9274 18.6057V18.6038ZM38.2507 17.3837C36.9819 17.2351 35.7993 18.2938 34.6671 17.4626C34.3652 17.2406 33.0892 15.7214 32.9688 15.7214L30.9237 17.6388L28.2082 16.9984C27.917 19.3726 27.2467 19.835 24.9697 20.112L25.6562 23.0898L23.5356 25.5062L25.4333 27.6015L24.79 30.3518L27.2161 31.0857L27.8487 33.6451L30.9524 32.9406L33.1485 35.1056L35.2081 33.1736L37.9092 33.8286L38.6317 31.359L41.1477 30.7169L40.4576 27.5593L42.5818 25.3227L40.6337 23.2696L41.3274 20.4771C38.9174 20.2404 38.6353 19.7139 38.2525 17.3856L38.2507 17.3837Z" fill="#312783"/>
<path d="M25.2842 32.7755C25.4801 32.9791 25.5232 33.3736 25.4369 33.647L22.6352 42.0593C23.5356 41.7181 24.6498 39.5457 25.3417 41.2227L25.8665 43.3381L28.4094 35.9569C28.7868 35.2285 29.459 35.3661 29.6441 36.1184L26.1037 46.582C24.3892 48.1085 24.5312 43.839 24.249 42.7896C23.9381 42.707 23.8896 42.9217 23.7099 43.0611C23.0306 43.5913 21.5461 45.7197 20.6565 45.261L20.2953 44.7014L24.1053 33.036C24.3065 32.5975 24.9553 32.4287 25.2824 32.7718L25.2842 32.7755Z" fill="#312783"/>
<path d="M42.0463 42.7896L41.5664 46.5893C41.4011 46.993 40.6247 47.1563 40.3354 46.815L36.166 36.445C36.1085 35.7569 36.9513 35.3955 37.3808 35.9184L40.5169 43.1528C40.817 42.4153 40.5223 40.8814 41.4891 40.6741C42.0391 40.5567 43.4193 42.2997 43.6619 42.0538L40.4701 34.2378C40.1952 33.3718 40.6121 32.8544 41.4262 33.2598L46 44.3601C45.725 46.8168 42.3841 42.4465 42.0463 42.7896Z" fill="#312783"/>
<path d="M14.548 25.5961V30.8086C14.548 31.1829 13.29 31.1829 13.29 30.8086V25.5961C12.5999 25.9924 11.8666 27.5152 11.0399 26.5098C10.9267 26.3171 10.9213 26.1227 10.9788 25.9098C11.0831 25.5337 13.4248 23.0164 13.919 23.0164C14.3413 23.0164 16.7423 25.3576 16.8519 25.7263C17.0981 26.5648 16.5518 26.9483 15.8096 26.5997C15.3944 26.4052 15.1285 25.5612 14.5498 25.5961H14.548Z" fill="#312783"/>
<path d="M7.53907 25.5961V30.8086C7.53907 31.1829 6.28106 31.1829 6.28106 30.8086V25.5961C5.70238 25.5612 5.4364 26.4034 5.02125 26.5997C4.27903 26.9483 3.73269 26.5648 3.9789 25.7263C4.08673 25.3576 6.48953 23.0164 6.91186 23.0164C7.42944 23.0164 9.73879 25.3832 9.84841 25.9117C9.97781 26.541 9.70464 26.7978 9.07743 26.6969C8.45023 26.596 8.22199 25.6218 7.54087 25.5961H7.53907Z" fill="#312783"/>
<path d="M31.7575 18.8754C42.4308 17.3158 41.6311 33.924 31.7324 31.9755C24.6067 30.5738 24.9984 19.8625 31.7575 18.8754ZM32.8466 20.1505C26.0695 20.4111 26.4829 30.871 33.1467 30.7316C39.8861 30.5903 39.7351 19.8863 32.8466 20.1505Z" fill="#312783"/>
<path d="M30.7727 28.284C30.5984 28.1354 29.0546 25.4805 29.0115 25.2438C28.8947 24.6163 29.6603 24.2677 30.1832 24.5888C30.5768 24.831 31.0477 26.3263 31.5311 26.6878C31.8312 26.6933 35.359 22.9797 36.1731 22.8898L36.7446 23.2127C36.8615 23.4054 36.8686 23.6292 36.8363 23.8457C36.7285 24.5649 32.4027 27.662 31.6713 28.4932C31.3837 28.5739 31.0009 28.4766 30.7727 28.2822V28.284Z" fill="#312783"/>
</svg>
