<svg width="47" height="48" viewBox="0 0 47 48" fill="none" xmlns="http://www.w3.org/2000/svg">
<path d="M22.7133 4.55698C25.9073 4.04365 26.1829 6.36298 27.8788 6.71706C29.7172 7.09924 30.8657 6.03887 32.9186 7.03367C35.5023 8.28514 34.6423 10.8518 36.6231 11.8915C38.1581 12.6971 39.1624 12.3973 40.1445 14.312C41.2449 16.4571 40.1334 17.6205 40.5218 19.5483C40.7936 20.8972 42.5747 21.4274 42.7041 23.7073C42.865 26.525 40.8362 26.8847 40.5218 28.4397C40.1445 30.3056 41.1894 31.4709 40.2092 33.556C38.9756 36.1789 36.4474 35.3058 35.4228 37.316C34.6294 38.8729 34.9253 39.8939 33.037 40.8906C30.923 42.0072 29.7764 40.8793 27.877 41.2746C26.5472 41.5519 26.0256 43.3579 23.7804 43.4891C21.0043 43.652 20.6511 41.5931 19.1179 41.2746C17.2795 40.8925 16.131 41.9528 14.0781 40.958C11.4944 39.7066 12.3544 37.1399 10.3736 36.1002C8.83857 35.2946 7.83431 35.5944 6.85224 33.6797C5.75181 31.5346 6.86334 30.3712 6.47495 28.4434C6.20308 27.0945 4.42204 26.5643 4.29258 24.2844C4.13168 21.4667 6.16054 21.107 6.47495 19.552C6.85224 17.6861 5.80729 16.5208 6.78751 14.4357C8.0211 11.8128 10.5493 12.6859 11.5739 10.6757C12.3673 9.11882 12.0714 8.09779 13.9597 7.10112C16.0737 5.98454 17.2203 7.11236 19.1197 6.71706C20.2868 6.47351 20.9674 4.838 22.7133 4.55698ZM23.4364 5.89274C21.2281 5.93771 20.8823 8.4219 17.8658 8.2664C16.4362 8.19334 16.0737 7.46269 14.509 8.40691C12.8112 9.43168 13.3753 11.929 10.9303 13.2048C9.73741 13.8268 8.85891 13.5364 8.07844 14.9939C7.24433 16.5545 7.93418 16.8655 8.00446 18.2781C8.15796 21.358 5.61865 21.7515 5.66673 24.0595C5.71482 26.3676 8.15796 26.6524 8.00446 29.7136C7.93233 31.1655 7.21289 31.5327 8.14132 33.1195C9.15113 34.8431 11.6109 34.2698 12.8686 36.7521C13.4807 37.9624 13.1941 38.856 14.6311 39.6466C16.168 40.4934 16.475 39.7927 17.8658 39.7216C20.9008 39.5661 21.2873 42.142 23.5622 42.0952C25.7704 42.0502 26.1163 39.5661 29.1327 39.7216C30.5624 39.7946 30.9249 40.5253 32.4895 39.581C34.1873 38.5563 33.6232 36.059 36.0682 34.7831C37.2611 34.1612 38.1396 34.4515 38.9201 32.994C39.7542 31.4334 39.0644 31.1224 38.9941 29.7099C38.8406 26.6299 41.3799 26.2365 41.3318 23.9284C41.2874 21.6878 38.8406 21.3356 38.9941 18.2743C39.0662 16.8224 39.7857 16.4552 38.8572 14.8684C37.8474 13.1449 35.3876 13.7181 34.13 11.2358C33.5178 10.0256 33.8045 9.13193 32.3675 8.34134C30.8306 7.49454 30.5235 8.19521 29.1327 8.2664C26.0978 8.4219 25.7112 5.84591 23.4364 5.89274Z" fill="#312783"/>
<path d="M0.55851 0.0419739C0.824833 -0.032964 1.05972 -0.00111539 1.26686 0.193723L7.08157 6.09508C7.5125 6.59716 7.12596 7.399 6.46755 7.29783C5.54282 7.15357 1.38152 2.04281 0.233004 1.24285C-0.127642 0.855049 0.0776492 0.178735 0.55851 0.0419739Z" fill="#312783"/>
<path d="M45.9647 0.0419739C46.3402 -0.0648125 46.6398 0.0663287 46.8525 0.390435L46.7655 1.24285C45.617 2.04281 41.4557 7.15357 40.5292 7.29596C39.8707 7.39712 39.4842 6.59341 39.9151 6.0932C41.0895 5.34195 45.1066 0.283648 45.9629 0.0419739H45.9647Z" fill="#312783"/>
<path d="M6.46755 40.6939C6.79306 40.6452 6.9854 40.7707 7.1685 41.0442L7.22953 41.6587L0.878468 47.9853C0.21451 48.0528 -0.214566 47.2772 0.231155 46.7488C1.37043 45.9545 5.55392 40.8306 6.46755 40.6957V40.6939Z" fill="#312783"/>
<path d="M40.2406 40.6939C40.6401 40.5927 40.9434 40.9187 41.2209 41.1341C43.1129 42.5973 44.8551 45.192 46.7637 46.747C47.2094 47.2753 46.7803 48.0509 46.1164 47.9834L39.9151 41.8966L39.7653 41.1772C39.819 40.988 40.052 40.7407 40.2388 40.6939H40.2406Z" fill="#312783"/>
<path d="M9.78549 0.0419739C10.566 -0.184713 10.6677 0.553425 10.8563 1.13794C11.0949 1.8742 11.905 4.03241 11.0024 4.2947C10.222 4.52138 10.1202 3.78324 9.9316 3.19873C9.69302 2.46247 8.88295 0.304256 9.78549 0.0419739Z" fill="#312783"/>
<path d="M36.7267 0.0344801L37.4516 0.186229C37.6606 0.364207 37.7235 0.564665 37.7106 0.838188C37.6958 1.13981 36.8524 3.9837 36.7026 4.14107C36.2384 4.63004 35.4672 4.18978 35.5005 3.50223C35.5208 3.06572 36.3716 0.150634 36.7285 0.0344801H36.7267Z" fill="#312783"/>
<path d="M10.516 43.6858L11.241 43.8375C11.45 44.0155 11.5129 44.216 11.4999 44.4895C11.4852 44.7911 10.6418 47.635 10.492 47.7924C10.0278 48.2813 9.25654 47.8411 9.28983 47.1535C9.31018 46.717 10.1609 43.8019 10.5179 43.6858H10.516Z" fill="#312783"/>
<path d="M35.9961 43.6933C36.7766 43.4666 36.8783 44.2047 37.067 44.7892C37.3055 45.5255 38.1156 47.6837 37.2131 47.946C36.4326 48.1727 36.3309 47.4345 36.1422 46.85C35.9036 46.1138 35.0936 43.9555 35.9961 43.6933Z" fill="#312783"/>
<path d="M0.56036 9.41295C1.4444 9.15441 5.90901 10.6063 3.88385 11.4943C3.62862 11.6068 1.03752 10.9173 0.665779 10.7337C-0.018523 10.3946 -0.207168 9.63964 0.562209 9.41295H0.56036Z" fill="#312783"/>
<path d="M3.66006 36.443C3.78398 36.4524 3.89495 36.4917 4.00221 36.5573C5.49658 37.9081 0.933952 38.768 0.429048 38.5169C-1.37418 37.6214 3.05159 36.3999 3.66006 36.443Z" fill="#312783"/>
<path d="M43.3385 36.4411C43.9951 36.3981 48.3672 37.6252 46.5695 38.5169C46.1238 38.738 43.1517 37.9661 42.865 37.5952C42.4785 37.0969 42.7282 36.4824 43.3385 36.443V36.4411Z" fill="#312783"/>
<path d="M45.7927 9.42419C46.8876 9.29867 47.4092 10.1099 46.4548 10.67C45.9684 10.9548 43.1129 11.8166 42.7818 11.2602C42.1252 10.1586 45.04 9.50849 45.7927 9.42419Z" fill="#312783"/>
<path d="M22.3619 8.84717L22.5487 9.62465C22.4136 10.2242 20.296 10.3909 19.6228 10.6007C2.71869 15.8576 9.37861 41.5744 26.7876 37.5446C39.7413 34.5471 40.9157 15.5166 28.3412 10.9286C27.3647 10.5726 25.4116 10.3534 24.7958 10.0312C24.3537 9.80075 24.3574 9.02515 24.633 8.84717C25.7464 8.12777 30.4551 10.2541 31.6036 10.9885C41.0895 17.0566 40.9286 31.4222 31.2522 37.2055C20.0186 43.9199 6.4805 34.2473 8.57224 21.3037C9.63938 14.6979 15.639 8.82094 22.36 8.84717H22.3619Z" fill="#312783"/>
<path d="M29.547 15.9756C31.2522 15.7358 35.0843 19.4415 33.2829 21.2794L27.1353 27.4186C26.5731 27.6584 26.0127 27.0121 26.3604 26.4332C27.1446 25.2061 32.0494 21.2456 32.3268 20.3014C32.4377 19.9211 32.3712 19.7206 32.1825 19.3947C31.9014 18.9094 29.9336 16.8355 29.301 17.6168L21.4723 25.4197C20.4791 25.6969 18.3911 22.2517 17.4885 22.1149C17.1649 22.0662 17.0151 22.1411 16.7506 22.3004C16.5712 22.4072 14.7051 24.3574 14.6644 24.5054C14.5886 24.7771 14.62 25.0131 14.8123 25.2248C16.205 26.169 19.2677 30.4049 20.5771 30.8077C22.5597 31.4166 23.2977 28.9211 24.424 28.3928C25.0676 28.0912 25.5318 28.8144 25.2526 29.4251C25.1749 29.5937 23.0628 31.6938 22.8242 31.8362C21.6942 32.5088 20.2646 32.3702 19.1919 31.6451C18.5335 31.2011 13.9172 26.5475 13.5584 25.9349C13.096 25.1424 13.072 24.4923 13.4937 23.6774C13.7286 23.224 15.6058 21.3112 16.0533 21.0302C18.4761 19.5052 19.6228 22.5777 21.3502 23.608L28.3874 16.5002C28.7 16.2735 29.1716 16.03 29.5452 15.9756H29.547Z" fill="#312783"/>
</svg>
