<svg width="20" height="20" viewBox="0 0 20 20" fill="none" xmlns="http://www.w3.org/2000/svg">
<path d="M7.50136 9.16668C7.50136 8.70644 7.87446 8.33334 8.3347 8.33334C8.79493 8.33334 9.16803 8.70644 9.16803 9.16668V14.1667C9.16803 14.6269 8.79493 15 8.3347 15C7.87446 15 7.50136 14.6269 7.50136 14.1667V9.16668Z" fill="#B3B0D8"/>
<path d="M11.668 8.33334C11.2078 8.33334 10.8347 8.70644 10.8347 9.16668V14.1667C10.8347 14.6269 11.2078 15 11.668 15C12.1283 15 12.5014 14.6269 12.5014 14.1667V9.16668C12.5014 8.70644 12.1283 8.33334 11.668 8.33334Z" fill="#B3B0D8"/>
<path fill-rule="evenodd" clip-rule="evenodd" d="M7.11064 0.833344C4.6044 0.833344 2.66529 3.02993 2.97615 5.51682L4.40864 16.9768C4.56503 18.2278 5.62853 19.1667 6.88934 19.1667H13.1134C14.3742 19.1667 15.4377 18.2278 15.5941 16.9768L17.0266 5.51682C17.3374 3.02993 15.3983 0.833344 12.8921 0.833344H7.11064ZM4.7526 4.16668C5.09358 3.20459 6.01115 2.50001 7.11064 2.50001H12.8921C13.9916 2.50001 14.9092 3.20459 15.2501 4.16668H4.7526ZM4.69535 5.83334L6.06244 16.77C6.11457 17.1871 6.46907 17.5 6.88934 17.5H13.1134C13.5337 17.5 13.8882 17.1871 13.9403 16.77L15.3074 5.83334H4.69535Z" fill="#B3B0D8"/>
</svg>
